<?xml version="1.0" encoding="UTF-8"?>
<svg width="16" height="16" viewBox="-3 -3 16 16" fill="none" xmlns="http://www.w3.org/2000/svg">
  <path d="M8.5 7C8.22386 7 8 6.77614 8 6.5V3.5C8 3.22386 8.22386 3 8.5 3C8.77614 3 9 3.22386 9 3.5V6.5C9 6.77614 8.77614 7 8.5 7Z" fill="#D5D7E4"/>
  <path d="M0.5 7C0.223858 7 0 6.77614 0 6.5V3.5C0 3.22386 0.223858 3 0.5 3C0.776142 3 1 3.22386 1 3.5V6.5C1 6.77614 0.776142 7 0.5 7Z" fill="#D5D7E4"/>
  <path d="M2.5 8C2.22386 8 2 7.77614 2 7.5V2.5C2 2.22386 2.22386 2 2.5 2C2.77614 2 3 2.22386 3 2.5V7.5C3 7.77614 2.77614 8 2.5 8Z" fill="#D5D7E4"/>
  <path d="M6.5 8C6.22386 8 6 7.77614 6 7.5V2.5C6 2.22386 6.22386 2 6.5 2C6.77614 2 7 2.22386 7 2.5V7.5C7 7.77614 6.77614 8 6.5 8Z" fill="#D5D7E4"/>
  <path d="M4.46154 10.1538C4.20664 10.1538 4 9.94721 4 9.69231V0.461538C4 0.206638 4.20664 0 4.46154 0C4.71644 0 4.92308 0.206638 4.92308 0.461538V9.69231C4.92308 9.94721 4.71644 10.1538 4.46154 10.1538Z" fill="#D5D7E4"/>
</svg>
