<svg width="16" height="16" fill="none" viewBox="-3 -3 16 16" xmlns="http://www.w3.org/2000/svg">
  <path d="M9.88119 2.88955C9.72273 2.73094 9.46538 2.73094 9.30691 2.88955L7.43146 4.76485L5.2352 2.56849L7.11065 0.69335C7.26927 0.534743 7.26927 0.277569 7.11065 0.118957C6.95202 -0.0396544 6.69483 -0.0396504 6.53621 0.118957L4.66091 1.99409L3.27556 0.608855C3.02378 0.357092 2.61507 0.356938 2.36347 0.608855C2.11138 0.860772 2.11168 1.26929 2.36347 1.52119L2.96128 2.11911L2.3296 2.75075C1.18135 3.89906 1.00771 5.6487 1.80036 6.98343L0.251745 8.53191C-0.0839149 8.86755 -0.0839149 9.41252 0.251745 9.74816C0.587713 10.0841 1.1323 10.0838 1.46809 9.74816L3.01671 8.19936C4.35143 8.99194 6.10122 8.81832 7.24934 7.67017L7.88103 7.03881L8.47885 7.63657C8.73094 7.88864 9.13902 7.88849 9.39094 7.63657C9.64303 7.3845 9.64303 6.97646 9.39094 6.72424L8.00574 5.33916L9.88103 3.46387C10.0397 3.30541 10.0397 3.04824 9.88103 2.88963L9.88119 2.88955Z" fill="#D5D7E4"/>
</svg>