<?xml version="1.0" encoding="UTF-8"?>
<svg width="16" height="16" viewBox="-2 -3 16 16" fill="none" xmlns="http://www.w3.org/2000/svg">
  <path d="M1 0C0.447715 0 0 0.447715 0 1V3C0 3.55228 0.447721 3.99998 1 3.99997V9C1 9.55228 1.44772 10 2 10H10C10.5523 10 11 9.55228 11 9V3.99997C11.5523 3.99997 12 3.55225 12 2.99997V0.999999C12 0.447714 11.5523 0 11 0H1ZM1 1H11V3H1V1ZM2 3.99997L10 4V9L2 8.99997V3.99997ZM4.5 6C4.22386 6 4 6.22386 4 6.5C4 6.77614 4.22386 7 4.5 7H7.5C7.77614 7 8 6.77614 8 6.5C8 6.22386 7.77614 6 7.5 6H4.5Z" fill="#D5D7E4"/>
</svg>
