<?xml version="1.0" encoding="UTF-8"?>
<svg width="33px" height="30px" viewBox="0 0 33 30" version="1.1" xmlns="http://www.w3.org/2000/svg" xmlns:xlink="http://www.w3.org/1999/xlink">
    <title>noun_Megaphone</title>
    <g id="Page-1" stroke="none" stroke-width="1" fill="none" fill-rule="evenodd">
        <g id="Project-type" transform="translate(-587.000000, -417.000000)" fill="#2D2E43" fill-rule="nonzero">
            <g id="noun_Megaphone" transform="translate(587.000000, 417.000000)">
                <path d="M10.53332,29.4338742 L8.49718975,29.4338742 C7.89389188,29.4338742 7.36600625,29.056813 7.21518178,28.4912212 L4.57575362,19.66799 L4.16098634,19.5925777 C2.20026828,19.3286349 0.72972973,17.6318597 0.72972973,15.6334355 L0.72972973,11.5234688 C0.72972973,9.5250446 2.20026828,7.82826935 4.16098634,7.56432653 L11.2874424,6.5839675 C11.3251485,6.5839675 11.4005607,6.54626139 11.475973,6.54626139 L17.3581272,5.75443294 C18.4138984,5.60360847 19.3942574,5.26425342 20.2992042,4.69866167 L26.7469502,0.739519429 C27.1617175,0.475576613 27.6896031,0.475576613 28.1043704,0.701813313 C28.5191377,0.928050012 28.7830805,1.38052341 28.7830805,1.87070293 L28.7830805,10.5054036 L30.6683863,11.3726443 C31.3093903,11.6742932 31.7618637,12.3530033 31.7618637,13.0694196 L31.7618637,14.0120725 C31.7618637,14.0497786 31.7618637,14.0874847 31.7618637,14.1251908 C31.6864515,14.7661948 31.2716842,15.3317866 30.6683863,15.6334355 L28.7830805,16.5006762 L28.7830805,25.3616136 C28.7830805,25.8517931 28.5191377,26.3042665 28.1043704,26.5305032 C27.6896031,26.7567399 27.1617175,26.7567399 26.7469502,26.4927971 L20.2992042,22.4582426 C19.3942574,21.8926508 18.4138984,21.5532958 17.3581272,21.4024713 L13.8891644,20.9122918 L13.9268705,21.289353 C14.0022828,21.8549447 13.8137522,22.3828304 13.436691,22.7975976 C13.0596299,23.2123649 12.5317442,23.4386016 12.0038586,23.4386016 L11.3251485,23.4386016 L11.8907402,27.8879234 C11.9284464,28.2649845 11.815328,28.6420457 11.5513852,28.9436946 C11.2874424,29.2830497 10.9103812,29.4338742 10.53332,29.4338742 Z M5.78234935,19.8188144 L8.27095305,28.1518662 C8.30865917,28.2272784 8.3840714,28.3026907 8.45948363,28.3026907 L10.4956139,28.3026907 C10.5710262,28.3026907 10.6464384,28.2649845 10.6464384,28.2272784 C10.6464384,28.1895723 10.7218506,28.1518662 10.6841445,28.076454 L10.0431405,22.9861282 C10.0431405,22.9861282 10.0431405,22.9861282 10.0431405,22.9484221 L9.70378548,20.3467001 L5.78234935,19.8188144 Z M13.2858666,19.7056961 L17.4712455,20.2712878 C18.6778412,20.4221123 19.8090247,20.8368796 20.864796,21.4778836 L27.3125419,25.4370258 C27.4256603,25.512438 27.5010725,25.4747319 27.5387786,25.4370258 C27.5764847,25.3993197 27.651897,25.3616136 27.651897,25.2484952 L27.651897,16.0859089 C27.651897,16.0859089 27.651897,16.0859089 27.651897,16.0482028 L27.651897,10.8824648 C27.651897,10.8824648 27.651897,10.8824648 27.651897,10.8447587 L27.651897,1.87070293 C27.651897,1.75758458 27.5764847,1.71987846 27.5387786,1.68217234 C27.5010725,1.64446623 27.4256603,1.64446623 27.3125419,1.68217234 L25.2764116,2.96418031 L25.2764116,17.3302107 C25.2764116,17.6318597 25.0124688,17.8958025 24.7108199,17.8958025 C24.409171,17.8958025 24.1452281,17.6318597 24.1452281,17.3302107 L24.1452281,3.64289041 L20.864796,5.6790207 C19.8090247,6.32002469 18.6778412,6.73479197 17.4712455,6.88561644 L11.9661525,7.63973877 L11.9661525,19.5171655 L13.2858666,19.7056961 C13.2858666,19.7056961 13.2858666,19.7056961 13.2858666,19.7056961 Z M11.1366179,22.3451242 L11.9661525,22.3451242 C12.1923892,22.3451242 12.4186259,22.2320059 12.5694503,22.0811814 C12.7202748,21.8926508 12.795687,21.6664141 12.7579809,21.4401774 L12.6825687,20.7614673 L10.8726751,20.4975245 L11.1366179,22.3451242 Z M10.3447895,19.3286349 L10.834969,19.4040471 L10.834969,7.79056323 L4.27410469,8.69551003 C2.87897838,8.88404062 1.78550099,10.0906363 1.78550099,11.5234688 L1.78550099,15.6334355 C1.78550099,17.0662679 2.84127226,18.2728636 4.27410469,18.4613942 L5.06593314,18.5745126 C5.06593314,18.5745126 5.06593314,18.5745126 5.10363926,18.5745126 L10.3447895,19.3286349 C10.3070833,19.2909288 10.3070833,19.2909288 10.3447895,19.3286349 Z M28.7830805,13.8235419 L28.7830805,15.2186682 L30.2159129,14.5776642 C30.4798557,14.4645459 30.6306802,14.2006031 30.6306802,13.9366602 L30.6306802,13.1071257 C30.6306802,12.8431829 30.4798557,12.57924 30.2159129,12.4661217 L28.7830805,11.8251177 L28.7830805,13.8235419 Z M24.7108199,22.0811814 C24.409171,22.0811814 24.1452281,21.8172386 24.1452281,21.5155897 L24.1452281,19.4040471 C24.1452281,19.1023982 24.409171,18.8384554 24.7108199,18.8384554 C25.0124688,18.8384554 25.2764116,19.1023982 25.2764116,19.4040471 L25.2764116,21.5155897 C25.2764116,21.8172386 25.0501749,22.0811814 24.7108199,22.0811814 Z M14.718699,18.5368065 L13.4743971,18.5368065 C13.1727482,18.5368065 12.9088054,18.2728636 12.9088054,17.9712147 C12.9088054,17.6695658 13.1727482,17.405623 13.4743971,17.405623 L14.718699,17.405623 C15.0203479,17.405623 15.2842907,17.6695658 15.2842907,17.9712147 C15.2842907,18.2728636 15.058054,18.5368065 14.718699,18.5368065 Z M14.718699,15.7465538 L13.4743971,15.7465538 C13.1727482,15.7465538 12.9088054,15.482611 12.9088054,15.1809621 C12.9088054,14.8793132 13.2104543,14.6153703 13.5121033,14.6153703 L14.718699,14.6153703 C15.0203479,14.6153703 15.2842907,14.8793132 15.2842907,15.1809621 C15.2842907,15.482611 15.058054,15.7465538 14.718699,15.7465538 Z M14.718699,12.57924 L13.4743971,12.57924 C13.1727482,12.57924 12.9088054,12.3152972 12.9088054,12.0136483 C12.9088054,11.7119994 13.1727482,11.4480565 13.4743971,11.4480565 L14.718699,11.4480565 C15.0203479,11.4480565 15.2842907,11.7119994 15.2842907,12.0136483 C15.2842907,12.3152972 15.058054,12.57924 14.718699,12.57924 Z M14.718699,9.78898741 L13.4743971,9.78898741 C13.1727482,9.78898741 12.9088054,9.5250446 12.9088054,9.22339566 C12.9088054,8.92174673 13.1727482,8.65780392 13.4743971,8.65780392 L14.718699,8.65780392 C15.0203479,8.65780392 15.2842907,8.92174673 15.2842907,9.22339566 C15.2842907,9.5250446 15.058054,9.78898741 14.718699,9.78898741 Z" id="Shape"></path>
            </g>
        </g>
    </g>
</svg>