<?xml version="1.0" encoding="UTF-8"?>
<svg width="24px" height="24px" viewBox="0 0 24 24" version="1.1" xmlns="http://www.w3.org/2000/svg" xmlns:xlink="http://www.w3.org/1999/xlink">
    <title>Clone</title>
    <defs>
        <rect id="path-1" x="0" y="0" width="24" height="24" rx="4"></rect>
    </defs>
    <g id="📺-New-Project-Creation" stroke="none" stroke-width="1" fill="none" fill-rule="evenodd">
        <g id="Clone-Project-/-With-Workspace-Selection-" transform="translate(-269.000000, -160.000000)">
            <g id="Clone-Project" transform="translate(269.000000, 154.000000)">
                <g id="Clone" transform="translate(0.000000, 6.000000)">
                    <mask id="mask-2" fill="white">
                        <use xlink:href="#path-1"></use>
                    </mask>
                    <rect stroke="#57BFFF" stroke-width="2" x="1" y="1" width="22" height="22" rx="4"></rect>
                    <path d="M12.8523472,8.00063711 C12.6548755,8.00956631 12.4860744,8.15832414 12.4368192,8.36682588 L10.494541,16.1788676 C10.4516229,16.3479877 10.4949146,16.5291995 10.6080688,16.6540757 C10.7212229,16.778952 10.8869987,16.8284658 11.0427976,16.7839204 C11.1985965,16.7393749 11.3206801,16.6075573 11.3629485,16.4382432 L13.3052267,8.6262096 C13.34627,8.47434917 13.3171839,8.310238 13.2271952,8.18593458 C13.1372065,8.06163117 12.997483,7.9925621 12.8523472,8.00063711 L12.8523472,8.00063711 Z" id="Path" stroke="#57BFFF" fill="#57BFFF" fill-rule="nonzero" mask="url(#mask-2)"></path>
                    <path d="M8.29053789,8.81947589 C8.20491618,8.82990275 8.12386672,8.86698678 8.05709099,8.92628909 L4.47134666,12.0185563 C4.36316723,12.1111299 4.3,12.2526868 4.3,12.4025419 C4.3,12.5523969 4.36316723,12.6939538 4.47134666,12.7865274 L8.05709099,15.8787881 C8.18296851,15.9885686 8.35312821,16.016642 8.50320282,15.952389 C8.65327743,15.8881361 8.76035248,15.7413672 8.78392409,15.5676016 C8.8074957,15.393836 8.74396479,15.2196055 8.61736354,15.1108171 L5.47517578,12.4050889 L8.61736354,9.69426018 C8.78023871,9.56111214 8.8402589,9.32510136 8.76349637,9.11963814 C8.68673384,8.91417492 8.49247868,8.79089123 8.29053789,8.81947589 L8.29053789,8.81947589 Z" id="Path" stroke="#57BFFF" fill="#57BFFF" fill-rule="nonzero" mask="url(#mask-2)"></path>
                    <path d="M15.4067457,8.81947589 C15.2237881,8.84034229 15.0711057,8.98085397 15.0216581,9.17386719 C14.9722105,9.36688041 15.0360365,9.57320968 15.1826367,9.69426018 L18.3248239,12.4050889 L15.1826367,15.1108171 C15.0560355,15.2196055 14.9925045,15.393836 15.0160762,15.5676016 C15.0396478,15.7413672 15.1467228,15.8881361 15.2967974,15.952389 C15.446872,16.016642 15.6170317,15.9885686 15.7429093,15.8787881 L19.328653,12.7865274 C19.4368324,12.6939538 19.4999996,12.5523969 19.4999996,12.4025419 C19.4999996,12.2526868 19.4368324,12.1111299 19.328653,12.0185563 L15.7429093,8.92628909 C15.6487837,8.84250905 15.5274601,8.80395945 15.4067457,8.81947589 L15.4067457,8.81947589 Z" id="Path" stroke="#57BFFF" fill="#57BFFF" fill-rule="nonzero" mask="url(#mask-2)"></path>
                </g>
            </g>
        </g>
    </g>
</svg>