<?xml version="1.0" encoding="UTF-8"?>
<svg width="16px" height="16px" viewBox="0 0 16 16" version="1.1" xmlns="http://www.w3.org/2000/svg" xmlns:xlink="http://www.w3.org/1999/xlink">
    <title>Icon / Clone / V2</title>
    <defs>
        <rect id="path-1" x="0" y="0" width="16" height="16" rx="2"></rect>
    </defs>
    <g id="Icon-/-Clone-/-V2" stroke="none" stroke-width="1" fill="none" fill-rule="evenodd">
        <g id="Group-5">
            <mask id="mask-2" fill="white">
                <use xlink:href="#path-1"></use>
            </mask>
            <rect stroke="#B5B8D0" stroke-width="0.5" x="0.25" y="0.25" width="15.5" height="15.5" rx="2"></rect>
            <g id="Group-4" mask="url(#mask-2)" fill="#2D2E43" fill-rule="nonzero">
                <g transform="translate(2.857143, 5.142857)" id="Path">
                    <path d="M5.78730245,0.000413709375 C5.65367494,0.00621189169 5.53944868,0.102807885 5.50611808,0.238198625 L4.1917945,5.31095301 C4.16275218,5.42077124 4.19204731,5.53844123 4.26861779,5.61952971 C4.34518826,5.70061818 4.45736734,5.73277002 4.56279518,5.70384439 C4.66822302,5.67491876 4.75083599,5.58932294 4.77943868,5.47937871 L6.09376226,0.406629607 C6.12153588,0.308018945 6.10185362,0.201453247 6.04095899,0.120736743 C5.98006436,0.0400202386 5.88551466,-0.00482980704 5.78730245,0.000413709375 L5.78730245,0.000413709375 Z"></path>
                    <path d="M2.70036398,0.532127202 C2.64242448,0.538897892 2.58757899,0.562978429 2.5423924,0.60148642 L0.115948867,2.60945216 C0.0427447391,2.66956487 0,2.76148494 0,2.85879342 C0,2.95610191 0.0427447391,3.04802197 0.115948867,3.10813468 L2.5423924,5.1160962 C2.62757268,5.18738218 2.74271834,5.2056117 2.84427259,5.16388899 C2.94582683,5.12216627 3.01828364,5.02686184 3.03423435,4.91402704 C3.05018506,4.80119224 3.00719422,4.68805549 2.9215242,4.61741367 L0.795231734,2.86044735 L2.9215242,1.10016895 C3.03174048,1.01370918 3.07235564,0.860455428 3.02041108,0.727037752 C2.96846651,0.593620076 2.83701565,0.513565731 2.70036398,0.532127202 L2.70036398,0.532127202 Z"></path>
                    <path d="M7.51584321,0.532127202 C7.39203732,0.545676809 7.28871842,0.636918165 7.25525762,0.762251424 C7.22179682,0.887584682 7.26498733,1.02156473 7.36419049,1.10016895 L9.49048255,2.86044735 L7.36419049,4.61741367 C7.27852047,4.68805549 7.23552963,4.80119224 7.25148034,4.91402704 C7.26743105,5.02686184 7.33988786,5.12216627 7.4414421,5.16388899 C7.54299635,5.2056117 7.65814201,5.18738218 7.74332229,5.1160962 L10.1697654,3.10813468 C10.2429695,3.04802197 10.2857143,2.95610191 10.2857143,2.85879342 C10.2857143,2.76148494 10.2429695,2.66956487 10.1697654,2.60945216 L7.74332229,0.60148642 C7.67962833,0.547083796 7.59752962,0.522051593 7.51584321,0.532127202 L7.51584321,0.532127202 Z"></path>
                </g>
            </g>
        </g>
    </g>
</svg>