<svg width="16" height="16" viewBox="-2 -2 16 16" fill="none" xmlns="http://www.w3.org/2000/svg">
<path d="M11.1429 2.56632H9.58312L9.84533 0.996092C9.92317 0.529888 9.60761 0.0893471 9.14087 0.0115573C8.67131 -0.0652968 8.23229 0.24923 8.15435 0.714606L7.84554 2.56632H5.29821L5.56042 0.996092C5.63826 0.529888 5.3227 0.0893471 4.85596 0.0115573C4.3864 -0.0652968 3.94738 0.24923 3.86944 0.714606L3.55982 2.56632H1.71429C1.24098 2.56632 0.857143 2.94939 0.857143 3.42174C0.857143 3.91896 1.24098 4.27716 1.71429 4.27716H3.27402L2.70268 7.69884H0.857143C0.383839 7.69884 0 8.08191 0 8.55426C0 9.02661 0.383839 9.38562 0.857143 9.38562H2.41688L2.15467 10.9559C2.07683 11.4221 2.39239 11.8626 2.85913 11.9404C2.90625 11.9973 2.95446 12 3 12C3.41143 12 3.77464 11.7035 3.84455 11.2855L4.15366 9.43374H6.70152L6.43931 11.004C6.36147 11.4702 6.67704 11.9107 7.14378 11.9885C7.19196 11.9973 7.24018 12 7.28571 12C7.69714 12 8.06036 11.7035 8.13027 11.2855L8.43937 9.43374H10.2857C10.759 9.43374 11.1429 9.05067 11.1429 8.60238C11.1429 8.13003 10.759 7.74696 10.2857 7.74696H8.72598L9.29732 4.32528H11.1429C11.6162 4.32528 12 3.94248 12 3.49392C12 2.97265 11.617 2.56632 11.1429 2.56632ZM6.98839 7.69884H4.44107L5.01161 4.27716H7.55946L6.98839 7.69884Z" fill="#D5D7E4"/>
</svg>
