<svg width="40" height="40" viewBox="0 0 40 40" fill="none" xmlns="http://www.w3.org/2000/svg">
<g id="icon" filter="url(#filter0_d_6152_21383)">
<g id="Vector">
<path d="M30.5 10H8.83333C8.61233 10 8.40036 10.0878 8.24409 10.2441C8.08775 10.4003 8 10.6123 8 10.8333V29.1667C8 29.3877 8.08776 29.5996 8.24409 29.7559C8.40034 29.9123 8.61231 30 8.83333 30H30.5C30.721 30 30.933 29.9122 31.0892 29.7559C31.2456 29.5997 31.3333 29.3877 31.3333 29.1667V10.8333C31.3333 10.6123 31.2456 10.4004 31.0892 10.2441C30.933 10.0878 30.721 10 30.5 10ZM29.6667 11.6667V15H9.66667V11.6667H29.6667ZM9.66667 28.3333V16.6667H29.6667V28.3333H9.66667Z" fill="#B5B8D0"/>
<path d="M11.3333 14.1667C11.6311 14.1667 11.9062 14.0078 12.055 13.75C12.2039 13.4922 12.2039 13.1745 12.055 12.9167C11.9062 12.6588 11.6311 12.5 11.3333 12.5C11.0356 12.5 10.7605 12.6589 10.6116 12.9167C10.4628 13.1745 10.4628 13.4922 10.6116 13.75C10.7605 14.0078 11.0356 14.1667 11.3333 14.1667Z" fill="#B5B8D0"/>
<path d="M13.8333 14.1667C14.1311 14.1667 14.4062 14.0078 14.555 13.75C14.7039 13.4922 14.7039 13.1745 14.555 12.9167C14.4062 12.6588 14.1311 12.5 13.8333 12.5C13.5356 12.5 13.2605 12.6589 13.1116 12.9167C12.9628 13.1745 12.9628 13.4922 13.1116 13.75C13.2605 14.0078 13.5356 14.1667 13.8333 14.1667Z" fill="#B5B8D0"/>
<path d="M16.3333 14.1667C16.6311 14.1667 16.9062 14.0078 17.055 13.75C17.2039 13.4922 17.2039 13.1745 17.055 12.9167C16.9062 12.6588 16.6311 12.5 16.3333 12.5C16.0356 12.5 15.7605 12.6589 15.6116 12.9167C15.4628 13.1745 15.4628 13.4922 15.6116 13.75C15.7605 14.0078 16.0356 14.1667 16.3333 14.1667Z" fill="#B5B8D0"/>
<path d="M17 19.5C16.8674 19.3232 16.67 19.2063 16.4512 19.175C16.2324 19.1438 16.0102 19.2007 15.8333 19.3333L12.5 21.8333C12.2902 21.9907 12.1667 22.2377 12.1667 22.5C12.1667 22.7623 12.2902 23.0093 12.5 23.1667L15.8333 25.6667C16.0715 25.8453 16.3869 25.8833 16.6607 25.7663C16.9344 25.6494 17.1251 25.3952 17.1607 25.0997C17.1963 24.8041 17.0715 24.512 16.8333 24.3333L14.3916 22.5L16.8333 20.6667C17.0102 20.534 17.127 20.3366 17.1583 20.1179C17.1896 19.8991 17.1326 19.6768 17 19.5Z" fill="#B5B8D0"/>
<path d="M20.6667 17.5C20.4452 17.451 20.2134 17.4945 20.0246 17.6203C19.8359 17.7462 19.7067 17.9434 19.6667 18.1667L18 26.5C17.951 26.7214 17.9945 26.9533 18.1203 27.142C18.2462 27.3307 18.4434 27.46 18.6667 27.5C18.8881 27.549 19.12 27.5055 19.3087 27.3797C19.4974 27.2538 19.6267 27.0566 19.6667 26.8333L21.3333 18.5C21.3823 18.2786 21.3388 18.0467 21.213 17.858C21.0872 17.6693 20.8899 17.54 20.6667 17.5Z" fill="#B5B8D0"/>
<path d="M23.5 19.3333C23.2618 19.1547 22.9464 19.1167 22.6727 19.2337C22.3989 19.3506 22.2083 19.6048 22.1727 19.9003C22.1371 20.1959 22.2618 20.488 22.5 20.6667L24.9418 22.5L22.5 24.3333C22.2618 24.512 22.1371 24.8041 22.1727 25.0996C22.2083 25.3952 22.3989 25.6494 22.6727 25.7663C22.9464 25.8833 23.2618 25.8453 23.5 25.6666L26.8333 23.1666C27.0431 23.0093 27.1667 22.7623 27.1667 22.5C27.1667 22.2376 27.0431 21.9907 26.8333 21.8333L23.5 19.3333Z" fill="#B5B8D0"/>
</g>
</g>
<defs>
<filter id="filter0_d_6152_21383" x="-4" y="-4" width="50" height="50" filterUnits="userSpaceOnUse" color-interpolation-filters="sRGB">
<feFlood flood-opacity="0" result="BackgroundImageFix"/>
<feColorMatrix in="SourceAlpha" type="matrix" values="0 0 0 0 0 0 0 0 0 0 0 0 0 0 0 0 0 0 127 0" result="hardAlpha"/>
<feOffset dx="1" dy="1"/>
<feGaussianBlur stdDeviation="2.5"/>
<feComposite in2="hardAlpha" operator="out"/>
<feColorMatrix type="matrix" values="0 0 0 0 0.863281 0 0 0 0 0.870955 0 0 0 0 0.920833 0 0 0 0.51 0"/>
<feBlend mode="normal" in2="BackgroundImageFix" result="effect1_dropShadow_6152_21383"/>
<feBlend mode="normal" in="SourceGraphic" in2="effect1_dropShadow_6152_21383" result="shape"/>
</filter>
</defs>
</svg>
