<svg width="40" height="40" viewBox="0 0 40 40" fill="none" xmlns="http://www.w3.org/2000/svg">
<g id="urls" filter="url(#filter0_d_5462_8027)">
<path id="Vector" d="M20 7C13.3811 7 8 12.3811 8 19C8 25.6189 13.3811 31 20 31C26.6189 31 32 25.6189 32 19C32 12.3811 26.6189 7 20 7ZM22.5768 13.24C21.7432 13.3916 20.8842 13.4674 20 13.4674C19.1158 13.4674 18.2568 13.3916 17.4232 13.24C18.08 10.2589 19.1663 8.49053 20 8.49053C20.8337 8.49053 21.92 10.2589 22.5768 13.24ZM22.5516 8.81895C24.3705 9.27368 26.0126 10.2084 27.3263 11.4968C26.3663 12.1032 25.2547 12.5832 24.0421 12.9116C23.6884 11.2947 23.1832 9.88 22.5516 8.81895ZM16.8674 18.2421C16.8926 16.9537 16.9937 15.7663 17.1705 14.7053C18.1053 14.8568 19.04 14.9579 20.0253 14.9579C20.9853 14.9579 21.9453 14.8568 22.88 14.7053C23.0316 15.7663 23.1326 16.9537 23.1832 18.2421H16.8674ZM23.1326 19.7579C23.1074 21.0463 23.0063 22.2337 22.8547 23.2947C21.92 23.1432 20.9853 23.0421 20 23.0421C19.04 23.0421 18.08 23.1432 17.1453 23.2947C16.9937 22.2337 16.8926 21.0463 16.8674 19.7579H23.1326ZM15.9579 12.9116C14.7453 12.5832 13.6337 12.1032 12.6737 11.4968C13.9874 10.2084 15.6295 9.29895 17.4484 8.81895C16.8168 9.88 16.3116 11.2947 15.9579 12.9116ZM15.7053 14.4021C15.5032 15.64 15.4021 16.9537 15.3768 18.2674H9.56632C9.71789 16.1705 10.5011 14.2253 11.7137 12.6337C12.8253 13.3916 14.2147 13.9979 15.7053 14.4021ZM15.3516 19.7579C15.3768 21.0716 15.5032 22.36 15.68 23.6232C14.1895 24.0274 12.8253 24.6084 11.6632 25.3916C10.4505 23.8 9.69263 21.8547 9.54105 19.7579H15.3516ZM15.9579 25.0884C16.3116 26.7053 16.8168 28.1453 17.4484 29.1811C15.6295 28.7263 13.9874 27.7916 12.6737 26.5032C13.6337 25.8968 14.7453 25.4168 15.9579 25.0884ZM17.4232 24.76C18.2568 24.6084 19.1158 24.5326 20 24.5326C20.8842 24.5326 21.7432 24.6084 22.5768 24.76C21.92 27.7411 20.8337 29.5095 20 29.5095C19.1663 29.5095 18.08 27.7411 17.4232 24.76ZM24.0421 25.0884C25.2547 25.4168 26.3663 25.8968 27.3263 26.5284C26.0126 27.8168 24.3705 28.7263 22.5516 29.2063C23.1832 28.12 23.6884 26.7053 24.0421 25.0884ZM24.2947 23.5979C24.4968 22.36 24.5979 21.0463 24.6232 19.7326H30.4337C30.2821 21.8295 29.4989 23.7747 28.2863 25.3663C27.1495 24.6084 25.7853 24.0021 24.2947 23.5979ZM24.6484 18.2421C24.6232 16.9284 24.4968 15.64 24.32 14.3768C25.8105 13.9726 27.1747 13.3916 28.3368 12.6084C29.5495 14.2 30.3326 16.12 30.4842 18.2421H24.6484Z" fill="#B5B8D0"/>
</g>
<defs>
<filter id="filter0_d_5462_8027" x="-4" y="-4" width="50" height="50" filterUnits="userSpaceOnUse" color-interpolation-filters="sRGB">
<feFlood flood-opacity="0" result="BackgroundImageFix"/>
<feColorMatrix in="SourceAlpha" type="matrix" values="0 0 0 0 0 0 0 0 0 0 0 0 0 0 0 0 0 0 127 0" result="hardAlpha"/>
<feOffset dx="1" dy="1"/>
<feGaussianBlur stdDeviation="2.5"/>
<feComposite in2="hardAlpha" operator="out"/>
<feColorMatrix type="matrix" values="0 0 0 0 0.863281 0 0 0 0 0.870955 0 0 0 0 0.920833 0 0 0 0.51 0"/>
<feBlend mode="normal" in2="BackgroundImageFix" result="effect1_dropShadow_5462_8027"/>
<feBlend mode="normal" in="SourceGraphic" in2="effect1_dropShadow_5462_8027" result="shape"/>
</filter>
</defs>
</svg>
