<svg width="33" height="32" viewBox="0 0 33 32" fill="none" xmlns="http://www.w3.org/2000/svg">
<path d="M2.09869 9.60785C2.52275 9.60776 2.9294 9.43934 3.22921 9.13963L9.62535 2.74748C9.91663 2.44609 10.0778 2.04242 10.0742 1.62342C10.0705 1.20442 9.90234 0.803617 9.60587 0.507328C9.3094 0.211039 8.90834 0.0429752 8.48908 0.0393342C8.06982 0.0356932 7.6659 0.196766 7.36431 0.487861L0.968176 6.88001C0.744616 7.1035 0.592378 7.38821 0.530707 7.69815C0.469036 8.00809 0.500702 8.32935 0.621701 8.62131C0.7427 8.91328 0.947599 9.16283 1.2105 9.33843C1.47339 9.51403 1.78248 9.60779 2.09869 9.60785Z" fill="#D5D7E4"/>
<path d="M28.9513 22.0614L22.5551 28.4535C22.4024 28.6009 22.2806 28.7772 22.1968 28.9722C22.113 29.1672 22.0689 29.3769 22.067 29.5891C22.0652 29.8012 22.1056 30.0117 22.1861 30.2081C22.2665 30.4045 22.3852 30.5829 22.5353 30.7329C22.6855 30.883 22.864 31.0016 23.0605 31.082C23.257 31.1623 23.4676 31.2028 23.6799 31.2009C23.8922 31.1991 24.102 31.155 24.2971 31.0712C24.4922 30.9875 24.6687 30.8657 24.8162 30.7131L31.2123 24.321C31.5036 24.0196 31.6648 23.6159 31.6611 23.1969C31.6575 22.7779 31.4893 22.3771 31.1928 22.0808C30.8964 21.7845 30.4953 21.6165 30.076 21.6128C29.6568 21.6092 29.2529 21.7703 28.9513 22.0614Z" fill="#D5D7E4"/>
<path d="M32.0118 11.6741C31.712 11.3745 31.3053 11.2062 30.8813 11.2062C30.4573 11.2062 30.0507 11.3745 29.7508 11.6741L12.1614 29.2525C12.0087 29.3999 11.8869 29.5763 11.8031 29.7712C11.7193 29.9662 11.6752 30.1759 11.6733 30.3881C11.6715 30.6003 11.7119 30.8107 11.7923 31.0071C11.8727 31.2035 11.9915 31.3819 12.1416 31.5319C12.2917 31.682 12.4703 31.8007 12.6668 31.881C12.8633 31.9614 13.0739 32.0018 13.2862 31.9999C13.4985 31.9981 13.7083 31.954 13.9034 31.8703C14.0985 31.7865 14.2749 31.6648 14.4225 31.5121L32.0118 13.9337C32.3116 13.6341 32.48 13.2277 32.48 12.8039C32.48 12.3802 32.3116 11.9738 32.0118 11.6741Z" fill="#D5D7E4"/>
<path d="M2.09869 20.7941C2.52275 20.794 2.9294 20.6256 3.22921 20.3259L20.8186 2.74748C20.9713 2.60007 21.0931 2.42374 21.1769 2.22877C21.2607 2.0338 21.3049 1.82411 21.3067 1.61192C21.3085 1.39974 21.2681 1.18931 21.1877 0.992914C21.1073 0.796522 20.9885 0.618098 20.8384 0.468054C20.6883 0.31801 20.5097 0.199351 20.3132 0.119C20.1167 0.0386496 19.9061 -0.0017835 19.6938 6.03366e-05C19.4815 0.00190418 19.2717 0.0459881 19.0766 0.12974C18.8815 0.213491 18.7051 0.335233 18.5576 0.487862L0.968176 18.0663C0.744616 18.2897 0.592378 18.5745 0.530707 18.8844C0.469036 19.1943 0.500702 19.5156 0.621701 19.8076C0.7427 20.0995 0.947599 20.3491 1.2105 20.5247C1.47339 20.7003 1.78248 20.794 2.09869 20.7941Z" fill="#D5D7E4"/>
<path d="M2.09869 31.9804C2.52275 31.9803 2.9294 31.8119 3.22921 31.5121L32.0118 2.74748C32.1646 2.60007 32.2864 2.42374 32.3702 2.22877C32.454 2.0338 32.4981 1.82411 32.4999 1.61192C32.5018 1.39974 32.4613 1.18931 32.3809 0.992914C32.3005 0.796522 32.1818 0.618098 32.0317 0.468054C31.8815 0.31801 31.703 0.199351 31.5065 0.119C31.3099 0.0386496 31.0994 -0.0017835 30.8871 6.03366e-05C30.6748 0.00190418 30.4649 0.0459881 30.2698 0.12974C30.0747 0.213491 29.8983 0.335233 29.7508 0.487862L0.968176 29.2525C0.744616 29.476 0.592378 29.7607 0.530707 30.0707C0.469036 30.3806 0.500702 30.7019 0.621701 30.9938C0.7427 31.2858 0.947599 31.5353 1.2105 31.7109C1.47339 31.8865 1.78248 31.9803 2.09869 31.9804Z" fill="#D5D7E4"/>
</svg>
