<?xml version="1.0" encoding="UTF-8"?>
<svg width="16" height="16" viewBox="-2 -2 16 16" fill="none" xmlns="http://www.w3.org/2000/svg">
    <path d="M10.5 8.50575L6.75 10.113V5.74425L10.5 4.137V8.50575ZM6 4.434L2.65425 3L6 1.566L9.34575 3L6 4.434ZM5.25 10.113L1.5 8.50575V4.137L5.25 5.74425V10.113ZM11.9475 2.739C11.9377 2.7135 11.9258 2.69175 11.9145 2.6685C11.886 2.61075 11.8508 2.559 11.808 2.511C11.7915 2.4915 11.7765 2.472 11.7585 2.45475C11.6963 2.39625 11.6265 2.346 11.5455 2.31075L11.544 2.31C11.5433 2.31 11.5418 2.30925 11.5403 2.3085L6.2955 0.0607501C6.108 -0.02025 5.892 -0.02025 5.7045 0.0607501L0.459749 2.3085C0.458249 2.30925 0.456749 2.31 0.456 2.31L0.4545 2.31075C0.3735 2.346 0.303749 2.39625 0.2415 2.45475C0.2235 2.472 0.2085 2.4915 0.192 2.511C0.149249 2.559 0.114 2.61075 0.0855 2.6685C0.0742493 2.69175 0.0622507 2.7135 0.0525 2.739C0.0217507 2.8215 0 2.9085 0 3V9C0 9.30075 0.1785 9.5715 0.4545 9.68925L5.7045 11.9393H5.70525C5.796 11.9783 5.895 12 6 12C6.105 12 6.204 11.9783 6.29475 11.9393H6.2955L11.5455 9.68925C11.8215 9.5715 12 9.30075 12 9V3C12 2.9085 11.9783 2.8215 11.9475 2.739Z" fill="#D5D7E4"/>
</svg>
