<?xml version="1.0" encoding="UTF-8"?>
<svg width="16" height="16" viewBox="-2 -2.5 16 16" fill="none" xmlns="http://www.w3.org/2000/svg">
<path fill-rule="evenodd" clip-rule="evenodd" d="M12 9.375V2.625C12 2.00391 11.4961 1.5 10.875 1.5H6.375L4.875 0H1.125C0.503906 0 0 0.503906 0 1.125V9.375C0 9.99609 0.503906 10.5 1.125 10.5H10.875C11.4961 10.5 12 9.99609 12 9.375ZM11 8.75069V3.25069C11 2.83663 10.6641 2.50069 10.25 2.50069H6L4.5 1H1.75C1.33594 1 1 1.33594 1 1.75V8.75069C1 9.16476 1.33594 9.50069 1.75 9.50069H10.25C10.6641 9.50069 11 9.16476 11 8.75069Z" fill="#D5D7E4"/>
</svg>
