<?xml version="1.0" encoding="UTF-8"?>
<svg width="16" height="16" viewBox="-3 -2 16 16" fill="none" xmlns="http://www.w3.org/2000/svg">
  <path d="M10 11C10 11.5523 9.55228 12 9 12H1C0.447716 12 0 11.5523 0 11V1C0 0.447715 0.447715 0 1 0H9C9.55228 0 10 0.447715 10 1V11ZM1 1V11H9V1H1Z" fill="#D5D7E4"/>
  <path d="M5.7 4H6.5C6.77614 4 7 3.77614 7 3.5C7 3.22386 6.77614 3 6.5 3H5.5C4.94772 3 4.5 3.44772 4.5 4V5H4C3.72386 5 3.5 5.22386 3.5 5.5C3.5 5.77614 3.72386 6 4 6H4.5V7.83333C4.5 7.92538 4.42538 8 4.33333 8H4C3.72386 8 3.5 8.22386 3.5 8.5C3.5 8.77614 3.72386 9 4 9H4.5C5.05228 9 5.5 8.55228 5.5 8V6H6.5C6.77614 6 7 5.77614 7 5.5C7 5.22386 6.77614 5 6.5 5H5.5V4.2C5.5 4.08954 5.58954 4 5.7 4Z" fill="#D5D7E4"/>
</svg>
