<svg width="41" height="41" viewBox="0 0 41 41" fill="none" xmlns="http://www.w3.org/2000/svg">
<path d="M17.7 29.93L31.8 15.4775L29 12.6075L17.7 24.19L12 18.3475L9.2 21.2175L17.7 29.93ZM20.5 41C17.7333 41 15.1333 40.4619 12.7 39.3856C10.2667 38.3094 8.15 36.8488 6.35 35.0037C4.55 33.1587 3.125 30.9892 2.075 28.495C1.025 26.0008 0.5 23.3358 0.5 20.5C0.5 17.6642 1.025 14.9992 2.075 12.505C3.125 10.0108 4.55 7.84125 6.35 5.99625C8.15 4.15125 10.2667 2.69062 12.7 1.61437C15.1333 0.538125 17.7333 0 20.5 0C23.2667 0 25.8667 0.538125 28.3 1.61437C30.7333 2.69062 32.85 4.15125 34.65 5.99625C36.45 7.84125 37.875 10.0108 38.925 12.505C39.975 14.9992 40.5 17.6642 40.5 20.5C40.5 23.3358 39.975 26.0008 38.925 28.495C37.875 30.9892 36.45 33.1587 34.65 35.0037C32.85 36.8488 30.7333 38.3094 28.3 39.3856C25.8667 40.4619 23.2667 41 20.5 41Z" fill="#00C371"/>
</svg>
