<?xml version="1.0" encoding="UTF-8"?>
<svg width="23px" height="21px" viewBox="0 0 23 21" version="1.1" xmlns="http://www.w3.org/2000/svg" xmlns:xlink="http://www.w3.org/1999/xlink">
    <title>noun_hidden_2695491</title>
    <g id="Page-1" stroke="none" stroke-width="1" fill="none" fill-rule="evenodd">
        <g id="MODAL---Publish-(try-it-out-OFF,-cloneable-OFF)" transform="translate(-743.000000, -451.000000)" fill="#B5B8D0" fill-rule="nonzero">
            <g id="Group" transform="translate(743.000000, 451.000000)">
                <path d="M1.5,21 C1.30810545,21 1.1162109,20.9267578 0.969726523,20.7802734 C0.676757774,20.4873047 0.676757774,20.0126953 0.969726523,19.7197265 L20.4697265,0.219726562 C20.7626952,-0.0732421874 21.2373046,-0.0732421874 21.5302734,0.219726562 C21.8232421,0.512695312 21.8232421,0.987304686 21.5302734,1.28027344 L2.0302734,20.7802734 C1.8837891,20.9267579 1.69189455,21 1.5,21 Z" id="Path"></path>
                <path d="M19.2191162,5.5308838 L15.555954,9.1941376 C15.6811981,9.60758972 15.75,10.0456696 15.75,10.5 C15.75,12.9852905 13.7352905,15 11.25,15 C10.7957153,15 10.3576813,14.9312439 9.94422913,14.8059998 L6.88948064,17.8608398 C8.24382021,18.4352875 9.71374513,18.75 11.25,18.75 C16.2994537,18.75 20.6323242,15.3502808 22.5,10.5 C21.7584686,8.5743256 20.6283874,6.8772583 19.2191162,5.5308838 Z" id="Path"></path>
                <path d="M8.06803896,13.681961 C7.25367734,12.8676453 6.74999999,11.7426453 6.74999999,10.5 C6.74999999,8.0147095 8.76470946,6.00000003 11.25,6.00000003 C12.4926453,6.00000003 13.6176453,6.50367738 14.4320068,7.31799317 L17.5563354,4.19361881 C15.7150726,2.95985418 13.5573578,2.25000003 11.25,2.25000003 C6.20054624,2.25000003 1.8676758,5.64971928 0,10.5 C1.014267,13.1339722 2.7555084,15.3401642 4.94375609,16.8063812 L14.4032135,7.3467865 L8.06803896,13.681961 Z" id="Path"></path>
            </g>
        </g>
    </g>
</svg>