<?xml version="1.0" encoding="UTF-8"?>
<svg width="16" height="16" viewBox="-2 -3 16 16" fill="none" xmlns="http://www.w3.org/2000/svg">
    <path d="M6 3C6.82852 3 7.5 2.32852 7.5 1.5C7.5 0.671484 6.82852 0 6 0C5.17148 0 4.5 0.671484 4.5 1.5C4.5 2.32852 5.17148 3 6 3Z" fill="#D5D7E4"/>
    <path d="M7 3.19922H6.81362C6.56585 3.33583 6.29018 3.4135 6 3.4135C5.70982 3.4135 5.43527 3.33583 5.18638 3.19922H5C4.17188 3.19922 3.5 4.00547 3.5 4.99922V6.5H8.5V4.99922C8.5 4.00547 7.82812 3.19922 7 3.19922Z" fill="#D5D7E4"/>
    <path d="M0 10V9H12V10H0Z" fill="#D5D7E4"/>
    <path d="M11.0488 3.98584L11.9624 4.39258L9.52194 9.87385L8.6084 9.46711L11.0488 3.98584Z" fill="#D5D7E4"/>
    <path d="M0.044026 4.39222L0.957572 3.98548L3.39799 9.46676L2.48445 9.87349L0.044026 4.39222Z" fill="#D5D7E4"/>
</svg>
