<svg width="16" height="16" viewBox="-2 -4 16 16" fill="none" xmlns="http://www.w3.org/2000/svg">
  <path d="M11.906 4.38598C11.921 4.35998 11.9382 4.33198 11.9511 4.30398C11.9605 4.28336 11.9677 4.26193 11.9726 4.23999C11.9835 4.21196 11.9921 4.18321 11.9984 4.15399C12.0005 4.13003 12.0005 4.10595 11.9984 4.082C11.9984 4.054 11.9984 4.028 11.9984 4C11.9984 3.972 11.9984 3.946 11.9984 3.918C12.0005 3.89405 12.0005 3.86997 11.9984 3.84601C11.9921 3.81593 11.9827 3.78646 11.9705 3.75801C11.9705 3.73801 11.9597 3.71602 11.9511 3.69602C11.9368 3.66568 11.9203 3.63629 11.9017 3.60802C11.893 3.59007 11.8829 3.5727 11.8716 3.55603C11.8505 3.52802 11.8276 3.5013 11.8028 3.47603C11.7878 3.46003 11.777 3.44403 11.762 3.43003L8.34692 0.238212C8.18447 0.0862518 7.9638 0.000565365 7.73346 2.78768e-06C7.50311 -0.00055979 7.28196 0.0840477 7.11866 0.235213C6.95535 0.386377 6.86327 0.591717 6.86266 0.806059C6.86206 1.0204 6.95298 1.22619 7.11543 1.37815L9.92229 4L7.11543 6.62185C7.035 6.6971 6.97127 6.78634 6.9279 6.8845C6.88453 6.98266 6.86236 7.08781 6.86266 7.19394C6.86327 7.40828 6.95535 7.61362 7.11866 7.76479C7.28196 7.91595 7.50311 8.00056 7.73346 8C7.9638 7.99943 8.18447 7.91375 8.34692 7.76179L11.762 4.56197C11.7797 4.5443 11.7963 4.5256 11.8114 4.50597C11.8333 4.48404 11.8534 4.46064 11.8716 4.43598C11.8845 4.42598 11.8931 4.39998 11.906 4.38598Z" fill="#D5D7E4"/>
  <path d="M0.0940008 4.38598C0.0789564 4.35998 0.0617628 4.33198 0.0488676 4.30398C0.0394551 4.28336 0.0322561 4.26193 0.0273756 4.23999C0.0164955 4.21196 0.00787487 4.18321 0.00158525 4.15399C-0.000528417 4.13003 -0.000528417 4.10595 0.00158525 4.082C0.00158525 4.054 0.00158525 4.028 0.00158525 4C0.00158525 3.972 0.00158525 3.946 0.00158525 3.918C-0.000528417 3.89405 -0.000528417 3.86997 0.00158525 3.84601C0.00790763 3.81593 0.0172622 3.78646 0.0295248 3.75801C0.0295248 3.73801 0.0402708 3.71602 0.0488676 3.69602C0.0628332 3.66295 0.0793536 3.63087 0.0982992 3.60002C0.107036 3.58207 0.11709 3.5647 0.128388 3.54803C0.149452 3.52002 0.172424 3.4933 0.197162 3.46803C0.212207 3.45203 0.222953 3.43603 0.237997 3.42203L3.65307 0.238212C3.73351 0.162969 3.82909 0.103205 3.93435 0.0623334C4.03961 0.0214613 4.15249 0.000281344 4.26654 2.78396e-06C4.3806 -0.000275776 4.49359 0.0203526 4.59908 0.06071C4.70457 0.101067 4.80048 0.160363 4.88134 0.235213C4.9622 0.310062 5.02643 0.398998 5.07035 0.496944C5.11428 0.59489 5.13704 0.699928 5.13734 0.806059C5.13764 0.91219 5.11547 1.01734 5.0721 1.1155C5.02873 1.21366 4.965 1.3029 4.88457 1.37815L2.07771 4L4.88457 6.62185C5.04702 6.77381 5.13794 6.9796 5.13734 7.19394C5.13673 7.40828 5.04465 7.61362 4.88134 7.76479C4.71804 7.91595 4.49689 8.00056 4.26654 8C4.0362 7.99943 3.81553 7.91375 3.65307 7.76179L0.237997 4.56197C0.223465 4.54667 0.209833 4.53064 0.197162 4.51397C0.175297 4.49203 0.155184 4.46864 0.136985 4.44397C0.115493 4.42598 0.106896 4.39998 0.0940008 4.38598Z" fill="#D5D7E4"/>
</svg>
