<?xml version="1.0" encoding="UTF-8"?>
<svg width="16" height="16" viewBox="-2 -3 16 16" fill="none" xmlns="http://www.w3.org/2000/svg">
  <path d="M6.00012 3.48012C6.00012 2.88451 6.48468 2.40005 7.08019 2.40005C7.6758 2.40005 8.16017 2.88451 8.16017 3.48012C8.16017 4.07563 7.67552 4.56009 7.08019 4.56009C6.48468 4.56009 6.00012 4.07563 6.00012 3.48012Z" fill="#D5D7E4"/>
  <path fill-rule="evenodd" clip-rule="evenodd" d="M10.9995 0C11.5518 0 11.9995 0.44775 11.9995 1.00006L11.999 9.00006C11.999 9.55232 11.5513 10 10.999 10L1 10C0.447715 10 0 9.55228 0 9V1C0 0.447715 0.447716 0 1 0H10.9995ZM9.00069 6.00012L11 7.29093V1H1V7.27473L3.60058 4.8001L7.20065 7.29093L9.00069 6.00012Z" fill="#D5D7E4"/>
</svg>
