<?xml version="1.0" encoding="UTF-8"?>
<svg width="24px" height="24px" viewBox="0 0 20 20" version="1.1" xmlns="http://www.w3.org/2000/svg" xmlns:xlink="http://www.w3.org/1999/xlink">
    <title>noun-create-3554459</title>
    <g id="📺-Import-Module-Heading" stroke="none" stroke-width="1" fill="none" fill-rule="evenodd">
        <g id="Import-Module-/-With-Workspace-Selection-/-8th-Wall-Hosted" transform="translate(-270.000000, -160.000000)" fill="#AD50FF" fill-rule="nonzero">
            <g id="Import-Module" transform="translate(270.000000, 154.000000)">
                <g id="noun-create-3554459" transform="translate(0.000000, 6.000000)">
                    <path d="M 5.8063 10.1935 C 5.6372 10.0244 5.3908 9.9583 5.1597 10.0202 C 4.9288 10.0821 4.7483 10.2626 4.6864 10.4936 C 4.6245 10.7246 4.6906 10.9711 4.8597 11.1402 L 9.9996 16.2735 L 15.1395 11.1402 C 15.3086 10.9711 15.3746 10.7246 15.3127 10.4936 C 15.2509 10.2626 15.0704 10.0821 14.8394 10.0202 C 14.6084 9.9583 14.3619 10.0244 14.1928 10.1935 L 10.6661 13.7268 V 0.0002 H 9.3327 V 13.7268 L 5.8063 10.1935 Z M17.9467 0H12V2.05333H17.292C17.483 2.05333 17.6661 2.12917 17.8011 2.26423C17.9362 2.39923 18.012 2.58236 18.012 2.77333V17.28C18.012 17.471 17.9362 17.6541 17.8011 17.7891C17.6661 17.9242 17.483 18 17.292 18H2.72C2.52903 18 2.3459 17.9242 2.2109 17.7891C2.07583 17.6541 2 17.471 2 17.28V2.77333C2 2.58236 2.07583 2.39924 2.2109 2.26423C2.3459 2.12916 2.52903 2.05333 2.72 2.05333H8V0H2.05333C1.50875 0 0.986453 0.21632 0.601387 0.601387C0.21632 0.986453 0 1.50875 0 2.05333V17.9467C0 18.4913 0.21632 19.0135 0.601387 19.3986C0.986453 19.7837 1.50875 20 2.05333 20H17.9467C18.4913 20 19.0135 19.7837 19.3986 19.3986C19.7837 19.0135 20 18.4913 20 17.9467V2.05333C20 1.50875 19.7837 0.986453 19.3986 0.601387C19.0135 0.21632 18.4913 0 17.9467 0Z" id="Path" fill="#57bfff54"></path>
                </g>
            </g>
        </g>
    </g>
</svg>