<svg width="24" height="25" viewBox="0 0 24 25" fill="none" xmlns="http://www.w3.org/2000/svg">
<path d="M11.2226 16.3814H12.7756V11.7226H11.2226V16.3814ZM11.9991 10.1697C12.2191 10.1697 12.4035 10.0953 12.5523 9.94643C12.7011 9.79761 12.7756 9.6132 12.7756 9.3932C12.7756 9.1732 12.7011 8.98879 12.5523 8.83996C12.4035 8.69114 12.2191 8.61673 11.9991 8.61673C11.7791 8.61673 11.5947 8.69114 11.4458 8.83996C11.297 8.98879 11.2226 9.1732 11.2226 9.3932C11.2226 9.6132 11.297 9.79761 11.4458 9.94643C11.5947 10.0953 11.7791 10.1697 11.9991 10.1697ZM11.9991 20.2638C10.925 20.2638 9.91555 20.06 8.97085 19.6523C8.02614 19.2447 7.20438 18.6914 6.50555 17.9926C5.80673 17.2938 5.25349 16.472 4.84585 15.5273C4.4382 14.5826 4.23438 13.5732 4.23438 12.4991C4.23438 11.425 4.4382 10.4156 4.84585 9.47085C5.25349 8.52614 5.80673 7.70438 6.50555 7.00555C7.20438 6.30673 8.02614 5.75349 8.97085 5.34585C9.91555 4.9382 10.925 4.73438 11.9991 4.73438C13.0732 4.73438 14.0826 4.9382 15.0273 5.34585C15.972 5.75349 16.7938 6.30673 17.4926 7.00555C18.1914 7.70438 18.7447 8.52614 19.1523 9.47085C19.56 10.4156 19.7638 11.425 19.7638 12.4991C19.7638 13.5732 19.56 14.5826 19.1523 15.5273C18.7447 16.472 18.1914 17.2938 17.4926 17.9926C16.7938 18.6914 15.972 19.2447 15.0273 19.6523C14.0826 20.06 13.0732 20.2638 11.9991 20.2638ZM11.9991 18.7108C13.7332 18.7108 15.202 18.1091 16.4056 16.9056C17.6091 15.702 18.2108 14.2332 18.2108 12.4991C18.2108 10.765 17.6091 9.29614 16.4056 8.09261C15.202 6.88908 13.7332 6.28732 11.9991 6.28732C10.265 6.28732 8.79614 6.88908 7.59261 8.09261C6.38908 9.29614 5.78732 10.765 5.78732 12.4991C5.78732 14.2332 6.38908 15.702 7.59261 16.9056C8.79614 18.1091 10.265 18.7108 11.9991 18.7108Z" fill="#8083A2"/>
</svg>
