<?xml version="1.0" encoding="UTF-8"?>
<svg width="36px" height="30px" viewBox="0 0 36 30" version="1.1" xmlns="http://www.w3.org/2000/svg" xmlns:xlink="http://www.w3.org/1999/xlink">
    <title>noun_website_117714</title>
    <g id="Page-1" stroke="none" stroke-width="1" fill="none" fill-rule="evenodd">
        <g id="Project-type" transform="translate(-979.000000, -417.000000)">
            <g id="noun_website_117714" transform="translate(979.000000, 417.000000)">
                <path d="M1.57894737,27.4342105 C1.57894737,27.8684211 1.93421053,28.2236842 2.36842105,28.2236842 L33.1578947,28.2236842 C33.5921053,28.2236842 33.9473684,27.8684211 33.9473684,27.4342105 L33.9473684,6.55263158 L1.57894737,6.55263158 L1.57894737,27.4342105 Z M14.25,9.35526316 L24,18.3947368 L19.6184211,18.2763158 L21.8289474,23.2894737 C22.1052632,23.9605263 21.7894737,24.7894737 21.1184211,25.0657895 C20.4473684,25.3421053 19.6578947,25.0263158 19.3421053,24.3552632 L17.1710526,19.3815789 L14.1710526,22.6578947 L14.25,9.35526316 Z" id="Shape"></path>
                <path d="M3.47368421,2.64473684 C3,2.64473684 2.64473684,3 2.64473684,3.47368421 C2.64473684,3.94736842 3.03947368,4.30263158 3.47368421,4.30263158 C3.94736842,4.30263158 4.30263158,3.94736842 4.30263158,3.47368421 C4.30263158,3 3.94736842,2.64473684 3.47368421,2.64473684 Z" id="Path" fill="#000000" fill-rule="nonzero"></path>
                <path d="M5.76315789,2.64473684 C5.28947368,2.64473684 4.93421053,3 4.93421053,3.47368421 C4.93421053,3.94736842 5.28947368,4.30263158 5.76315789,4.30263158 C6.23684211,4.30263158 6.59210526,3.94736842 6.59210526,3.47368421 C6.59210526,3 6.23684211,2.64473684 5.76315789,2.64473684 Z" id="Path" fill="#000000" fill-rule="nonzero"></path>
                <path d="M33.1578947,0.197368421 L2.36842105,0.197368421 C1.06578947,0.197368421 0,1.26315789 0,2.56578947 L0,27.4342105 C0,28.7368421 1.06578947,29.8026316 2.36842105,29.8026316 L33.1578947,29.8026316 C34.4605263,29.8026316 35.5263158,28.7368421 35.5263158,27.4342105 L35.5263158,2.56578947 C35.5263158,1.26315789 34.4605263,0.197368421 33.1578947,0.197368421 Z M33.9473684,27.4342105 C33.9473684,27.8684211 33.5921053,28.2236842 33.1578947,28.2236842 L2.36842105,28.2236842 C1.93421053,28.2236842 1.57894737,27.8684211 1.57894737,27.4342105 L1.57894737,6.55263158 L33.9473684,6.55263158 L33.9473684,27.4342105 Z M33.9473684,4.97368421 L1.57894737,4.97368421 L1.57894737,2.56578947 C1.57894737,2.13157895 1.93421053,1.77631579 2.36842105,1.77631579 L33.1578947,1.77631579 C33.5921053,1.77631579 33.9473684,2.13157895 33.9473684,2.56578947 L33.9473684,4.97368421 Z" id="Shape" fill="#2D2E43" fill-rule="nonzero"></path>
                <path d="M8.05263158,2.64473684 C7.57894737,2.64473684 7.22368421,3 7.22368421,3.47368421 C7.22368421,3.94736842 7.57894737,4.30263158 8.05263158,4.30263158 C8.52631579,4.30263158 8.88157895,3.94736842 8.88157895,3.47368421 C8.88157895,3 8.52631579,2.64473684 8.05263158,2.64473684 Z" id="Path" fill="#000000" fill-rule="nonzero"></path>
                <path d="M3.47368421,4.30263158 C3.03947368,4.30263158 2.64473684,3.94736842 2.64473684,3.47368421 C2.64473684,3 3,2.64473684 3.47368421,2.64473684 C3.94736842,2.64473684 4.30263158,3 4.30263158,3.47368421 C4.30263158,3.94736842 3.94736842,4.30263158 3.47368421,4.30263158 Z M5.76315789,4.30263158 C5.28947368,4.30263158 4.93421053,3.94736842 4.93421053,3.47368421 C4.93421053,3 5.28947368,2.64473684 5.76315789,2.64473684 C6.23684211,2.64473684 6.59210526,3 6.59210526,3.47368421 C6.59210526,3.94736842 6.23684211,4.30263158 5.76315789,4.30263158 Z M8.05263158,4.30263158 C7.57894737,4.30263158 7.22368421,3.94736842 7.22368421,3.47368421 C7.22368421,3 7.57894737,2.64473684 8.05263158,2.64473684 C8.52631579,2.64473684 8.88157895,3 8.88157895,3.47368421 C8.88157895,3.94736842 8.52631579,4.30263158 8.05263158,4.30263158 Z" id="Shape" fill="#000000" fill-rule="nonzero"></path>
                <g id="noun_Heart_682473" transform="translate(8.000000, 9.000000)" fill-rule="nonzero" stroke="#2D2E43">
                    <path d="M9.56198274,16.8799375 C9.5540377,16.8799375 9.54630173,16.8799375 9.53835669,16.8799375 C9.44803406,16.8799375 9.35666604,16.8528094 9.27721558,16.7963577 C9.02652849,16.6184305 3.10893312,12.3977296 0.928645364,8.8373038 C0.925718242,8.83249496 0.9230002,8.82768612 0.920073078,8.82287727 C0.433543579,8.01582791 0.176375,7.0891847 0.176375,6.14184256 C0.176375,3.27493561 2.50887311,0.9424375 5.37578006,0.9424375 C7.03566734,0.9424375 8.57700618,1.73108781 9.55006517,3.04097492 C10.5231242,1.73108781 12.0646721,0.9424375 13.7243503,0.9424375 C16.5912572,0.9424375 18.9237553,3.27493561 18.9237553,6.14184256 C18.9237553,7.0891847 18.6665868,8.01582791 18.1800573,8.82287727 C18.1773392,8.82768612 18.1746212,8.83249496 18.171485,8.8373038 C15.9914063,12.3977296 10.0738109,16.6184305 9.82291476,16.7963577 C9.74388247,16.8528094 9.65251445,16.8799375 9.56198274,16.8799375 Z" id="Path"></path>
                </g>
            </g>
        </g>
    </g>
</svg>