<svg width="16" height="16" viewBox="-2 -3 16 16" fill="none" xmlns="http://www.w3.org/2000/svg">
  <path d="M0.301228 8.85199C0.202942 8.78365 0.123868 8.6912 0.0715896 8.58351C0.0193117 8.47581 -0.00441504 8.35649 0.00268555 8.23699C-0.00588349 8.13625 0.00610471 8.03482 0.0379227 7.93886C0.0697407 7.84289 0.120725 7.75439 0.187782 7.67872C0.349704 7.54454 0.553679 7.47162 0.763969 7.47272L1.15804 7.44884C1.75513 7.42098 2.05367 7.06571 2.05367 6.38304V1.00928C2.0475 0.879855 2.06848 0.750571 2.11527 0.629742C2.16205 0.508913 2.23362 0.399215 2.32535 0.307704C2.41954 0.21999 2.53054 0.152281 2.65164 0.108666C2.77273 0.0650504 2.90141 0.0464347 3.02991 0.0539431C3.15893 0.0440429 3.28857 0.0622194 3.40989 0.107221C3.53122 0.152223 3.64135 0.22298 3.73271 0.314624C3.82407 0.406268 3.89449 0.51662 3.93911 0.638085C3.98374 0.75955 4.00151 0.889243 3.99121 1.01824V6.35618C3.99121 8.0101 3.17918 8.8918 1.55511 9.00126L1.16402 9.02515C0.865252 9.06252 0.562436 9.00175 0.301228 8.85199Z" fill="#D5D7E4"/>
  <path d="M6.71094 8.83109C6.21532 8.70663 5.7508 8.48098 5.3466 8.16833C5.23596 8.0909 5.14497 7.98866 5.08089 7.86979C5.01267 7.71716 4.98691 7.54894 5.00635 7.38289C5.0258 7.21685 5.08971 7.05913 5.19135 6.92639C5.23995 6.85495 5.30479 6.79606 5.38056 6.75454C5.45633 6.71302 5.54086 6.69007 5.62723 6.68756C5.71739 6.68804 5.80697 6.70213 5.89293 6.72935C6.00258 6.77118 6.10762 6.82421 6.2064 6.88758C6.53724 7.10283 6.89714 7.26971 7.27518 7.38316C7.66393 7.49095 8.06597 7.54322 8.46935 7.5384C8.89896 7.56606 9.32782 7.47409 9.7083 7.2727C9.84343 7.19053 9.95439 7.07404 10.0299 6.93508C10.1054 6.79612 10.1428 6.63965 10.1382 6.48156C10.1356 6.35038 10.0969 6.22246 10.0263 6.11185C9.95574 6.00125 9.85603 5.91224 9.73816 5.85462C9.29007 5.63579 8.81228 5.4839 8.32008 5.40382C7.68952 5.28824 7.07579 5.0947 6.493 4.82764C6.0897 4.64645 5.74528 4.35582 5.49885 3.98873C5.2813 3.62161 5.17259 3.20021 5.18538 2.77367C5.18053 2.2636 5.33729 1.7651 5.6332 1.34962C5.95129 0.915027 6.38019 0.573767 6.87513 0.361442C7.43966 0.115083 8.05053 -0.00709215 8.66639 0.0031907C9.69983 -0.0356109 10.7154 0.280444 11.5443 0.898818C11.6508 0.979979 11.7401 1.08145 11.8071 1.19736C11.8639 1.31651 11.8916 1.44752 11.8877 1.5795C11.8894 1.78253 11.8184 1.97948 11.6876 2.13478C11.6385 2.20572 11.5736 2.26423 11.4979 2.30569C11.4223 2.34715 11.338 2.3704 11.2518 2.37362C11.1658 2.37293 11.0803 2.35986 10.998 2.33481C10.884 2.29176 10.7749 2.23672 10.6726 2.17061C10.3813 1.97763 10.0712 1.8146 9.74711 1.68399C9.40099 1.56357 9.03565 1.50791 8.66937 1.51979C8.25518 1.49814 7.84412 1.6022 7.49013 1.81833C7.35463 1.9045 7.24379 2.02433 7.16844 2.16614C7.09309 2.30794 7.05581 2.46686 7.06023 2.62738C7.05199 2.80677 7.11168 2.98267 7.22741 3.11997C7.38052 3.27872 7.57013 3.39761 7.77972 3.46628C8.13879 3.59435 8.50577 3.69906 8.87835 3.77975C9.99192 4.03053 10.795 4.34997 11.2667 4.74405C11.5069 4.93692 11.6982 5.18364 11.8253 5.46424C11.9524 5.74484 12.0116 6.05142 11.9981 6.35916C12.007 6.86614 11.8544 7.3628 11.5623 7.77724C11.2493 8.20334 10.8232 8.53326 10.3323 8.72959C9.75544 8.96056 9.13837 9.07423 8.51712 9.06396C7.90726 9.06898 7.29958 8.99064 6.71094 8.83109Z" fill="#D5D7E4"/>
</svg>
