<svg id="Layer_1" data-name="Layer 1" xmlns="http://www.w3.org/2000/svg" viewBox="0 0 56 56"><defs><style>.cls-1{fill:#D5D7E4;}</style></defs><title>json</title><path class="cls-1" d="M23.37,44.29A2,2,0,0,1,24,45.88a2,2,0,0,1-.63,1.58A2.32,2.32,0,0,1,21.8,48H18.44a5.33,5.33,0,0,1-4-1.45,5.5,5.5,0,0,1-1.41-4V33.76a4.31,4.31,0,0,0-.63-2.62,3,3,0,0,0-2.24-.95,2.2,2.2,0,0,1-1.59-.65A2.24,2.24,0,0,1,8,28a2.14,2.14,0,0,1,.56-1.54,2.23,2.23,0,0,1,1.59-.63,3,3,0,0,0,2.24-.95A4.31,4.31,0,0,0,13,22.24V13.47a5.5,5.5,0,0,1,1.41-4,5.33,5.33,0,0,1,4-1.45H21.8a2.32,2.32,0,0,1,1.57.54A2,2,0,0,1,24,10.12a2,2,0,0,1-.63,1.59,2.32,2.32,0,0,1-1.57.54H20.37a1.92,1.92,0,0,0-1.41.47,2.07,2.07,0,0,0-.47,1.52v8.68a5.42,5.42,0,0,1-1.06,3.41A4.25,4.25,0,0,1,15,28a4.28,4.28,0,0,1,2.48,1.68,5.29,5.29,0,0,1,1.06,3.38v8.68A2.07,2.07,0,0,0,19,43.28a1.92,1.92,0,0,0,1.41.47H21.8A2.32,2.32,0,0,1,23.37,44.29Z"/><path class="cls-1" d="M47.44,26.44A2.14,2.14,0,0,1,48,28a2.28,2.28,0,0,1-.54,1.56,2.18,2.18,0,0,1-1.61.65,3,3,0,0,0-2.24.95A4.31,4.31,0,0,0,43,33.76v8.77a5.5,5.5,0,0,1-1.41,4,5.33,5.33,0,0,1-4,1.45H34.2a2.32,2.32,0,0,1-1.57-.54A2,2,0,0,1,32,45.88a2,2,0,0,1,.63-1.59,2.32,2.32,0,0,1,1.57-.54h1.43A1.92,1.92,0,0,0,37,43.28a2.07,2.07,0,0,0,.47-1.52V33.08a5.29,5.29,0,0,1,1.06-3.38A4.28,4.28,0,0,1,41.05,28a4.25,4.25,0,0,1-2.48-1.69,5.42,5.42,0,0,1-1.06-3.41V14.24A2.07,2.07,0,0,0,37,12.72a1.92,1.92,0,0,0-1.41-.47H34.2a2.32,2.32,0,0,1-1.57-.54A2,2,0,0,1,32,10.12a2,2,0,0,1,.63-1.58A2.32,2.32,0,0,1,34.2,8h3.36a5.33,5.33,0,0,1,4,1.45,5.5,5.5,0,0,1,1.41,4v8.77a4.31,4.31,0,0,0,.63,2.62,3,3,0,0,0,2.24.95A2.23,2.23,0,0,1,47.44,26.44Z"/></svg>
