<?xml version="1.0" encoding="UTF-8"?>
<svg width="32px" height="32px" viewBox="0 0 32 32" version="1.1" xmlns="http://www.w3.org/2000/svg" xmlns:xlink="http://www.w3.org/1999/xlink">
    <title>Icon - Quick Start</title>
    <g id="🎲-Project-Picker" stroke="none" stroke-width="1" fill="#EEBB25" fill-rule="evenodd">
        <g id="-Quick-Start-/-Tablet-(768)" transform="translate(-329.000000, -80.000000)" fill="#FFC828">
            <g id="Icon---Quick-Start" transform="translate(329.000000, 80.000000)">
                <rect id="Container" fill-opacity="0.1" x="0" y="0" width="32" height="32" rx="4"></rect>
                <path d="M16.6666817,8.00001226 L16.6666817,14.6667198 L22.0001353,14.6667198 L15.3333183,24.0001103 L15.3333183,17.3334028 L9.99986468,17.3334028 L16.6666817,8.00001226 M16.6666817,6 C16.0212029,6 15.4154318,6.31163037 15.0399783,6.83667179 L8.37316132,16.1700623 C7.93729084,16.779592 7.87871236,17.5816288 8.22139323,18.2480197 C8.5640741,18.9144107 9.25051716,19.3333447 9.99986468,19.3334151 L13.3332732,19.3334151 L13.3332732,24.0001103 C13.3333873,24.8692406 13.8948108,25.6388111 14.7224194,25.9042804 C15.5500281,26.1697498 16.4543551,25.8703435 16.9600217,25.1634508 L23.6268387,15.8300603 C24.0627092,15.2205306 24.1212876,14.4184938 23.7786068,13.7521028 C23.4359259,13.0857119 22.7494828,12.6667779 22.0001353,12.6667075 L18.6667268,12.6667075 L18.6667268,8.00001226 C18.6667268,6.89543599 17.7712761,6 16.6666817,6 Z" id="Shape" fill-rule="nonzero"></path>
            </g>
        </g>
    </g>
</svg>
