<?xml version="1.0" encoding="UTF-8"?>
<svg width="32px" height="32px" viewBox="0 0 32 32" version="1.1" xmlns="http://www.w3.org/2000/svg" xmlns:xlink="http://www.w3.org/1999/xlink">
    <title>Icon- 8th Wall Projects</title>
    <g id="🎲-Project-Picker" stroke="none" stroke-width="1" fill="none" fill-rule="evenodd">
        <g id="8th-Wall-Projects-/-Desktop" transform="translate(-443.000000, -80.000000)" fill="#009770">
            <g id="Icon--8th-Wall-Projects" transform="translate(443.000000, 80.000000)">
                <rect id="Container" fill="#00EDAF" fill-opacity="0.1" x="0" y="0" width="32" height="32" rx="4"></rect>
                <g id="Group" transform="translate(6.000000, 6.000000)" fill-rule="nonzero">
                    <g id="Rocket" transform="translate(0.250000, 0.000000)">
                        <path d="M19.1291545,0.617118326 C18.8715746,0.295143547 18.5066699,0.0804936947 18.0988352,0.0160987389 C17.9700452,-0.00536624631 17.8197904,-0.00536624631 17.6910004,0.0160987389 C12.9901687,0.59565334 9.38405115,2.46310706 6.93704283,5.5969949 L6.42188319,5.57552992 C5.62767873,5.53259995 4.83347428,5.83310974 4.27538466,6.39119936 L2.96602056,7.70056346 C2.81576567,7.82935337 2.72990573,8.02253823 2.72990573,8.2157231 C2.70844074,8.43037295 2.7728357,8.62355782 2.92309059,8.77381272 C3.00895053,8.88113764 3.11627546,8.9455326 3.24506537,8.98846257 L4.76907932,9.63241213 C4.61882443,10.0831768 4.49003451,10.5339415 4.38270959,10.9847062 L4.23245469,11.6930507 L7.75271227,15.2347733 L8.46105678,15.0845184 C8.91182147,14.9771935 9.36258617,14.8484035 9.81335086,14.6981486 L10.4573004,16.2436276 C10.5860903,16.5441374 10.8651351,16.7373222 11.1871099,16.7373222 C11.2944348,16.7373222 11.3802948,16.7158573 11.4876197,16.6729273 C11.5949446,16.6299973 11.6808046,16.5656024 11.7451995,16.5012074 L13.0760286,15.1703783 C13.6341182,14.6122887 13.934628,13.8180843 13.8916981,13.0238798 L13.8702331,12.5087202 C16.9826559,10.0831768 18.8715746,6.45559431 19.4296642,1.75476254 C19.4940592,1.34692782 19.3867343,0.939093104 19.1291545,0.617118326 Z M18.1632301,1.60450765 C17.6266055,6.09068956 15.8235467,9.48215723 12.7969838,11.6930507 L12.517939,11.9077006 L12.582334,13.1097397 C12.6037989,13.5390394 12.4320791,13.9683391 12.1315693,14.2688489 L11.3588298,15.0630534 L10.5216954,13.0668098 L9.94214077,13.3029246 C9.38405115,13.5175745 8.78303156,13.7107593 8.18201198,13.8395492 L8.16054699,13.8395492 L5.62767873,11.306681 L5.62767873,11.285216 C5.75646864,10.6841964 5.94965351,10.1046418 6.16430336,9.5250872 L6.4004182,8.9455326 L4.40417457,8.10839818 L5.19837903,7.31419372 C5.49888882,7.01368393 5.92818853,6.84196405 6.37895322,6.86342903 L7.58099239,6.92782399 L7.79564224,6.64877918 C9.98507074,3.64368124 13.3765384,1.84062248 17.8627203,1.28253287 C17.8841853,1.28253287 17.9056503,1.28253287 17.9271153,1.28253287 C18.0129752,1.30399785 18.0773702,1.34692782 18.0988352,1.38985779 C18.1417651,1.41132278 18.1846951,1.49718272 18.1632301,1.60450765 Z" id="Shape"></path>
                        <path d="M13.0974936,4.30909579 C11.9813144,4.30909579 11.079785,5.23209015 11.079785,6.34826939 C11.079785,7.46444862 11.9813144,8.38744298 13.0974936,8.38744298 C14.2136728,8.38744298 15.1152022,7.46444862 15.1152022,6.34826939 C15.1152022,5.23209015 14.2136728,4.30909579 13.0974936,4.30909579 Z" id="Path"></path>
                        <path d="M5.60621375,14.4834988 C5.45595885,14.3761739 5.30570395,14.2903139 5.13398407,14.225919 C5.06958912,13.9898041 4.94079921,13.7751543 4.72614935,13.5819694 L4.68321938,13.5390394 L4.64028941,13.4961095 C4.03926982,13.0668098 3.43825024,12.8521599 2.83723065,12.8521599 C2.19328109,12.8521599 0.969776935,13.1097397 0.132642511,14.9127985 C-0.0820073418,15.3850282 -0.0390773713,15.9645828 0.282897407,16.3724175 C-0.0390773713,17.145157 -0.0605423565,18.0252214 0.197037466,18.9482157 C0.261432422,19.2272605 0.411687319,19.4633754 0.626337171,19.6565602 C0.883916994,19.8712101 1.22735676,20 1.54933154,20 C1.95716626,20 2.36500098,19.8282801 2.6225808,19.5063053 C2.72990573,19.4204454 3.18067042,19.2272605 3.97487487,19.1414006 C4.72614935,19.0770056 5.41302888,18.6906359 5.90672354,18.1110813 C6.72239298,17.102227 6.65799802,15.7499329 5.75646864,14.6552187 C5.73500366,14.5908237 5.6706087,14.5264288 5.60621375,14.4834988 Z M4.96226419,17.2954119 C4.68321938,17.6173866 4.29684965,17.8320365 3.86754994,17.8749665 C3.26653036,17.9393614 2.15035112,18.1325463 1.67812145,18.6691709 C1.65665646,18.7121009 1.59226151,18.7335659 1.54933154,18.7335659 C1.50640157,18.7335659 1.48493658,18.7121009 1.44200661,18.6906359 C1.42054163,18.6691709 1.39907664,18.6477059 1.39907664,18.604776 C1.22735676,18.0466863 0.99124192,16.8231822 2.30060602,15.7713979 C2.15035112,15.685538 1.95716626,15.664073 1.76398139,15.664073 C1.65665646,15.664073 1.57079652,15.664073 1.4634716,15.685538 C1.44200661,15.685538 1.44200661,15.685538 1.42054163,15.685538 C1.37761165,15.685538 1.33468168,15.664073 1.3132167,15.642608 C1.27028673,15.599678 1.24882174,15.5352831 1.29175171,15.4708881 C1.50640157,14.9986584 2.00009623,14.161524 2.83723065,14.161524 C3.13774044,14.161524 3.50264519,14.2688489 3.88901493,14.5693587 C3.91047991,14.5908237 3.9319449,14.6337537 3.88901493,14.6766837 C3.48118021,14.9986584 3.26653036,15.4708881 3.28799534,15.9860478 C3.28799534,16.0504427 3.33092531,16.0933727 3.39532027,16.0933727 C3.41678525,16.0933727 3.43825024,16.0933727 3.45971522,16.0933727 C3.95340988,16.0933727 4.40417457,15.8787228 4.70468437,15.4923531 C4.72614935,15.4708881 4.74761434,15.4708881 4.76907932,15.4708881 C4.79054431,15.4708881 4.81200929,15.4708881 4.81200929,15.4923531 C5.00519416,15.7284679 5.58474876,16.5226724 4.96226419,17.2954119 Z" id="Shape"></path>
                    </g>
                </g>
            </g>
        </g>
    </g>
</svg>
