<?xml version="1.0" encoding="UTF-8"?>
<svg width="32px" height="32px" viewBox="0 0 32 32" version="1.1" xmlns="http://www.w3.org/2000/svg" xmlns:xlink="http://www.w3.org/1999/xlink">
    <title>Icon - My Projects</title>
    <g id="🎲-Project-Picker" stroke="none" stroke-width="1" fill="none" fill-rule="evenodd">
        <g id="My-Projects-/-Desktop---Light-" transform="translate(-443.000000, -80.000000)" fill="#AD50FF">
            <g id="Icon---My-Projects" transform="translate(443.000000, 80.000000)">
                <rect id="Rectangle" fill-opacity="0.1" x="0" y="0" width="32" height="32" rx="4"></rect>
                <g id="Group" transform="translate(6.000000, 6.000000)" fill-rule="nonzero">
                    <g id="Icon-/-Sidbebar-/-Workspace">
                        <path d="M19.0859375,9.77346278 L15.3125,8.35955809 L15.3125,4.1217498 C15.3125,3.53587769 14.9492187,3.01249861 14.3984375,2.80549046 L10.4921875,1.34081018 C10.1757812,1.21972994 9.82421875,1.21972994 9.50390625,1.34081018 L5.59765625,2.80549046 C5.046875,3.01249861 4.68359375,3.53587769 4.68359375,4.1217498 L4.68359375,8.35955809 L0.91015625,9.77346278 C0.36328125,9.98047093 0,10.50385 0,11.0897221 L0,15.3900234 C0,15.9212142 0.30078125,16.4094409 0.77734375,16.6476956 L4.68359375,18.6006026 C5.078125,18.7997991 5.546875,18.7997991 5.94140625,18.6006026 L10,16.5695793 L14.0585937,18.6006026 C14.453125,18.7997991 14.921875,18.7997991 15.3164062,18.6006026 L19.2226562,16.6476956 C19.6992187,16.4094409 20,15.9212142 20,15.3900234 L20,11.0897221 C20,10.50385 19.6367187,9.98047093 19.0859375,9.77346278 Z M13.984375,8.3908046 L10.6640625,9.63675929 L10.6640625,6.97299409 L13.984375,5.52784287 L13.984375,8.3908046 Z M6.015625,4.06706841 L10,2.57504743 L13.984375,4.06706841 L13.984375,4.09050329 L10,5.70751032 L6.015625,4.09050329 L6.015625,4.06706841 Z M9.296875,15.4368932 L5.9765625,17.0968642 L5.9765625,14.0073652 L9.296875,12.4919094 L9.296875,15.4368932 Z M9.296875,11.0623814 L5.3125,12.6793885 L1.328125,11.0623814 L1.328125,11.0389465 L5.3125,9.54692557 L9.296875,11.0389465 L9.296875,11.0623814 Z M18.671875,15.4368932 L15.3515625,17.0968642 L15.3515625,14.0073652 L18.671875,12.4919094 L18.671875,15.4368932 Z M18.671875,11.0623814 L14.6875,12.6793885 L10.703125,11.0623814 L10.703125,11.0389465 L14.6875,9.54692557 L18.671875,11.0389465 L18.671875,11.0623814 Z" id="cubes-solid"></path>
                    </g>
                </g>
            </g>
        </g>
    </g>
</svg>