<svg width="9" height="12" viewBox="0 0 9 12" fill="none" xmlns="http://www.w3.org/2000/svg">
<path d="M1.88831 4.26704V1.87172C1.88831 1.66642 2.05473 1.5 2.26002 1.5H6.29602C6.50131 1.5 6.66773 1.66642 6.66773 1.87172V4.26704" stroke="#8083A2" stroke-width="1.48686" stroke-linecap="square"/>
<path fill-rule="evenodd" clip-rule="evenodd" d="M0 5.0743C0 4.66372 0.332846 4.33087 0.743431 4.33087H7.74634C8.15693 4.33087 8.48978 4.66372 8.48978 5.0743V10.7566C8.48978 11.1672 8.15693 11.5 7.74634 11.5H0.743432C0.332846 11.5 0 11.1672 0 10.7566V5.0743ZM4.65394 7.52363C4.98738 7.37819 5.22045 7.0456 5.22045 6.65858C5.22045 6.13761 4.79812 5.71527 4.27715 5.71527C3.75617 5.71527 3.33384 6.13761 3.33384 6.65858C3.33384 7.0452 3.56642 7.37749 3.8993 7.52317V9.67704C3.8993 9.88543 4.06823 10.0544 4.27662 10.0544C4.48501 10.0544 4.65394 9.88543 4.65394 9.67704V7.52363Z" fill="#8083A2"/>
</svg>
