<svg width="16" height="16" viewBox="-1.5 -1.5 16 16" fill="none" xmlns="http://www.w3.org/2000/svg">
  <path d="M6 1.07143C6.97478 1.07143 7.92767 1.36048 8.73817 1.90204C9.54867 2.4436 10.1804 3.21334 10.5534 4.11392C10.9264 5.0145 11.024 6.00547 10.8339 6.96152C10.6437 7.91757 10.1743 8.79575 9.48503 9.48503C8.79576 10.1743 7.91757 10.6437 6.96152 10.8339C6.00547 11.024 5.0145 10.9264 4.11392 10.5534C3.21334 10.1804 2.4436 9.54867 1.90205 8.73817C1.36049 7.92767 1.07143 6.97478 1.07143 6C1.07143 4.69286 1.59069 3.43926 2.51498 2.51497C3.43926 1.59069 4.69286 1.07143 6 1.07143ZM6 0C4.81331 0 3.65328 0.351894 2.66658 1.01118C1.67989 1.67047 0.910851 2.60754 0.456726 3.7039C0.00259975 4.80026 -0.11622 6.00666 0.115291 7.17054C0.346802 8.33443 0.918247 9.40353 1.75736 10.2426C2.59648 11.0818 3.66558 11.6532 4.82946 11.8847C5.99335 12.1162 7.19975 11.9974 8.2961 11.5433C9.39246 11.0892 10.3295 10.3201 10.9888 9.33342C11.6481 8.34673 12 7.18669 12 6C12 4.4087 11.3679 2.88258 10.2426 1.75736C9.11742 0.632141 7.5913 0 6 0Z" fill="#D5D7E4"/>
  <path d="M6.00001 3.78857C5.8428 3.78862 5.69076 3.73237 5.57144 3.63C5.50866 3.57337 5.45948 3.5033 5.42757 3.42501C5.39566 3.34672 5.38185 3.26223 5.38716 3.17786C5.38575 3.09704 5.40188 3.01687 5.43443 2.94289C5.46699 2.8689 5.51519 2.80285 5.57573 2.74929C5.69037 2.63969 5.84149 2.57635 6.00001 2.57143C6.15675 2.5698 6.30885 2.62456 6.42858 2.72571C6.492 2.78194 6.54176 2.85188 6.57406 2.93024C6.60637 3.00859 6.62037 3.09328 6.61501 3.17786C6.6195 3.26163 6.60551 3.34537 6.57404 3.42313C6.54256 3.5009 6.49437 3.57079 6.43287 3.62786C6.31412 3.73428 6.15944 3.79171 6.00001 3.78857ZM6.61501 5.07429V8.67214C6.63046 8.87654 6.56679 9.07907 6.43716 9.23786C6.38161 9.29836 6.31402 9.34657 6.23874 9.37942C6.16346 9.41226 6.08214 9.429 6.00001 9.42857C5.91593 9.43097 5.83237 9.41473 5.75531 9.38101C5.67825 9.3473 5.6096 9.29695 5.5543 9.23357C5.43173 9.07311 5.37158 8.87361 5.38501 8.67214V5.11071C5.36972 4.91102 5.43015 4.71288 5.5543 4.55571C5.6103 4.49362 5.67923 4.44456 5.75624 4.41198C5.83324 4.3794 5.91645 4.3641 6.00001 4.36714C6.08415 4.36448 6.16789 4.37994 6.24553 4.41247C6.32317 4.44501 6.39291 4.49386 6.45001 4.55571C6.57346 4.69912 6.62866 4.88556 6.61501 5.07429Z" fill="#D5D7E4"/>
</svg>
