<?xml version="1.0" encoding="UTF-8"?>
<svg width="20px" height="21px" viewBox="0 0 20 21" version="1.1" xmlns="http://www.w3.org/2000/svg" xmlns:xlink="http://www.w3.org/1999/xlink">
    <title>Combined Shape</title>
    <g id="Milestone-2-/-Import-Modules" stroke="none" stroke-width="1" fill="none" fill-rule="evenodd">
        <g id="Module-Import-Modal" transform="translate(-434.000000, -224.000000)" fill="#FFFFFF" fill-rule="nonzero">
            <g id="Icon-Modules" transform="translate(429.000000, 219.000000)">
                <path d="M14.9980723,5 L25,10.7431325 L25,19.7951807 L14.9409639,25.6168675 L5,20.0804819 L5,10.8657831 L14.9980723,5 Z M5.72289157,11.7118072 L5.72289157,19.6554217 L14.6385542,24.6214458 L14.6385542,16.8592771 L5.72289157,11.7118072 Z M24.2771084,11.6501205 L15.3614458,16.7703614 L15.3614458,24.5383133 L24.2771084,19.3783133 L24.2771084,11.6501205 Z M15.1224096,5.83566265 L6.18939759,11.0768675 L15.0433735,16.1886747 L24.0973494,10.9889157 L15.1224096,5.83566265 Z M15.140241,11.3443373 C15.6412048,11.3443373 16.1180723,11.460241 16.4831325,11.6710843 C16.8872289,11.9043373 17.1238554,12.2440964 17.1440964,12.6091566 L17.1440964,12.6091566 L17.153253,12.6053012 L17.1419277,13.8236145 C17.1108434,14.1746988 16.8795181,14.500241 16.4915663,14.7257831 C16.1281928,14.9371084 15.6520482,15.053253 15.1506024,15.053253 C14.6496386,15.053253 14.1727711,14.9371084 13.8077108,14.7262651 C13.4166265,14.5007229 13.1828916,14.1751807 13.1493976,13.8236145 L13.1493976,13.8236145 L13.1472289,12.7180723 C13.1460241,12.6968675 13.1421679,12.6759036 13.1421679,12.6544578 C13.1416867,12.2727711 13.3814458,11.9144578 13.7992771,11.6715663 C14.1624096,11.4604819 14.6387952,11.3443373 15.140241,11.3443373 Z M15.1404819,12.0672289 C14.7698795,12.0672289 14.413494,12.1508434 14.1624096,12.2966265 C13.9763855,12.4048193 13.8653012,12.5383133 13.8653012,12.653494 C13.8657831,12.7706024 13.9792771,12.9062651 14.1693976,13.0159036 C14.4226506,13.1619277 14.780241,13.2460241 15.1508434,13.2460241 C15.5212048,13.2460241 15.8775904,13.1621687 16.1286747,13.0163855 C16.3146988,12.9081928 16.4257831,12.7746988 16.4255426,12.6592771 C16.4255426,12.5424096 16.3118072,12.406988 16.1219277,12.2971084 C15.8686747,12.1510843 15.5110843,12.0672289 15.1404819,12.0672289 Z M19.7587952,9.16795181 C20.259759,9.16795181 20.7366265,9.28385542 21.1016867,9.4946988 C21.5057831,9.72819277 21.7424096,10.0679518 21.7626506,10.4327711 L21.7626506,10.4327711 L21.7718072,10.4289157 L21.7604819,11.6474699 C21.7293976,11.9985542 21.4980723,12.3240964 21.1101205,12.5496386 C20.746747,12.7609639 20.2706024,12.8771084 19.7691566,12.8771084 C19.2681928,12.8771084 18.7913253,12.7609639 18.4260241,12.5501205 C18.0351807,12.3243373 17.8012048,11.9990361 17.7677108,11.6474699 L17.7677108,11.6474699 L17.7660241,10.5416867 C17.7643373,10.5204819 17.7609631,10.4995181 17.7609631,10.4783133 C17.7604819,10.0966265 17.999759,9.73807229 18.4175904,9.49518072 C18.7809639,9.28433735 19.2573494,9.16795181 19.7587952,9.16795181 Z M10.7428916,9.16795181 C11.2438554,9.16795181 11.7207229,9.28385542 12.0857831,9.4946988 C12.4898795,9.72819277 12.726506,10.0679518 12.746747,10.4327711 L12.746747,10.4327711 L12.7559036,10.4289157 L12.7445783,11.6474699 C12.713494,11.9985542 12.4821687,12.3240964 12.0942169,12.5496386 C11.7308434,12.7609639 11.2546988,12.8771084 10.753253,12.8771084 C10.2522892,12.8771084 9.77542169,12.7609639 9.41012048,12.5501205 C9.01927711,12.3243373 8.7853012,11.9990361 8.75180723,11.6474699 L8.75180723,11.6474699 L8.75012048,10.5416867 C8.74843373,10.5204819 8.74505951,10.4995181 8.74505951,10.4783133 C8.74457831,10.0966265 8.98385542,9.73807229 9.40168675,9.49518072 C9.76506024,9.28433735 10.2414458,9.16795181 10.7428916,9.16795181 Z M19.7590361,9.89084337 C19.3884337,9.89084337 19.0320482,9.97445783 18.7809639,10.120241 C18.5949398,10.2284337 18.4838554,10.3621687 18.484096,10.4773494 C18.484096,10.5944578 18.5978313,10.7298795 18.7877108,10.839759 C19.0409639,10.9855422 19.3987952,11.0696386 19.7693976,11.0696386 C20.139759,11.0696386 20.4961446,10.9860241 20.7472289,10.840241 C20.933253,10.7320482 21.0443373,10.5985542 21.0440968,10.4831325 C21.0440968,10.3660241 20.9303614,10.2306024 20.7404819,10.1207229 C20.4872289,9.97493976 20.1296386,9.89084337 19.7590361,9.89084337 Z M10.7428916,9.89084337 C10.3722892,9.89084337 10.0159036,9.97445783 9.76481928,10.120241 C9.57879518,10.2284337 9.46771084,10.3621687 9.46795142,10.4773494 C9.46795142,10.5944578 9.58168675,10.7298795 9.77156627,10.839759 C10.0248193,10.9855422 10.3826506,11.0696386 10.753253,11.0696386 C11.1236145,11.0696386 11.48,10.9860241 11.7310843,10.840241 C11.9171084,10.7320482 12.0281928,10.5985542 12.0279522,10.4831325 C12.0279522,10.3660241 11.9142169,10.2306024 11.7243373,10.1207229 C11.4710843,9.97493976 11.113494,9.89084337 10.7428916,9.89084337 Z M15.140241,6.54506024 C15.6412048,6.54506024 16.1180723,6.66096386 16.4831325,6.87180723 C16.8872289,7.1053012 17.1238554,7.44506024 17.1440964,7.80987952 L17.1440964,7.80987952 L17.153253,7.8060241 L17.1419277,9.02457831 C17.1108434,9.37566265 16.8795181,9.70096386 16.4915663,9.92674699 C16.1281928,10.1378313 15.6520482,10.2539759 15.1506024,10.2539759 C14.6496386,10.2539759 14.1727711,10.1380723 13.8077108,9.92722892 C13.4166265,9.70144578 13.1828916,9.37614458 13.1493976,9.02457831 L13.1493976,9.02457831 L13.1472289,7.91879518 C13.1460241,7.89759036 13.1421679,7.87662651 13.1421679,7.85542169 C13.1416867,7.47373494 13.3814458,7.11518072 13.7992771,6.87228916 C14.1624096,6.66144578 14.6387952,6.54506024 15.140241,6.54506024 Z M15.1404819,7.26795181 C14.7698795,7.26795181 14.413494,7.35156627 14.1624096,7.4973494 C13.9763855,7.60554217 13.8653012,7.73927711 13.8653012,7.85445783 C13.8657831,7.97156627 13.9792771,8.10698795 14.1693976,8.21686747 C14.4226506,8.3626506 14.780241,8.44674699 15.1508434,8.44674699 C15.5212048,8.44674699 15.8775904,8.36313253 16.1286747,8.2173494 C16.3146988,8.10915663 16.4257831,7.97566265 16.4255426,7.86024096 C16.4255426,7.74313253 16.3118072,7.60771084 16.1219277,7.49783133 C15.8686747,7.35204819 15.5110843,7.26795181 15.1404819,7.26795181 Z" id="Combined-Shape"></path>
            </g>
        </g>
    </g>
</svg>
