<?xml version="1.0" encoding="UTF-8"?>
<svg width="24px" height="24px" viewBox="0 0 24 24" version="1.1" xmlns="http://www.w3.org/2000/svg" xmlns:xlink="http://www.w3.org/1999/xlink">
    <title>noun-create-3554459</title>
    <g id="📺-New-Project-Creation" stroke="none" stroke-width="1" fill="none" fill-rule="evenodd">
        <g id="New-Project-/-With-Workspace-Selection-/-8th-Wall-Hosted" transform="translate(-270.000000, -160.000000)" fill="#AD50FF" fill-rule="nonzero">
            <g id="New-Project" transform="translate(270.000000, 154.000000)">
                <g id="noun-create-3554459" transform="translate(0.000000, 6.000000)">
                    <path d="M19.5,0 L9,0 C6.51471863,0 4.5,2.01471863 4.5,4.5 L4.5,9 L7.5,9 L7.5,4.5 C7.5,3.67157288 8.17157288,3 9,3 L19.5,3 C20.3284271,3 21,3.67157288 21,4.5 L21,15 C21,15.8284271 20.3284271,16.5 19.5,16.5 L15,16.5 L15,19.5 L19.5,19.5 C21.9852814,19.5 24,17.4852814 24,15 L24,4.5 C24,2.01471863 21.9852814,0 19.5,0 Z" id="Path"></path>
                    <polygon id="Path" points="4.5 12 4.5 16.5 0 16.5 0 19.5 4.5 19.5 4.5 24 7.5 24 7.5 19.5 12 19.5 12 16.5 7.5 16.5 7.5 12"></polygon>
                </g>
            </g>
        </g>
    </g>
</svg>