<svg width="12" height="12" viewBox="0 0 12 12" fill="none" xmlns="http://www.w3.org/2000/svg">
<path d="M6.00274 11.9999C7.86825 11.9991 9.62681 11.1305 10.7621 9.6503C11.8967 8.16934 12.2783 6.24603 11.7949 4.44415C11.3115 2.64226 10.0172 1.16794 8.29306 0.455438C6.56963 -0.257216 4.6118 -0.128309 2.99683 0.80554C1.3818 1.73866 0.293398 3.37055 0.0509563 5.21988C-0.191486 7.06926 0.439876 8.92677 1.75973 10.2451C2.88402 11.3716 4.41122 12.0029 6.00275 12L6.00274 11.9999ZM9.1903 9.18736C8.43809 9.9381 7.44417 10.3981 6.38506 10.4867C5.32596 10.5746 4.26983 10.2853 3.40412 9.6693L9.66862 3.39532C10.2861 4.26178 10.5776 5.31871 10.4897 6.37921C10.4025 7.43903 9.94181 8.43441 9.19033 9.18742L9.1903 9.18736ZM2.81517 2.81233C3.56738 2.06159 4.5613 1.60163 5.62041 1.513C6.67951 1.42511 7.73564 1.71441 8.60135 2.33039L2.33685 8.60586C1.71867 7.74013 1.42716 6.68248 1.51506 5.62197C1.60222 4.56068 2.06293 3.56527 2.81514 2.81246L2.81517 2.81233Z" fill="#8083A2"/>
</svg>
