<svg width="16" height="16" viewBox="-2.5 -2 16 16" fill="none" xmlns="http://www.w3.org/2000/svg">
<path d="M9.06172 2.1886L7.31258 0.439221C7.02969 0.158018 6.64766 2.34375e-06 6.25156 2.34375e-06L2 0C1.17148 0 0.5 0.671484 0.5 1.5L0.500152 10.5C0.500152 11.3283 1.17164 12 2.00015 12H8C8.825 12 9.5 11.325 9.5 10.5V3.24844C9.5 2.85235 9.34297 2.47031 9.06172 2.1886ZM8.375 10.5C8.375 10.7071 8.20709 10.875 8 10.875H2.00047C1.79333 10.875 1.62547 10.7071 1.62547 10.5L1.625 1.50305C1.625 1.29596 1.79291 1.12805 2 1.12805H5.75V3C5.75 3.41414 6.08586 3.75 6.5 3.75H8.35391V10.5H8.375Z" fill="#D5D7E4"/>
</svg>
