<?xml version="1.0" encoding="UTF-8"?>
<svg width="23px" height="17px" viewBox="0 0 23 17" version="1.1" xmlns="http://www.w3.org/2000/svg" xmlns:xlink="http://www.w3.org/1999/xlink">
    <title>noun_Eye_3889369</title>
    <g id="Page-1" stroke="none" stroke-width="1" fill="none" fill-rule="evenodd">
        <g id="MODAL--Publish-(try-it-out-ON,-cloneable-ON)-MIT-License" transform="translate(-743.000000, -453.000000)" fill="#7611B7" fill-rule="nonzero">
            <g id="noun_Eye_3889369" transform="translate(743.000000, 453.000000)">
                <path d="M11.285896,0 C3.35401422,0 0,7.95339356 0,7.95339356 C0,7.95339356 3.36964374,16.020555 11.3015255,16.020555 C19.2334073,16.020555 22.712159,8.03135646 22.712159,8.03135646 C22.712159,8.03135646 19.2177778,0 11.285896,0 Z M11.3874241,12.3564297 C8.97885905,12.3564297 7.02633128,10.4039019 7.02633128,7.99533685 C7.02633128,5.58677179 8.97885905,3.63424402 11.3874241,3.63424402 C13.7959892,3.63424402 15.7485169,5.58677179 15.7485169,7.99533685 C15.7485169,9.15197059 15.289046,10.2612316 14.4711824,11.0790952 C13.6533189,11.8969587 12.5440578,12.3564297 11.3874241,12.3564297 Z" id="Shape"></path>
            </g>
        </g>
    </g>
</svg>