<svg id="Layer_1" data-name="Layer 1" xmlns="http://www.w3.org/2000/svg" viewBox="0 0 56 56">
  <defs><style>.cls-1{fill:#D5D7E4;}</style></defs><title>react</title><g id="Ready-to-Implement"><g id="noun_atom_1936688" data-name="noun atom 1936688"><path id="Shape" class="cls-1" d="M30,31.46A4,4,0,1,1,31.46,26,4,4,0,0,1,30,31.46Zm-3-5.19L28,28h0Z"/><path class="cls-1" d="M42,53.14c-6.75,4-17.6-6.73-24.39-18.92S7.25,6.9,14,2.86,31.6,9.59,38.39,21.78,48.75,49.1,42,53.14ZM16,6.45c-2.89,1.74-2.36,12.35,5.07,25.7S37.11,51.28,40,49.54s2.36-12.34-5.07-25.69S18.89,4.72,16,6.45Z"/><path class="cls-1" d="M50.61,35.55a23.91,23.91,0,0,1-3.51,1.72A53.39,53.39,0,0,1,28,40.44C14.43,40.44,0,36.08,0,28H0c0-8.08,14.43-12.44,28-12.44a53.16,53.16,0,0,1,19.1,3.18C52.84,21,56,24.31,56,28,56,30.85,54.12,33.46,50.61,35.55ZM4,28c0,3.46,9.13,8.29,24,8.29a49.36,49.36,0,0,0,17.67-2.9C49.58,31.83,52,29.77,52,28s-2.43-3.83-6.33-5.39A49.18,49.18,0,0,0,28,19.71C13.13,19.71,4,24.54,4,28Z"/><path class="cls-1" d="M22.91,52.13c-3.26,1.95-6.38,2.52-8.91,1-6.75-4-3.18-19.18,3.61-31.36,3.59-6.45,7.92-12,12.2-15.56C34.6,2.2,38.93,1,42,2.86s4.25,6.33,3.29,12.62a58.29,58.29,0,0,1-6.9,18.74C34.15,41.83,28.33,48.88,22.91,52.13ZM35,7.5a20.58,20.58,0,0,0-2.69,1.94c-3.91,3.27-7.91,8.4-11.26,14.41h0c-7.43,13.35-8,24-5.07,25.69s11.49-4,18.93-17.39a54.15,54.15,0,0,0,6.41-17.32c.65-4.28.14-7.49-1.34-8.38C39,5.82,37.14,6.23,35,7.5Z"/></g></g>
</svg>
