<svg width="37" height="38" viewBox="0 0 37 38" fill="none" xmlns="http://www.w3.org/2000/svg">
<path d="M18.5 28.4615C18.9457 28.4615 19.3192 28.3067 19.6207 27.9971C19.9221 27.6875 20.0728 27.3038 20.0728 26.8462C20.0728 26.3885 19.9221 26.0048 19.6207 25.6952C19.3192 25.3856 18.9457 25.2308 18.5 25.2308C18.0543 25.2308 17.6808 25.3856 17.3793 25.6952C17.0779 26.0048 16.9272 26.3885 16.9272 26.8462C16.9272 27.3038 17.0779 27.6875 17.3793 27.9971C17.6808 28.3067 18.0543 28.4615 18.5 28.4615ZM17.0395 21.1539H19.9605V9.15382H17.0395V21.1539ZM18.5033 38C15.9445 38 13.5395 37.5013 11.288 36.504C9.03659 35.5067 7.07815 34.1532 5.41272 32.4435C3.74727 30.7338 2.42878 28.7233 1.45727 26.412C0.485756 24.1008 0 21.6312 0 19.0033C0 16.3755 0.485545 13.9054 1.45664 11.5931C2.42773 9.28082 3.74561 7.26945 5.41029 5.55902C7.075 3.84855 9.03258 2.49443 11.283 1.49666C13.5334 0.498887 15.938 0 18.4967 0C21.0555 0 23.4605 0.49867 25.712 1.49601C27.9634 2.49334 29.9218 3.84684 31.5873 5.55651C33.2527 7.26622 34.5712 9.27671 35.5427 11.588C36.5142 13.8992 37 16.3688 37 18.9966C37 21.6245 36.5145 24.0946 35.5434 26.4069C34.5723 28.7192 33.2544 30.7305 31.5897 32.441C29.925 34.1515 27.9674 35.5056 25.717 36.5033C23.4665 37.5011 21.062 38 18.5033 38Z" fill="#FF0060"/>
</svg>
