<?xml version="1.0" encoding="UTF-8"?>
<svg width="16px" height="16px" viewBox="0 0 16 16" version="1.1" xmlns="http://www.w3.org/2000/svg" xmlns:xlink="http://www.w3.org/1999/xlink">
    <title>Icon / Rocket / Fill </title>
    <g id="Icons" stroke="none" stroke-width="1" fill="none" fill-rule="evenodd">
        <g id="Icon-/-Rocket-/-Fill-" fill="#AD50FF" fill-rule="nonzero">
            <path d="M1.89872258,6.95044908 L3.79162699,7.73535169 C3.57820159,8.27416843 3.40795645,8.8291021 3.28250098,9.39490667 L3.21070116,9.7212695 L5.92440808,12.4366082 L6.25077091,12.3664402 C6.81657548,12.2409848 7.37150915,12.0707396 7.9103259,11.8573142 L8.6952285,13.7502186 C8.71085427,13.7883279 8.74460123,13.8160214 8.78502722,13.8239094 C8.82545321,13.8317974 8.86713559,13.8188218 8.89594164,13.7893822 L10.0822705,12.6030533 C10.4737829,12.2115873 10.6812825,11.6726813 10.6534055,11.1197342 L10.6109783,10.357677 C12.8074001,8.73565376 15.029931,5.8914017 15.6353341,0.92742307 C15.6701394,0.675142788 15.5851506,0.421079891 15.4055526,0.240521521 C15.2259547,0.0599631498 14.9723486,-0.0263794365 14.7198863,0.00707989224 C9.75753951,0.617378383 6.91165564,2.84154106 5.28963238,5.03143565 L4.52920699,4.99227211 C3.9774839,4.96225198 3.438756,5.16671966 3.04588793,5.55524799 L1.85955904,6.74157687 C1.82610028,6.7700214 1.81044659,6.81421225 1.81853973,6.85737568 C1.82663287,6.90053911 1.85723205,6.93605755 1.89872258,6.95044908 Z M9.50950376,4.05887442 C10.0835652,3.48680277 11.0125247,3.48787795 11.5852604,4.06127692 C12.1579961,4.63467588 12.1579961,5.56363598 11.5852604,6.13703495 C11.0125247,6.71043391 10.0835652,6.7115091 9.50950376,6.13943745 C9.23297806,5.86387025 9.07754671,5.48954516 9.07754671,5.09915593 C9.07754671,4.70876671 9.23297806,4.33444162 9.50950376,4.05887442 Z M1.54461891,12.6536395 C1.23049909,12.5434046 0.893180515,12.5164191 0.565530427,12.5753124 C0.506338384,12.5881156 0.444718589,12.5696297 0.402349012,12.526358 C0.349416346,12.4736331 0.335074493,12.3934491 0.366449101,12.3256449 C0.714025514,11.578274 1.63600051,10.0753732 3.30534638,11.2894429 C3.32298343,11.3052302 3.33306323,11.3277811 3.33306323,11.3514518 C3.33306323,11.3751226 3.32298343,11.3976734 3.30534638,11.4134608 C2.85208666,11.7704154 2.59578672,12.3217936 2.61508899,12.8984116 C2.61760874,12.9676367 2.67314543,13.0231734 2.7423705,13.0256931 C3.31648833,13.0487759 3.86750697,12.7980927 4.22732137,12.3501221 C4.24312696,12.3307697 4.26679139,12.319543 4.29177803,12.319543 C4.31676466,12.319543 4.34042909,12.3307697 4.35623469,12.3501221 C4.5879523,12.6258987 5.22599163,13.5266601 4.5194161,14.396417 C4.21095054,14.7671669 3.76897571,15.0016363 3.28902824,15.0491427 C2.60366629,15.1225743 1.33737852,15.3461329 0.820093433,15.9368496 C0.777783102,15.9869797 0.711314917,16.0097523 0.647152386,15.9961007 C0.582989855,15.9824491 0.531549767,15.9345897 0.513312374,15.871577 C0.33054919,15.248224 0.0466135282,13.8546547 1.54461891,12.6536395 Z" id="Shape"></path>
        </g>
    </g>
</svg>