<?xml version="1.0" encoding="UTF-8"?>
<svg width="12px" height="12px" viewBox="0 0 16 16" version="1.1" xmlns="http://www.w3.org/2000/svg" xmlns:xlink="http://www.w3.org/1999/xlink">
    <title>Icon / Other / Search</title>
    <g id="Icons" stroke="none" stroke-width="1" fill="none" fill-rule="evenodd">
        <g id="Icon-/-Other-/-Search" fill="#8083A2" fill-rule="nonzero">
            <path d="M6.99819949,13.9860657 C8.5146309,13.9869298 9.9898253,13.4923426 11.1992736,12.5775751 L14.3350282,15.7133314 C14.6693914,16.0471939 15.1943131,16.0950893 15.5835771,15.8272527 C15.6752688,15.7504623 15.7600115,15.6657369 15.8368206,15.5740608 C16.1048374,15.1847974 16.0570016,14.6597294 15.723054,14.3253073 L12.587319,11.1895635 C14.5337908,8.59487785 14.44047,5.00227555 12.3619157,2.51214339 C10.2833615,0.0220112423 6.76528067,-0.711887668 3.86449175,0.739514922 C0.963702821,2.19091751 -0.558216689,5.44656815 0.188511556,8.60307616 C0.935239801,11.7595842 3.75456863,13.9882351 6.99819949,13.9860657 L6.99819949,13.9860657 Z M6.99819949,1.7668583 C9.11017687,1.7668583 11.014197,3.0390775 11.8224181,4.99028921 C12.6306392,6.94150093 12.1838958,9.18744441 10.6905038,10.6808395 C9.19711183,12.1742345 6.95116926,12.6209825 4.99995589,11.8127654 C3.04874253,11.0045483 1.77651512,9.10053073 1.77651512,6.98855334 C1.77985077,4.10607777 4.11572392,1.77019984 6.99819949,1.7668583 Z" id="Search-Icon"></path>
        </g>
    </g>
</svg>
