<svg width="14" height="10" viewBox="0 0 14 10" fill="none" xmlns="http://www.w3.org/2000/svg">
<path d="M2.32151 4.88482L0.113196 7.10108C-0.037732 7.25995 -0.037732 7.5062 0.113196 7.66507L2.32151 9.88133C2.56776 10.1355 2.99671 9.95282 2.99671 9.6033V8.17346H7.7708C8.2077 8.17346 8.56516 7.816 8.56516 7.3791C8.56516 6.9422 8.2077 6.58474 7.7708 6.58474H2.99671V5.16284C2.99671 4.80538 2.56776 4.63062 2.32151 4.88482ZM13.8476 2.33493L11.6393 0.118673C11.3931 -0.135522 10.9641 0.0471805 10.9641 0.396698V1.8186H6.18209C5.74519 1.8186 5.38773 2.17606 5.38773 2.61296C5.38773 3.04985 5.74519 3.40731 6.18209 3.40731H10.9562V4.82921C10.9562 5.18667 11.3851 5.36143 11.6314 5.10724L13.8397 2.89098C13.9986 2.74005 13.9986 2.48586 13.8476 2.33493Z" fill="white"/>
</svg>
