<?xml version="1.0" encoding="UTF-8"?>
<svg width="40px" height="40px" viewBox="0 0 40 40" version="1.1" xmlns="http://www.w3.org/2000/svg" xmlns:xlink="http://www.w3.org/1999/xlink">
    <title>Icon / Try AR / Gray</title>
    <g id="Icon-/-Try-AR-/-Gray" stroke="none" stroke-width="1" fill="none" fill-rule="evenodd">
        <g id="Try-in-AR-icon-gray" transform="translate(1.000000, 0.000000)" fill-rule="nonzero">
            <path d="M18.95941,39.96742 C18.29195,39.96742 17.63351,39.81408 17.02017,39.50742 L2.39022,32.15637 C0.92001,31.41675 0,29.91046 0,28.26888 L0.03608,11.61851 C0.03608,9.97692 0.97413,8.47966 2.44434,7.74004 L17.10135,0.45212 C18.32803,-0.1522 19.76216,-0.1522 20.97982,0.46113 L35.60978,7.81218 C37.07999,8.5518 38,10.05809 38,11.69967 L37.96392,28.35004 C37.96392,29.99163 37.02587,31.48889 35.55566,32.22851 L20.89865,39.51643 C20.2853,39.81409 19.62687,39.96742 18.95941,39.96742 Z" id="Hexagon" fill="#D5D7E4" opacity="0.15"></path>
            <path d="M18.97726,31.17809 C18.60337,31.17809 18.23453,31.0922 17.89095,30.92041 L9.69561,26.80253 C8.87204,26.38821 8.35667,25.54443 8.35667,24.62486 L8.37688,15.29774 C8.37688,14.37816 8.90235,13.53943 9.72593,13.12512 L17.93642,9.04261 C18.62357,8.70409 19.42694,8.70409 20.10904,9.04766 L28.30438,13.16554 C29.12795,13.57986 29.64332,14.42364 29.64332,15.34321 L29.62311,24.67033 C29.62311,25.58991 29.09764,26.42864 28.27406,26.84295 L20.06357,30.92546 C19.72,31.09219 19.35116,31.17809 18.97726,31.17809 Z" id="Hexagon_1_" fill="#FFFFFF" opacity="0.4"></path>
            <g id="Lines" transform="translate(1.549800, 1.594550)" fill="#FFFFFF">
                <polygon id="Path" points="30.7959 7.01807 30.37403 7.81396 33.47461 9.45361 17.4502 17.88037 1.4253 9.4541 4.52637 7.81396 4.10547 7.01807 0.04004 9.16797 0 9.18896 0 14.14697 0.9004 14.14697 0.9004 10.19434 17 18.66113 17 35.52393 13.57764 33.72412 13.51124 33.68896 13.09327 34.48584 17.41553 36.75928 17.4502 36.77783 21.74122 34.521 21.80762 34.48584 21.3877 33.68896 17.9004 35.52393 17.9004 18.66113 34 10.19434 34 14.14697 34.9004 14.14697 34.9004 9.18896"></polygon>
                <polygon id="Path" points="17.4502 1.01758 21.32129 3.05371 21.3877 3.08838 21.80762 2.29199 17.48487 0.01855 17.4502 0 13.15967 2.25684 13.09327 2.29199 13.51124 3.08838"></polygon>
                <polygon id="Path" points="0.9004 22.63916 0 22.63916 0 27.59619 4.10547 29.76807 4.52637 28.97314 0.9004 27.05518"></polygon>
                <polygon id="Path" points="34 27.05518 30.37403 28.97314 30.7959 29.76807 34.86036 27.61768 34.9004 27.59619 34.9004 22.63916 34 22.63916"></polygon>
            </g>
        </g>
    </g>
</svg>