<svg width="41" height="40" viewBox="0 0 41 40" fill="none" xmlns="http://www.w3.org/2000/svg">
<g filter="url(#filter0_d_1207_7726)">
<path fill-rule="evenodd" clip-rule="evenodd" d="M32.9322 8.94727H15.3861C15.0266 8.94727 14.709 9.12727 14.5216 9.40042C14.409 9.56393 14.3433 9.76094 14.3433 9.97284V21.4963H8.2752C7.76075 21.4963 7.34204 21.9081 7.34204 22.414V25.8496C7.34204 26.0431 7.40405 26.2223 7.50849 26.3704C7.40405 26.5186 7.34204 26.6978 7.34204 26.8913V30.3267C7.34204 30.8326 7.76075 31.2444 8.2752 31.2444H21.2191C21.7336 31.2444 22.1523 30.8326 22.1523 30.3267V26.8913C22.1523 26.6978 22.0903 26.5186 21.9858 26.3704C22.005 26.3432 22.0206 26.3138 22.0361 26.2842L22.0434 26.2705H32.9336C33.5077 26.2705 33.9747 25.8112 33.9747 25.2466V13.4338V9.97284V9.97245C33.9747 9.40726 33.5069 8.94727 32.9322 8.94727ZM21.3452 30.3266C21.3452 30.395 21.2887 30.4506 21.2191 30.4506H8.27522C8.20567 30.4506 8.14912 30.395 8.14912 30.3266V26.8912C8.14912 26.8228 8.20567 26.7672 8.27522 26.7672H21.2191C21.2887 26.7672 21.3452 26.8228 21.3452 26.8912V30.3266ZM21.2191 25.9736C21.2887 25.9736 21.3452 25.918 21.3452 25.8496V22.414C21.3452 22.3456 21.2887 22.29 21.2191 22.29H14.7479L14.7468 22.2902L14.7457 22.29H8.27522C8.20567 22.29 8.14912 22.3456 8.14912 22.414V25.8496C8.14912 25.918 8.20567 25.9736 8.27522 25.9736H21.2191ZM33.1676 25.2467C33.1676 25.3757 33.0648 25.4768 32.9335 25.4768H22.1523V22.414C22.1523 21.9081 21.7336 21.4964 21.2191 21.4964H15.1503V13.8307H33.1676V25.2467ZM15.1508 13.037H33.1677V9.97277C33.1677 9.96984 33.167 9.96718 33.1662 9.96451C33.1655 9.96219 33.1648 9.95987 33.1647 9.95736C33.1596 9.88384 33.1195 9.82231 33.0606 9.78347C33.0238 9.75974 32.982 9.74258 32.9337 9.74258H15.3843C15.3516 9.74258 15.3208 9.74891 15.2928 9.76034C15.2094 9.79604 15.1508 9.87745 15.1508 9.97238V13.037Z" fill="#B5B8D0"/>
<path d="M14.5216 9.40042L14.7275 9.54215L14.7277 9.54189L14.5216 9.40042ZM14.3433 21.4963V21.7463H14.5933V21.4963H14.3433ZM7.50849 26.3704L7.71284 26.5145L7.81435 26.3704L7.71284 26.2264L7.50849 26.3704ZM21.9858 26.3704L21.7815 26.2265L21.68 26.3705L21.7815 26.5145L21.9858 26.3704ZM22.0361 26.2842L21.8152 26.1673L21.815 26.1675L22.0361 26.2842ZM22.0434 26.2705V26.0205H21.8929L21.8224 26.1536L22.0434 26.2705ZM14.7479 22.29V22.04H14.7235L14.6997 22.0447L14.7479 22.29ZM14.7468 22.2902L14.6986 22.5355L14.7468 22.545L14.795 22.5355L14.7468 22.2902ZM14.7457 22.29L14.7939 22.0447L14.7701 22.04H14.7457V22.29ZM22.1523 25.4768H21.9023V25.7268H22.1523V25.4768ZM15.1503 21.4964H14.9003V21.7464H15.1503V21.4964ZM15.1503 13.8307V13.5807H14.9003V13.8307H15.1503ZM33.1676 13.8307H33.4176V13.5807H33.1676V13.8307ZM33.1677 13.037V13.287H33.4177V13.037H33.1677ZM15.1508 13.037H14.9008V13.287H15.1508V13.037ZM33.1662 9.96451L33.4062 9.8945L33.4062 9.89441L33.1662 9.96451ZM33.1647 9.95736L33.4141 9.94049L33.4141 9.94018L33.1647 9.95736ZM33.0606 9.78347L33.1984 9.57482L33.1959 9.57323L33.0606 9.78347ZM15.2928 9.76034L15.1983 9.52884L15.1943 9.53054L15.2928 9.76034ZM15.3861 9.19727H32.9322V8.69727H15.3861V9.19727ZM14.7277 9.54189C14.8701 9.33447 15.1117 9.19727 15.3861 9.19727V8.69727C14.9416 8.69727 14.548 8.92008 14.3154 9.25895L14.7277 9.54189ZM14.5933 9.97284C14.5933 9.81358 14.6425 9.66566 14.7275 9.54215L14.3156 9.25869C14.1756 9.4622 14.0933 9.70831 14.0933 9.97284H14.5933ZM14.5933 21.4963V9.97284H14.0933V21.4963H14.5933ZM8.2752 21.7463H14.3433V21.2463H8.2752V21.7463ZM7.59204 22.414C7.59204 22.0501 7.89485 21.7463 8.2752 21.7463V21.2463C7.62665 21.2463 7.09204 21.7661 7.09204 22.414H7.59204ZM7.59204 25.8496V22.414H7.09204V25.8496H7.59204ZM7.71284 26.2264C7.63637 26.1179 7.59204 25.9886 7.59204 25.8496H7.09204C7.09204 26.0976 7.17174 26.3266 7.30415 26.5145L7.71284 26.2264ZM7.59204 26.8913C7.59204 26.7523 7.63637 26.623 7.71284 26.5145L7.30415 26.2264C7.17173 26.4143 7.09204 26.6433 7.09204 26.8913H7.59204ZM7.59204 30.3267V26.8913H7.09204V30.3267H7.59204ZM8.2752 30.9944C7.89486 30.9944 7.59204 30.6906 7.59204 30.3267H7.09204C7.09204 30.9746 7.62664 31.4944 8.2752 31.4944V30.9944ZM21.2191 30.9944H8.2752V31.4944H21.2191V30.9944ZM21.9023 30.3267C21.9023 30.6906 21.5995 30.9944 21.2191 30.9944V31.4944C21.8677 31.4944 22.4023 30.9746 22.4023 30.3267H21.9023ZM21.9023 26.8913V30.3267H22.4023V26.8913H21.9023ZM21.7815 26.5145C21.858 26.623 21.9023 26.7523 21.9023 26.8913H22.4023C22.4023 26.6433 22.3226 26.4143 22.1902 26.2264L21.7815 26.5145ZM21.815 26.1675C21.7982 26.1995 21.7898 26.2146 21.7815 26.2265L22.1902 26.5144C22.2202 26.4719 22.2429 26.428 22.2572 26.4009L21.815 26.1675ZM21.8224 26.1536L21.8152 26.1673L22.2571 26.4011L22.2644 26.3874L21.8224 26.1536ZM32.9336 26.0205H22.0434V26.5205H32.9336V26.0205ZM33.7247 25.2466C33.7247 25.6692 33.3736 26.0205 32.9336 26.0205V26.5205C33.6418 26.5205 34.2247 25.9533 34.2247 25.2466H33.7247ZM33.7247 13.4338V25.2466H34.2247V13.4338H33.7247ZM33.7247 9.97284V13.4338H34.2247V9.97284H33.7247ZM33.7247 9.97245V9.97284H34.2247V9.97245H33.7247ZM32.9322 9.19727C33.3728 9.19727 33.7247 9.54926 33.7247 9.97245H34.2247C34.2247 9.26525 33.6411 8.69727 32.9322 8.69727V9.19727ZM21.2191 30.7006C21.4228 30.7006 21.5952 30.5371 21.5952 30.3266H21.0952C21.0952 30.253 21.1546 30.2006 21.2191 30.2006V30.7006ZM8.27522 30.7006H21.2191V30.2006H8.27522V30.7006ZM7.89912 30.3266C7.89912 30.5371 8.0716 30.7006 8.27522 30.7006V30.2006C8.33975 30.2006 8.39912 30.253 8.39912 30.3266H7.89912ZM7.89912 26.8912V30.3266H8.39912V26.8912H7.89912ZM8.27522 26.5172C8.07156 26.5172 7.89912 26.6808 7.89912 26.8912H8.39912C8.39912 26.9648 8.33978 27.0172 8.27522 27.0172V26.5172ZM21.2191 26.5172H8.27522V27.0172H21.2191V26.5172ZM21.5952 26.8912C21.5952 26.6808 21.4228 26.5172 21.2191 26.5172V27.0172C21.1546 27.0172 21.0952 26.9648 21.0952 26.8912H21.5952ZM21.5952 30.3266V26.8912H21.0952V30.3266H21.5952ZM21.0952 25.8496C21.0952 25.776 21.1546 25.7236 21.2191 25.7236V26.2236C21.4228 26.2236 21.5952 26.06 21.5952 25.8496H21.0952ZM21.0952 22.414V25.8496H21.5952V22.414H21.0952ZM21.2191 22.54C21.1546 22.54 21.0952 22.4876 21.0952 22.414H21.5952C21.5952 22.2036 21.4228 22.04 21.2191 22.04V22.54ZM14.7479 22.54H21.2191V22.04H14.7479V22.54ZM14.795 22.5355L14.796 22.5353L14.6997 22.0447L14.6986 22.0449L14.795 22.5355ZM14.6975 22.5353L14.6986 22.5355L14.795 22.0449L14.7939 22.0447L14.6975 22.5353ZM8.27522 22.54H14.7457V22.04H8.27522V22.54ZM8.39912 22.414C8.39912 22.4876 8.33978 22.54 8.27522 22.54V22.04C8.07156 22.04 7.89912 22.2036 7.89912 22.414H8.39912ZM8.39912 25.8496V22.414H7.89912V25.8496H8.39912ZM8.27522 25.7236C8.33978 25.7236 8.39912 25.776 8.39912 25.8496H7.89912C7.89912 26.06 8.07156 26.2236 8.27522 26.2236V25.7236ZM21.2191 25.7236H8.27522V26.2236H21.2191V25.7236ZM32.9335 25.7268C33.1989 25.7268 33.4176 25.5177 33.4176 25.2467H32.9176C32.9176 25.2454 32.9179 25.2428 32.9193 25.2396C32.9206 25.2366 32.9224 25.234 32.9245 25.2319C32.9292 25.2273 32.9336 25.2268 32.9335 25.2268V25.7268ZM22.1523 25.7268H32.9335V25.2268H22.1523V25.7268ZM21.9023 22.414V25.4768H22.4023V22.414H21.9023ZM21.2191 21.7464C21.5995 21.7464 21.9023 22.0501 21.9023 22.414H22.4023C22.4023 21.7661 21.8677 21.2464 21.2191 21.2464V21.7464ZM15.1503 21.7464H21.2191V21.2464H15.1503V21.7464ZM14.9003 13.8307V21.4964H15.4003V13.8307H14.9003ZM33.1676 13.5807H15.1503V14.0807H33.1676V13.5807ZM33.4176 25.2467V13.8307H32.9176V25.2467H33.4176ZM33.1677 12.787H15.1508V13.287H33.1677V12.787ZM32.9177 9.97277V13.037H33.4177V9.97277H32.9177ZM32.9262 10.0345C32.927 10.0373 32.9247 10.0298 32.9228 10.0207C32.9205 10.0102 32.9177 9.99349 32.9177 9.97277H33.4177C33.4177 9.94912 33.4146 9.92965 33.4118 9.9164C33.4104 9.90986 33.409 9.9045 33.408 9.90096C33.4071 9.89769 33.4063 9.8948 33.4062 9.8945L32.9262 10.0345ZM32.9152 9.97422C32.9165 9.99264 32.9194 10.0077 32.9217 10.0177C32.9239 10.0267 32.9262 10.0346 32.9262 10.0346L33.4062 9.89441C33.4055 9.89214 33.4072 9.89763 33.4087 9.90433C33.4105 9.91198 33.413 9.92459 33.4141 9.94049L32.9152 9.97422ZM32.9229 9.9921C32.9236 9.99253 32.9218 9.99156 32.9196 9.98794C32.9172 9.98393 32.9156 9.97894 32.9153 9.97454L33.4141 9.94018C33.4031 9.78118 33.3155 9.65215 33.1984 9.57483L32.9229 9.9921ZM32.9337 9.99258C32.9275 9.99258 32.9226 9.99138 32.9201 9.99054C32.9183 9.98989 32.9198 9.99014 32.9254 9.99371L33.1959 9.57323C33.133 9.53272 33.0445 9.49258 32.9337 9.49258V9.99258ZM15.3843 9.99258H32.9337V9.49258H15.3843V9.99258ZM15.3872 9.9918C15.3854 9.99255 15.3842 9.99258 15.3843 9.99258V9.49258C15.319 9.49258 15.2561 9.50528 15.1983 9.52888L15.3872 9.9918ZM15.4008 9.97238C15.4008 9.9773 15.3991 9.98206 15.3969 9.98522C15.3951 9.98791 15.3931 9.98935 15.3912 9.99015L15.1943 9.53054C15.0252 9.60298 14.9008 9.7709 14.9008 9.97238H15.4008ZM15.4008 13.037V9.97238H14.9008V13.037H15.4008Z" fill="#B5B8D0"/>
<path d="M24.2723 11.4248H16.4252C16.1976 11.4248 16.0132 11.5635 16.0132 11.7345C16.0132 11.9055 16.1976 12.0442 16.4252 12.0442H24.2723C24.4998 12.0442 24.6843 11.9055 24.6843 11.7345C24.6843 11.5635 24.4998 11.4248 24.2723 11.4248Z" fill="#B5B8D0" stroke="#B5B8D0" stroke-width="0.5"/>
<path d="M31.6175 11.4248H31.3771C31.1015 11.4248 30.8779 11.5635 30.8779 11.7345C30.8779 11.9055 31.1015 12.0442 31.3771 12.0442H31.6175C31.8932 12.0442 32.1167 11.9055 32.1167 11.7345C32.1167 11.5635 31.8932 11.4248 31.6175 11.4248Z" fill="#B5B8D0" stroke="#B5B8D0" stroke-width="0.5"/>
<path d="M29.1399 11.4248H28.8996C28.6239 11.4248 28.4004 11.5635 28.4004 11.7345C28.4004 11.9055 28.6239 12.0442 28.8996 12.0442H29.1399C29.4156 12.0442 29.6391 11.9055 29.6391 11.7345C29.6391 11.5635 29.4156 11.4248 29.1399 11.4248Z" fill="#B5B8D0" stroke="#B5B8D0" stroke-width="0.5"/>
<path d="M27.2818 11.4248H27.0414C26.7657 11.4248 26.5422 11.5635 26.5422 11.7345C26.5422 11.9055 26.7657 12.0442 27.0414 12.0442H27.2818C27.5575 12.0442 27.781 11.9055 27.781 11.7345C27.781 11.5635 27.5575 11.4248 27.2818 11.4248Z" fill="#B5B8D0" stroke="#B5B8D0" stroke-width="0.5"/>
<path d="M20.8871 21.2086C20.9673 21.2926 21.0722 21.3346 21.1772 21.3346C21.2821 21.3346 21.387 21.2926 21.4671 21.2086C21.6274 21.0406 21.6274 20.7684 21.4671 20.6004L20.1 19.1668L21.4671 17.7332C21.6274 17.5652 21.6274 17.293 21.4671 17.125C21.3069 16.957 21.0474 16.957 20.8871 17.125L19.23 18.8627C19.0698 19.0307 19.0698 19.3029 19.23 19.4709L20.8871 21.2086Z" fill="#B5B8D0" stroke="#B5B8D0" stroke-width="0.5"/>
<path d="M26.6624 21.2086C26.7425 21.2926 26.8475 21.3346 26.9524 21.3346C27.0574 21.3346 27.1623 21.2926 27.2424 21.2086L28.8995 19.4709C29.0597 19.3029 29.0597 19.0307 28.8995 18.8627L27.2424 17.125C27.0822 16.957 26.8226 16.957 26.6624 17.125C26.5022 17.293 26.5022 17.5652 26.6624 17.7332L28.0295 19.1668L26.6624 20.6004C26.5022 20.7684 26.5022 21.0406 26.6624 21.2086Z" fill="#B5B8D0" stroke="#B5B8D0" stroke-width="0.5"/>
<path d="M22.4314 21.9162C22.4838 21.9418 22.5386 21.9539 22.5927 21.9539C22.7386 21.9539 22.8785 21.8654 22.9436 21.7149L25.2681 16.3434C25.3573 16.1371 25.2726 15.8931 25.079 15.7982C24.8856 15.7029 24.6562 15.7932 24.5668 15.9995L22.2423 21.371C22.1531 21.5773 22.2377 21.8213 22.4314 21.9162Z" fill="#B5B8D0" stroke="#B5B8D0" stroke-width="0.5"/>
<path d="M13.1258 23.812H8.99078C8.76436 23.812 8.58081 23.9507 8.58081 24.1217C8.58081 24.2927 8.76436 24.4314 8.99078 24.4314H13.1258C13.3522 24.4314 13.5357 24.2927 13.5357 24.1217C13.5357 23.9507 13.3522 23.812 13.1258 23.812Z" fill="#B5B8D0" stroke="#B5B8D0" stroke-width="0.5"/>
<path d="M19.2502 23.812H18.9695C18.7049 23.812 18.4905 23.9507 18.4905 24.1217C18.4905 24.2927 18.7049 24.4314 18.9695 24.4314H19.2502C19.5147 24.4314 19.7292 24.2927 19.7292 24.1217C19.7292 23.9507 19.5147 23.812 19.2502 23.812Z" fill="#B5B8D0" stroke="#B5B8D0" stroke-width="0.5"/>
<path d="M16.7729 23.812H16.4922C16.2277 23.812 16.0132 23.9507 16.0132 24.1217C16.0132 24.2927 16.2277 24.4314 16.4922 24.4314H16.7729C17.0374 24.4314 17.2519 24.2927 17.2519 24.1217C17.2519 23.9507 17.0374 23.812 16.7729 23.812Z" fill="#B5B8D0" stroke="#B5B8D0" stroke-width="0.5"/>
<path d="M13.1258 28.7668H8.99078C8.76436 28.7668 8.58081 28.9055 8.58081 29.0765C8.58081 29.2476 8.76436 29.3862 8.99078 29.3862H13.1258C13.3522 29.3862 13.5357 29.2476 13.5357 29.0765C13.5357 28.9055 13.3522 28.7668 13.1258 28.7668Z" fill="#B5B8D0" stroke="#B5B8D0" stroke-width="0.5"/>
<path d="M19.2502 28.7668H18.9695C18.7049 28.7668 18.4905 28.9055 18.4905 29.0765C18.4905 29.2476 18.7049 29.3862 18.9695 29.3862H19.2502C19.5147 29.3862 19.7292 29.2476 19.7292 29.0765C19.7292 28.9055 19.5147 28.7668 19.2502 28.7668Z" fill="#B5B8D0" stroke="#B5B8D0" stroke-width="0.5"/>
<path d="M16.7729 28.7668H16.4922C16.2277 28.7668 16.0132 28.9055 16.0132 29.0765C16.0132 29.2476 16.2277 29.3862 16.4922 29.3862H16.7729C17.0374 29.3862 17.2519 29.2476 17.2519 29.0765C17.2519 28.9055 17.0374 28.7668 16.7729 28.7668Z" fill="#B5B8D0" stroke="#B5B8D0" stroke-width="0.5"/>
</g>
<defs>
<filter id="filter0_d_1207_7726" x="-3.5" y="-4" width="50" height="50" filterUnits="userSpaceOnUse" color-interpolation-filters="sRGB">
<feFlood flood-opacity="0" result="BackgroundImageFix"/>
<feColorMatrix in="SourceAlpha" type="matrix" values="0 0 0 0 0 0 0 0 0 0 0 0 0 0 0 0 0 0 127 0" result="hardAlpha"/>
<feOffset dx="1" dy="1"/>
<feGaussianBlur stdDeviation="2.5"/>
<feComposite in2="hardAlpha" operator="out"/>
<feColorMatrix type="matrix" values="0 0 0 0 0.863281 0 0 0 0 0.870955 0 0 0 0 0.920833 0 0 0 0.51 0"/>
<feBlend mode="normal" in2="BackgroundImageFix" result="effect1_dropShadow_1207_7726"/>
<feBlend mode="normal" in="SourceGraphic" in2="effect1_dropShadow_1207_7726" result="shape"/>
</filter>
</defs>
</svg>
