<svg width="40" height="40" viewBox="0 0 40 40" fill="none" xmlns="http://www.w3.org/2000/svg">
<g filter="url(#filter0_d_1189_7581)">
<path d="M28.9488 20.4984L28.5273 20.1879L28.3671 19.6911C28.3022 19.4923 28.1767 19.3193 28.0085 19.1966C27.8403 19.0739 27.638 19.0079 27.4304 19.0079H26.9079L26.4864 18.6999C26.4592 18.68 26.4297 18.6626 26.4001 18.6452V13.5428C26.4039 13.5123 26.4039 13.4815 26.4001 13.4509C26.3917 13.4086 26.3776 13.3677 26.3582 13.3292L26.3335 13.2944C26.3123 13.2561 26.2857 13.2209 26.2547 13.1901L21.8179 8.71867C21.7879 8.68843 21.7539 8.66252 21.7169 8.64166L21.6897 8.62676C21.6514 8.60349 21.6099 8.58592 21.5665 8.57459C21.5346 8.57037 21.5023 8.57037 21.4704 8.57459H12.1039C11.7117 8.57459 11.3355 8.73162 11.0582 9.01114C10.7808 9.29066 10.625 9.66977 10.625 10.0651V29.9381C10.625 30.3334 10.7808 30.7125 11.0582 30.992C11.3355 31.2715 11.7117 31.4286 12.1039 31.4286H24.9212C25.3134 31.4286 25.6896 31.2715 25.9669 30.992C26.2443 30.7125 26.4001 30.3334 26.4001 29.9381V28.2737L27.1667 28.6588C27.2417 28.6963 27.325 28.7139 27.4086 28.71C27.4923 28.7061 27.5736 28.6808 27.6448 28.6364C27.7186 28.5935 27.7801 28.532 27.8233 28.458C27.8665 28.384 27.89 28.3 27.8913 28.2141V25.1089C28.007 25.0502 28.1101 24.9691 28.1947 24.8702C28.2793 24.7713 28.3437 24.6566 28.3843 24.5326L28.5445 24.0358L28.9488 23.7278C29.1174 23.6047 29.243 23.431 29.3077 23.2315C29.3723 23.032 29.3727 22.817 29.3086 22.6174L29.1459 22.1205L29.3086 21.6237C29.3761 21.422 29.3776 21.2038 29.3128 21.0012C29.248 20.7987 29.1204 20.6224 28.9488 20.4984ZM21.9633 10.2712L24.7166 13.046H22.2764C22.1934 13.046 22.1137 13.0128 22.055 12.9536C21.9963 12.8945 21.9633 12.8142 21.9633 12.7305V10.2712ZM24.9212 30.4349H12.1039C11.9732 30.4349 11.8478 30.3826 11.7553 30.2894C11.6629 30.1962 11.6109 30.0699 11.6109 29.9381V10.0651C11.6109 9.9333 11.6629 9.80693 11.7553 9.71376C11.8478 9.62058 11.9732 9.56824 12.1039 9.56824H20.9774V12.7305C20.9781 13.0775 21.1151 13.4101 21.3586 13.6555C21.6021 13.9009 21.9321 14.039 22.2764 14.0397H25.4141V18.6452C25.3846 18.6626 25.355 18.68 25.3279 18.6999L24.9064 19.0079H24.3838C24.1751 19.007 23.9714 19.0729 23.8022 19.1961C23.633 19.3194 23.507 19.4935 23.4423 19.6935L23.282 20.1904L22.8655 20.4984C22.6968 20.6215 22.5712 20.7952 22.5065 20.9947C22.4419 21.1942 22.4416 21.4091 22.5056 21.6088L22.6683 22.1056L22.5056 22.6025C22.4381 22.8041 22.4366 23.0223 22.5014 23.2249C22.5662 23.4275 22.6938 23.6038 22.8655 23.7278L23.287 24.0383L23.4472 24.5351C23.4878 24.6591 23.5522 24.7738 23.6368 24.8727C23.7214 24.9716 23.8245 25.0527 23.9402 25.1114V28.2166C23.9415 28.3024 23.965 28.3865 24.0082 28.4605C24.0514 28.5345 24.1129 28.596 24.1866 28.6389C24.2579 28.6833 24.3392 28.7086 24.4229 28.7125C24.5065 28.7164 24.5898 28.6988 24.6648 28.6613L25.4141 28.2737V29.9381C25.4141 30.0699 25.3622 30.1962 25.2698 30.2894C25.1773 30.3826 25.0519 30.4349 24.9212 30.4349ZM26.1265 27.0242C26.1036 27.0134 26.0797 27.005 26.055 26.9994H26.0254C25.991 26.9956 25.9563 26.9956 25.9219 26.9994C25.8875 26.9956 25.8528 26.9956 25.8184 26.9994H25.7888C25.7642 27.005 25.7402 27.0134 25.7173 27.0242L24.9212 27.4093V25.2182L25.3279 25.5163C25.4963 25.6396 25.699 25.7059 25.9071 25.7059C26.1152 25.7059 26.318 25.6396 26.4864 25.5163L26.8931 25.2182V27.3993L26.1265 27.0242ZM28.2093 22.4211L28.3695 22.9179L27.948 23.2309C27.7791 23.3537 27.6538 23.5278 27.5906 23.7278L27.4304 24.2246H26.9079C26.6998 24.2244 26.4971 24.2905 26.3286 24.4134L25.9071 24.7214L25.4856 24.4109C25.3168 24.2889 25.1141 24.2237 24.9064 24.2246H24.3838L24.2236 23.7278C24.1604 23.5278 24.0351 23.3537 23.8662 23.2309L23.4423 22.9204L23.6025 22.4236C23.6672 22.2234 23.6672 22.0077 23.6025 21.8075L23.4423 21.3107L23.8662 20.9952C24.0351 20.8725 24.1604 20.6983 24.2236 20.4984L24.3838 20.0016H24.9064C25.1144 20.0018 25.3171 19.9357 25.4856 19.8128L25.9071 19.5048L26.3286 19.8153C26.4971 19.9382 26.6998 20.0043 26.9079 20.0041H27.4304L27.5906 20.5009C27.6538 20.7008 27.7791 20.875 27.948 20.9977L28.372 21.3057L28.2118 21.8026C28.1457 22.0032 28.1448 22.2199 28.2093 22.4211Z" fill="#00EDAF"/>
<path d="M13.0899 13.046H18.759C18.8898 13.046 19.0152 12.9937 19.1076 12.9005C19.2001 12.8073 19.252 12.681 19.252 12.5492C19.252 12.4174 19.2001 12.2911 19.1076 12.1979C19.0152 12.1047 18.8898 12.0524 18.759 12.0524H13.0899C12.9591 12.0524 12.8337 12.1047 12.7413 12.1979C12.6488 12.2911 12.5969 12.4174 12.5969 12.5492C12.5969 12.681 12.6488 12.8073 12.7413 12.9005C12.8337 12.9937 12.9591 13.046 13.0899 13.046Z" fill="#00EDAF"/>
<path d="M21.4704 15.7786H13.0899C12.9591 15.7786 12.8337 15.8309 12.7413 15.9241C12.6488 16.0173 12.5969 16.1436 12.5969 16.2754C12.5969 16.4072 12.6488 16.5335 12.7413 16.6267C12.8337 16.7199 12.9591 16.7722 13.0899 16.7722H21.4704C21.6011 16.7722 21.7265 16.7199 21.819 16.6267C21.9114 16.5335 21.9633 16.4072 21.9633 16.2754C21.9633 16.1436 21.9114 16.0173 21.819 15.9241C21.7265 15.8309 21.6011 15.7786 21.4704 15.7786Z" fill="#00EDAF"/>
<path d="M21.4704 18.5732H13.0899C12.9591 18.5732 12.8337 18.6255 12.7413 18.7187C12.6488 18.8119 12.5969 18.9383 12.5969 19.07C12.5969 19.2018 12.6488 19.3282 12.7413 19.4213C12.8337 19.5145 12.9591 19.5669 13.0899 19.5669H21.4704C21.6011 19.5669 21.7265 19.5145 21.819 19.4213C21.9114 19.3282 21.9633 19.2018 21.9633 19.07C21.9633 18.9383 21.9114 18.8119 21.819 18.7187C21.7265 18.6255 21.6011 18.5732 21.4704 18.5732Z" fill="#00EDAF"/>
<path d="M25.9071 19.5048L25.9983 19.3781M25.9071 19.5048L25.4856 19.8128C25.3171 19.9357 25.1144 20.0018 24.9064 20.0016H24.3838L24.2236 20.4984C24.1604 20.6983 24.0351 20.8725 23.8662 20.9952L23.4423 21.3107L23.6025 21.8075C23.6672 22.0077 23.6672 22.2234 23.6025 22.4236L23.4423 22.9204L23.8662 23.2309C24.0351 23.3537 24.1604 23.5278 24.2236 23.7278L24.3838 24.2246H24.9064C25.1141 24.2237 25.3168 24.2889 25.4856 24.4109L25.9071 24.7214L26.3286 24.4134C26.4971 24.2905 26.6998 24.2244 26.9079 24.2246H27.4304L27.5906 23.7278C27.6538 23.5278 27.7791 23.3537 27.948 23.2309L28.3695 22.9179L28.2093 22.4211C28.1448 22.2199 28.1457 22.0032 28.2118 21.8026L28.372 21.3057L27.948 20.9977C27.7791 20.875 27.6538 20.7008 27.5906 20.5009L27.4304 20.0041H26.9079C26.6998 20.0043 26.4971 19.9382 26.3286 19.8153L25.9071 19.5048ZM28.9488 20.4984L28.5273 20.1879L28.367 19.6911C28.3022 19.4923 28.1767 19.3193 28.0085 19.1966C27.8403 19.0739 27.638 19.0079 27.4304 19.0079H26.9079L26.4864 18.6999C26.4592 18.68 26.4297 18.6626 26.4001 18.6452V13.5428C26.4039 13.5123 26.4039 13.4815 26.4001 13.4509C26.3917 13.4086 26.3776 13.3677 26.3582 13.3292L26.3335 13.2944C26.3123 13.2561 26.2857 13.2209 26.2547 13.1901L21.8179 8.71867C21.7879 8.68843 21.7539 8.66252 21.7169 8.64166L21.6897 8.62676C21.6514 8.60349 21.6099 8.58592 21.5665 8.57459C21.5346 8.57037 21.5023 8.57037 21.4704 8.57459H12.1039C11.7117 8.57459 11.3355 8.73162 11.0582 9.01114C10.7808 9.29066 10.625 9.66977 10.625 10.0651V29.9381C10.625 30.3334 10.7808 30.7125 11.0582 30.992C11.3355 31.2715 11.7117 31.4286 12.1039 31.4286H24.9212C25.3134 31.4286 25.6896 31.2715 25.9669 30.992C26.2443 30.7125 26.4001 30.3334 26.4001 29.9381V28.2737L27.1667 28.6588C27.2417 28.6963 27.325 28.7139 27.4086 28.71C27.4923 28.7061 27.5736 28.6808 27.6448 28.6364C27.7186 28.5935 27.7801 28.532 27.8233 28.458C27.8665 28.384 27.89 28.3 27.8913 28.2141V25.1089C28.007 25.0502 28.1101 24.9691 28.1947 24.8702C28.2793 24.7713 28.3437 24.6566 28.3843 24.5326L28.5445 24.0358L28.9488 23.7278C29.1174 23.6047 29.243 23.431 29.3077 23.2315C29.3723 23.032 29.3727 22.817 29.3086 22.6174L29.1459 22.1205L29.3086 21.6237C29.3761 21.422 29.3776 21.2038 29.3128 21.0012C29.248 20.7987 29.1204 20.6224 28.9488 20.4984ZM21.9633 10.2712L24.7166 13.046H22.2764C22.1934 13.046 22.1137 13.0128 22.055 12.9536C21.9963 12.8945 21.9633 12.8142 21.9633 12.7305V10.2712ZM24.9212 30.4349H12.1039C11.9732 30.4349 11.8478 30.3826 11.7553 30.2894C11.6629 30.1962 11.6109 30.0699 11.6109 29.9381V10.0651C11.6109 9.9333 11.6629 9.80693 11.7553 9.71376C11.8478 9.62058 11.9732 9.56824 12.1039 9.56824H20.9774V12.7305C20.9781 13.0775 21.1151 13.4101 21.3586 13.6555C21.6021 13.9009 21.9321 14.039 22.2764 14.0397H25.4141V18.6452C25.3846 18.6626 25.355 18.68 25.3279 18.6999L24.9064 19.0079H24.3838C24.1751 19.007 23.9714 19.0729 23.8022 19.1961C23.633 19.3194 23.507 19.4935 23.4423 19.6935L23.282 20.1904L22.8655 20.4984C22.6968 20.6215 22.5712 20.7952 22.5065 20.9947C22.4419 21.1942 22.4416 21.4091 22.5056 21.6088L22.6683 22.1056L22.5056 22.6025C22.4381 22.8041 22.4366 23.0223 22.5014 23.2249C22.5662 23.4275 22.6938 23.6038 22.8655 23.7278L23.287 24.0383L23.4472 24.5351C23.4878 24.6591 23.5522 24.7738 23.6368 24.8727C23.7214 24.9716 23.8245 25.0527 23.9402 25.1114V28.2166C23.9415 28.3024 23.965 28.3865 24.0082 28.4605C24.0514 28.5345 24.1129 28.596 24.1866 28.6389C24.2579 28.6833 24.3392 28.7086 24.4229 28.7125C24.5065 28.7164 24.5898 28.6988 24.6648 28.6613L25.4141 28.2737V29.9381C25.4141 30.0699 25.3622 30.1962 25.2698 30.2894C25.1773 30.3826 25.0519 30.4349 24.9212 30.4349ZM26.1265 27.0242C26.1036 27.0134 26.0797 27.005 26.055 26.9994H26.0254C25.991 26.9956 25.9563 26.9956 25.9219 26.9994C25.8875 26.9956 25.8528 26.9956 25.8184 26.9994H25.7888C25.7642 27.005 25.7402 27.0134 25.7173 27.0242L24.9212 27.4092V25.2182L25.3279 25.5163C25.4963 25.6396 25.699 25.7059 25.9071 25.7059C26.1152 25.7059 26.318 25.6396 26.4864 25.5163L26.8931 25.2182V27.3993L26.1265 27.0242ZM13.0899 13.046H18.759C18.8898 13.046 19.0152 12.9937 19.1076 12.9005C19.2001 12.8073 19.252 12.681 19.252 12.5492C19.252 12.4174 19.2001 12.2911 19.1076 12.1979C19.0152 12.1047 18.8898 12.0524 18.759 12.0524H13.0899C12.9591 12.0524 12.8337 12.1047 12.7413 12.1979C12.6488 12.2911 12.5969 12.4174 12.5969 12.5492C12.5969 12.681 12.6488 12.8073 12.7413 12.9005C12.8337 12.9937 12.9591 13.046 13.0899 13.046ZM21.4704 15.7786H13.0899C12.9591 15.7786 12.8337 15.8309 12.7413 15.9241C12.6488 16.0173 12.5969 16.1436 12.5969 16.2754C12.5969 16.4072 12.6488 16.5335 12.7413 16.6267C12.8337 16.7199 12.9591 16.7722 13.0899 16.7722H21.4704C21.6011 16.7722 21.7265 16.7199 21.819 16.6267C21.9114 16.5335 21.9633 16.4072 21.9633 16.2754C21.9633 16.1436 21.9114 16.0173 21.819 15.9241C21.7265 15.8309 21.6011 15.7786 21.4704 15.7786ZM21.4704 18.5732H13.0899C12.9591 18.5732 12.8337 18.6255 12.7413 18.7187C12.6488 18.8119 12.5969 18.9383 12.5969 19.07C12.5969 19.2018 12.6488 19.3282 12.7413 19.4213C12.8337 19.5145 12.9591 19.5669 13.0899 19.5669H21.4704C21.6011 19.5669 21.7265 19.5145 21.819 19.4213C21.9114 19.3282 21.9633 19.2018 21.9633 19.07C21.9633 18.9383 21.9114 18.8119 21.819 18.7187C21.7265 18.6255 21.6011 18.5732 21.4704 18.5732Z" stroke="#00EDAF" stroke-width="0.5"/>
</g>
<defs>
<filter id="filter0_d_1189_7581" x="-4" y="-4" width="50" height="50" filterUnits="userSpaceOnUse" color-interpolation-filters="sRGB">
<feFlood flood-opacity="0" result="BackgroundImageFix"/>
<feColorMatrix in="SourceAlpha" type="matrix" values="0 0 0 0 0 0 0 0 0 0 0 0 0 0 0 0 0 0 127 0" result="hardAlpha"/>
<feOffset dx="1" dy="1"/>
<feGaussianBlur stdDeviation="2.5"/>
<feComposite in2="hardAlpha" operator="out"/>
<feColorMatrix type="matrix" values="0 0 0 0 0.863281 0 0 0 0 0.870955 0 0 0 0 0.920833 0 0 0 0.51 0"/>
<feBlend mode="normal" in2="BackgroundImageFix" result="effect1_dropShadow_1189_7581"/>
<feBlend mode="normal" in="SourceGraphic" in2="effect1_dropShadow_1189_7581" result="shape"/>
</filter>
</defs>
</svg>
