<svg width="41" height="40" viewBox="0 0 41 40" fill="none" xmlns="http://www.w3.org/2000/svg">
<g filter="url(#filter0_d_2046_8253)">
<path d="M20.5 31C20.9707 30.9985 21.4257 30.8311 21.7851 30.5271C22.1445 30.2232 22.3851 29.8023 22.4648 29.3384C22.5444 28.8745 22.4579 28.3974 22.2205 27.9911C21.983 27.5847 21.6099 27.2751 21.1667 27.1167V18.3333C21.1667 18.1565 21.0964 17.987 20.9714 17.8619C20.8464 17.7369 20.6768 17.6667 20.5 17.6667C20.3232 17.6667 20.1536 17.7369 20.0286 17.8619C19.9036 17.987 19.8333 18.1565 19.8333 18.3333V27.1167C19.3901 27.2751 19.017 27.5847 18.7795 27.9911C18.5421 28.3974 18.4556 28.8745 18.5352 29.3384C18.6149 29.8023 18.8555 30.2232 19.2149 30.5271C19.5743 30.8311 20.0293 30.9985 20.5 31ZM20.5 28.3333C20.6319 28.3333 20.7607 28.3724 20.8704 28.4457C20.98 28.5189 21.0655 28.6231 21.1159 28.7449C21.1664 28.8667 21.1796 29.0007 21.1539 29.1301C21.1281 29.2594 21.0646 29.3782 20.9714 29.4714C20.8782 29.5646 20.7594 29.6281 20.6301 29.6539C20.5007 29.6796 20.3667 29.6664 20.2449 29.6159C20.1231 29.5655 20.0189 29.48 19.9457 29.3704C19.8724 29.2607 19.8333 29.1319 19.8333 29C19.8333 28.8232 19.9036 28.6536 20.0286 28.5286C20.1536 28.4036 20.3232 28.3333 20.5 28.3333Z" fill="#B5B8D0"/>
<path d="M18.5 23.781V20.3333C18.5 20.1565 18.4298 19.987 18.3047 19.8619C18.1797 19.7369 18.0101 19.6667 17.8333 19.6667C17.6565 19.6667 17.487 19.7369 17.3619 19.8619C17.2369 19.987 17.1667 20.1565 17.1667 20.3333V23.781C17.166 23.9577 17.0959 24.127 16.9713 24.2523L16.0267 25.197C15.5994 24.9923 15.1136 24.9452 14.655 25.0642C14.1964 25.1832 13.7947 25.4605 13.5209 25.8472C13.2472 26.2338 13.1189 26.7048 13.159 27.1769C13.199 27.6489 13.4047 28.0916 13.7397 28.4266C14.0747 28.7616 14.5174 28.9673 14.9895 29.0073C15.4615 29.0474 15.9325 28.9192 16.3192 28.6454C16.7058 28.3716 16.9832 27.9699 17.1021 27.5113C17.2211 27.0528 17.1741 26.5669 16.9693 26.1397L17.914 25.195C18.1003 25.0098 18.2481 24.7894 18.3487 24.5467C18.4493 24.304 18.5007 24.0437 18.5 23.781ZM15.1667 27.6667C15.0348 27.6667 14.9059 27.6276 14.7963 27.5543C14.6867 27.4811 14.6012 27.3769 14.5507 27.2551C14.5003 27.1333 14.4871 26.9993 14.5128 26.8699C14.5385 26.7406 14.602 26.6218 14.6953 26.5286C14.7885 26.4354 14.9073 26.3719 15.0366 26.3461C15.1659 26.3204 15.3 26.3336 15.4218 26.3841C15.5436 26.4345 15.6477 26.52 15.721 26.6296C15.7942 26.7393 15.8333 26.8681 15.8333 27C15.8333 27.1768 15.7631 27.3464 15.6381 27.4714C15.513 27.5964 15.3435 27.6667 15.1667 27.6667Z" fill="#B5B8D0"/>
<path d="M25.8333 29C26.1339 29.0008 26.4308 28.9339 26.702 28.8042C26.9732 28.6745 27.2116 28.4853 27.3996 28.2507C27.5875 28.0162 27.7202 27.7422 27.7878 27.4493C27.8553 27.1564 27.8559 26.8521 27.7896 26.5589C27.7233 26.2657 27.5918 25.9912 27.4048 25.7559C27.2178 25.5205 26.9802 25.3303 26.7096 25.1995C26.4389 25.0686 26.1423 25.0004 25.8417 25C25.5411 24.9996 25.2443 25.0669 24.9733 25.197L24.0287 24.2523C23.9041 24.127 23.834 23.9577 23.8333 23.781V20.3333C23.8333 20.1565 23.7631 19.987 23.6381 19.8619C23.513 19.7369 23.3435 19.6667 23.1667 19.6667C22.9899 19.6667 22.8203 19.7369 22.6953 19.8619C22.5702 19.987 22.5 20.1565 22.5 20.3333V23.781C22.4993 24.0437 22.5507 24.304 22.6513 24.5467C22.7519 24.7894 22.8997 25.0098 23.086 25.195L24.0307 26.1397C23.8842 26.4442 23.8174 26.7809 23.8367 27.1183C23.8559 27.4557 23.9605 27.7826 24.1407 28.0685C24.3209 28.3544 24.5707 28.5899 24.8668 28.7528C25.1628 28.9157 25.4954 29.0008 25.8333 29ZM26.5 27C26.5 27.1319 26.4609 27.2607 26.3876 27.3704C26.3144 27.48 26.2103 27.5655 26.0885 27.6159C25.9666 27.6664 25.8326 27.6796 25.7033 27.6539C25.574 27.6281 25.4552 27.5646 25.3619 27.4714C25.2687 27.3782 25.2052 27.2594 25.1795 27.1301C25.1538 27.0007 25.167 26.8667 25.2174 26.7449C25.2679 26.6231 25.3533 26.5189 25.463 26.4457C25.5726 26.3724 25.7015 26.3333 25.8333 26.3333C26.0101 26.3333 26.1797 26.4036 26.3047 26.5286C26.4298 26.6536 26.5 26.8232 26.5 27Z" fill="#B5B8D0"/>
<path d="M11.5 24.3333H15.1667C15.3435 24.3333 15.513 24.2631 15.6381 24.1381C15.7631 24.013 15.8333 23.8435 15.8333 23.6667C15.8333 23.4899 15.7631 23.3203 15.6381 23.1953C15.513 23.0702 15.3435 23 15.1667 23H11.5C11.3232 23 11.1536 22.9298 11.0286 22.8047C10.9036 22.6797 10.8333 22.5101 10.8333 22.3333V13.6667H30.1667V22.3333C30.1667 22.5101 30.0964 22.6797 29.9714 22.8047C29.8464 22.9298 29.6768 23 29.5 23H25.8333C25.6565 23 25.487 23.0702 25.3619 23.1953C25.2369 23.3203 25.1667 23.4899 25.1667 23.6667C25.1667 23.8435 25.2369 24.013 25.3619 24.1381C25.487 24.2631 25.6565 24.3333 25.8333 24.3333H29.5C30.0302 24.3327 30.5386 24.1218 30.9135 23.7469C31.2885 23.3719 31.4994 22.8636 31.5 22.3333V11C31.4994 10.4698 31.2885 9.96141 30.9135 9.58647C30.5386 9.21153 30.0302 9.00062 29.5 9H11.5C10.9698 9.00062 10.4614 9.21153 10.0865 9.58647C9.71153 9.96141 9.50062 10.4698 9.5 11V22.3333C9.50062 22.8636 9.71153 23.3719 10.0865 23.7469C10.4614 24.1218 10.9698 24.3327 11.5 24.3333ZM11.5 10.3333H29.5C29.6768 10.3333 29.8464 10.4036 29.9714 10.5286C30.0964 10.6536 30.1667 10.8232 30.1667 11V12.3333H10.8333V11C10.8333 10.8232 10.9036 10.6536 11.0286 10.5286C11.1536 10.4036 11.3232 10.3333 11.5 10.3333Z" fill="#B5B8D0"/>
<path d="M11.8333 12C12.2015 12 12.5 11.7015 12.5 11.3333C12.5 10.9651 12.2015 10.6667 11.8333 10.6667C11.4651 10.6667 11.1667 10.9651 11.1667 11.3333C11.1667 11.7015 11.4651 12 11.8333 12Z" fill="#B5B8D0"/>
<path d="M13.5 12C13.8682 12 14.1667 11.7015 14.1667 11.3333C14.1667 10.9651 13.8682 10.6667 13.5 10.6667C13.1318 10.6667 12.8333 10.9651 12.8333 11.3333C12.8333 11.7015 13.1318 12 13.5 12Z" fill="#B5B8D0"/>
<path d="M15.1667 12C15.5349 12 15.8333 11.7015 15.8333 11.3333C15.8333 10.9651 15.5349 10.6667 15.1667 10.6667C14.7985 10.6667 14.5 10.9651 14.5 11.3333C14.5 11.7015 14.7985 12 15.1667 12Z" fill="#B5B8D0"/>
</g>
<defs>
<filter id="filter0_d_2046_8253" x="-3.5" y="-4" width="50" height="50" filterUnits="userSpaceOnUse" color-interpolation-filters="sRGB">
<feFlood flood-opacity="0" result="BackgroundImageFix"/>
<feColorMatrix in="SourceAlpha" type="matrix" values="0 0 0 0 0 0 0 0 0 0 0 0 0 0 0 0 0 0 127 0" result="hardAlpha"/>
<feOffset dx="1" dy="1"/>
<feGaussianBlur stdDeviation="2.5"/>
<feComposite in2="hardAlpha" operator="out"/>
<feColorMatrix type="matrix" values="0 0 0 0 0.863281 0 0 0 0 0.870955 0 0 0 0 0.920833 0 0 0 0.51 0"/>
<feBlend mode="normal" in2="BackgroundImageFix" result="effect1_dropShadow_2046_8253"/>
<feBlend mode="normal" in="SourceGraphic" in2="effect1_dropShadow_2046_8253" result="shape"/>
</filter>
</defs>
</svg>
