<svg width="41" height="40" viewBox="0 0 41 40" fill="none" xmlns="http://www.w3.org/2000/svg">
<g filter="url(#filter0_d_2055_8419)">
<path fill-rule="evenodd" clip-rule="evenodd" d="M29.8356 14.8433H24.68V10.9329C24.6794 10.4204 24.4755 9.92909 24.113 9.56673C23.7506 9.20436 23.2592 9.00055 22.7467 9H12.4333C11.9208 9.00055 11.4294 9.20436 11.067 9.56673C10.7046 9.92909 10.5006 10.4204 10.5 10.9329V29.0671C10.5006 29.5796 10.7046 30.0709 11.067 30.4333C11.4294 30.7956 11.9208 30.9995 12.4333 31H22.7467C23.2592 30.9995 23.7506 30.7956 24.113 30.4333C24.4755 30.0709 24.6794 29.5796 24.68 29.0671V25.1567H29.8356C30.1775 25.1564 30.5053 25.0205 30.747 24.7788C30.9888 24.5371 31.1248 24.2093 31.1252 23.8674V16.1326C31.1248 15.7907 30.9888 15.4629 30.7471 15.2212C30.5053 14.9795 30.1775 14.8436 29.8356 14.8433ZM27.2667 23.8674H18.2248C18.1728 23.2034 17.8855 22.5797 17.4145 22.1087C16.9436 21.6377 16.3199 21.3503 15.6559 21.2982V18.7018C16.3199 18.6497 16.9436 18.3623 17.4145 17.8913C17.8855 17.4203 18.1728 16.7966 18.2248 16.1326H27.2667C27.3191 16.7965 27.6066 17.4199 28.0774 17.8909C28.5483 18.3618 29.1717 18.6494 29.8356 18.7018V21.2982C29.1717 21.3507 28.5483 21.6382 28.0774 22.1092C27.6065 22.5801 27.3191 23.2035 27.2667 23.8674ZM15.6559 16.1326H16.9297C16.8828 16.4538 16.7335 16.7512 16.504 16.9808C16.2745 17.2103 15.9771 17.3597 15.6559 17.4068L15.6559 16.1326ZM16.9297 23.8674H15.6559V22.5932C15.9771 22.6403 16.2745 22.7897 16.504 23.0192C16.7335 23.2488 16.8828 23.5463 16.9297 23.8674ZM29.8356 17.4068C29.5146 17.3595 29.2174 17.21 28.988 16.9805C28.7587 16.751 28.6095 16.4536 28.5625 16.1326H29.8356V17.4068ZM12.4333 10.2885H22.7467C22.9175 10.2891 23.0811 10.3572 23.2019 10.4779C23.3227 10.5986 23.3909 10.7622 23.3916 10.9329V12.2652H11.7885V10.9329C11.789 10.7621 11.8571 10.5984 11.9779 10.4777C12.0988 10.3569 12.2625 10.2889 12.4333 10.2885ZM22.7467 29.7115H12.4333C12.2625 29.7111 12.0988 29.6431 11.9779 29.5223C11.8571 29.4016 11.789 29.2379 11.7885 29.0671V27.7349H23.3916V29.0671C23.3909 29.2378 23.3227 29.4014 23.2019 29.5221C23.0811 29.6428 22.9175 29.7109 22.7467 29.7115ZM23.3916 26.4452H11.7885V13.5548H23.3916V14.8433H15.6559C15.3141 14.844 14.9866 14.98 14.7449 15.2217C14.5032 15.4633 14.367 15.7908 14.3663 16.1326V23.8674C14.367 24.2092 14.5032 24.5367 14.7449 24.7784C14.9866 25.02 15.3141 25.156 15.6559 25.1567H23.3916V26.4452ZM28.5626 23.8674C28.6095 23.5464 28.7587 23.2491 28.9881 23.0195C29.2174 22.79 29.5146 22.6405 29.8356 22.5932V23.8674L28.5626 23.8674ZM22.7467 17.4211C22.2367 17.4209 21.738 17.572 21.3139 17.8553C20.8897 18.1385 20.559 18.5411 20.3637 19.0123C20.1683 19.4835 20.1171 20.002 20.2164 20.5022C20.3157 21.0025 20.5612 21.4621 20.9217 21.8229C21.2822 22.1837 21.7416 22.4295 22.2418 22.5292C22.742 22.6289 23.2606 22.578 23.7319 22.383C24.2032 22.188 24.6061 21.8577 24.8896 21.4337C25.1732 21.0097 25.3246 20.5112 25.3249 20.0012C25.3242 19.3174 25.0524 18.6619 24.5691 18.1782C24.0858 17.6946 23.4305 17.4223 22.7467 17.4211ZM22.7467 21.2897C22.4915 21.2899 22.242 21.2144 22.0298 21.0728C21.8175 20.9312 21.652 20.7298 21.5543 20.4941C21.4565 20.2584 21.4309 19.999 21.4806 19.7487C21.5304 19.4984 21.6532 19.2685 21.8336 19.0881C22.0141 18.9076 22.244 18.7848 22.4942 18.7351C22.7445 18.6853 23.0039 18.711 23.2396 18.8087C23.4753 18.9065 23.6767 19.072 23.8184 19.2842C23.96 19.4965 24.0354 19.746 24.0352 20.0012C24.0346 20.3427 23.8987 20.6701 23.6572 20.9116C23.4157 21.1531 23.0883 21.2891 22.7467 21.2897Z" fill="#00EDAF"/>
</g>
<defs>
<filter id="filter0_d_2055_8419" x="-3.5" y="-4" width="50" height="50" filterUnits="userSpaceOnUse" color-interpolation-filters="sRGB">
<feFlood flood-opacity="0" result="BackgroundImageFix"/>
<feColorMatrix in="SourceAlpha" type="matrix" values="0 0 0 0 0 0 0 0 0 0 0 0 0 0 0 0 0 0 127 0" result="hardAlpha"/>
<feOffset dx="1" dy="1"/>
<feGaussianBlur stdDeviation="2.5"/>
<feComposite in2="hardAlpha" operator="out"/>
<feColorMatrix type="matrix" values="0 0 0 0 0.863281 0 0 0 0 0.870955 0 0 0 0 0.920833 0 0 0 0.51 0"/>
<feBlend mode="normal" in2="BackgroundImageFix" result="effect1_dropShadow_2055_8419"/>
<feBlend mode="normal" in="SourceGraphic" in2="effect1_dropShadow_2055_8419" result="shape"/>
</filter>
</defs>
</svg>
