<svg width="40" height="40" viewBox="0 0 40 40" fill="none" xmlns="http://www.w3.org/2000/svg">
<g filter="url(#filter0_d_1207_7750)">
<path d="M28.9488 20.4985L28.5273 20.188L28.3671 19.6912C28.3022 19.4924 28.1767 19.3194 28.0085 19.1967C27.8403 19.074 27.638 19.008 27.4304 19.008H26.9079L26.4864 18.7C26.4592 18.6801 26.4297 18.6627 26.4001 18.6454V13.543C26.4039 13.5124 26.4039 13.4816 26.4001 13.451C26.3917 13.4087 26.3776 13.3678 26.3582 13.3293L26.3335 13.2945C26.3123 13.2562 26.2857 13.221 26.2547 13.1902L21.8179 8.71877C21.7879 8.68854 21.7539 8.66263 21.7169 8.64177L21.6897 8.62686C21.6514 8.60359 21.6099 8.58602 21.5665 8.5747C21.5346 8.57048 21.5023 8.57048 21.4704 8.5747H12.1039C11.7117 8.5747 11.3355 8.73173 11.0582 9.01125C10.7808 9.29076 10.625 9.66987 10.625 10.0652V29.9382C10.625 30.3335 10.7808 30.7126 11.0582 30.9921C11.3355 31.2716 11.7117 31.4287 12.1039 31.4287H24.9212C25.3134 31.4287 25.6896 31.2716 25.9669 30.9921C26.2443 30.7126 26.4001 30.3335 26.4001 29.9382V28.2738L27.1667 28.6589C27.2417 28.6964 27.325 28.714 27.4086 28.7101C27.4923 28.7062 27.5736 28.6809 27.6448 28.6365C27.7186 28.5936 27.7801 28.5321 27.8233 28.4581C27.8665 28.3841 27.89 28.3001 27.8913 28.2142V25.1091C28.007 25.0503 28.1101 24.9692 28.1947 24.8703C28.2793 24.7714 28.3437 24.6567 28.3843 24.5327L28.5445 24.0359L28.9488 23.7279C29.1174 23.6048 29.243 23.4311 29.3077 23.2316C29.3723 23.0321 29.3727 22.8171 29.3086 22.6175L29.1459 22.1206L29.3086 21.6238C29.3761 21.4221 29.3776 21.2039 29.3128 21.0014C29.248 20.7988 29.1204 20.6225 28.9488 20.4985ZM21.9633 10.2714L24.7166 13.0461H22.2764C22.1934 13.0461 22.1137 13.0129 22.055 12.9537C21.9963 12.8946 21.9633 12.8143 21.9633 12.7306V10.2714ZM24.9212 30.435H12.1039C11.9732 30.435 11.8478 30.3827 11.7553 30.2895C11.6629 30.1963 11.6109 30.07 11.6109 29.9382V10.0652C11.6109 9.93341 11.6629 9.80704 11.7553 9.71386C11.8478 9.62069 11.9732 9.56835 12.1039 9.56835H20.9774V12.7306C20.9781 13.0776 21.1151 13.4102 21.3586 13.6556C21.6021 13.901 21.9321 14.0391 22.2764 14.0398H25.4141V18.6454C25.3846 18.6627 25.355 18.6801 25.3279 18.7L24.9064 19.008H24.3838C24.1751 19.0071 23.9714 19.073 23.8022 19.1963C23.633 19.3195 23.507 19.4936 23.4423 19.6937L23.282 20.1905L22.8655 20.4985C22.6968 20.6216 22.5712 20.7953 22.5065 20.9948C22.4419 21.1943 22.4416 21.4092 22.5056 21.6089L22.6683 22.1057L22.5056 22.6026C22.4381 22.8042 22.4366 23.0224 22.5014 23.225C22.5662 23.4276 22.6938 23.6039 22.8655 23.7279L23.287 24.0384L23.4472 24.5352C23.4878 24.6592 23.5522 24.7739 23.6368 24.8728C23.7214 24.9717 23.8245 25.0528 23.9402 25.1115V28.2167C23.9415 28.3026 23.965 28.3866 24.0082 28.4606C24.0514 28.5346 24.1129 28.5961 24.1866 28.639C24.2579 28.6834 24.3392 28.7087 24.4229 28.7126C24.5065 28.7165 24.5898 28.6989 24.6648 28.6614L25.4141 28.2738V29.9382C25.4141 30.07 25.3622 30.1963 25.2698 30.2895C25.1773 30.3827 25.0519 30.435 24.9212 30.435ZM26.1265 27.0243C26.1036 27.0135 26.0797 27.0051 26.055 26.9995H26.0254C25.991 26.9957 25.9563 26.9957 25.9219 26.9995C25.8875 26.9957 25.8528 26.9957 25.8184 26.9995H25.7888C25.7642 27.0051 25.7402 27.0135 25.7173 27.0243L24.9212 27.4094V25.2184L25.3279 25.5164C25.4963 25.6397 25.699 25.706 25.9071 25.706C26.1152 25.706 26.318 25.6397 26.4864 25.5164L26.8931 25.2184V27.3994L26.1265 27.0243ZM28.2093 22.4212L28.3695 22.9181L27.948 23.2311C27.7791 23.3538 27.6538 23.5279 27.5906 23.7279L27.4304 24.2247H26.9079C26.6998 24.2245 26.4971 24.2906 26.3286 24.4135L25.9071 24.7215L25.4856 24.411C25.3168 24.289 25.1141 24.2238 24.9064 24.2247H24.3838L24.2236 23.7279C24.1604 23.5279 24.0351 23.3538 23.8662 23.2311L23.4423 22.9205L23.6025 22.4237C23.6672 22.2235 23.6672 22.0078 23.6025 21.8076L23.4423 21.3108L23.8662 20.9953C24.0351 20.8726 24.1604 20.6985 24.2236 20.4985L24.3838 20.0017H24.9064C25.1144 20.0019 25.3171 19.9358 25.4856 19.8129L25.9071 19.5049L26.3286 19.8154C26.4971 19.9383 26.6998 20.0044 26.9079 20.0042H27.4304L27.5906 20.501C27.6538 20.7009 27.7791 20.8751 27.948 20.9978L28.372 21.3059L28.2118 21.8027C28.1457 22.0033 28.1448 22.22 28.2093 22.4212Z" fill="#B5B8D0"/>
<path d="M13.0899 13.0461H18.759C18.8898 13.0461 19.0152 12.9938 19.1076 12.9006C19.2001 12.8074 19.252 12.6811 19.252 12.5493C19.252 12.4175 19.2001 12.2912 19.1076 12.198C19.0152 12.1048 18.8898 12.0525 18.759 12.0525H13.0899C12.9591 12.0525 12.8337 12.1048 12.7413 12.198C12.6488 12.2912 12.5969 12.4175 12.5969 12.5493C12.5969 12.6811 12.6488 12.8074 12.7413 12.9006C12.8337 12.9938 12.9591 13.0461 13.0899 13.0461Z" fill="#B5B8D0"/>
<path d="M21.4704 15.7787H13.0899C12.9591 15.7787 12.8337 15.831 12.7413 15.9242C12.6488 16.0174 12.5969 16.1437 12.5969 16.2755C12.5969 16.4073 12.6488 16.5336 12.7413 16.6268C12.8337 16.72 12.9591 16.7723 13.0899 16.7723H21.4704C21.6011 16.7723 21.7265 16.72 21.819 16.6268C21.9114 16.5336 21.9633 16.4073 21.9633 16.2755C21.9633 16.1437 21.9114 16.0174 21.819 15.9242C21.7265 15.831 21.6011 15.7787 21.4704 15.7787Z" fill="#B5B8D0"/>
<path d="M21.4704 18.5733H13.0899C12.9591 18.5733 12.8337 18.6257 12.7413 18.7188C12.6488 18.812 12.5969 18.9384 12.5969 19.0701C12.5969 19.2019 12.6488 19.3283 12.7413 19.4214C12.8337 19.5146 12.9591 19.567 13.0899 19.567H21.4704C21.6011 19.567 21.7265 19.5146 21.819 19.4214C21.9114 19.3283 21.9633 19.2019 21.9633 19.0701C21.9633 18.9384 21.9114 18.812 21.819 18.7188C21.7265 18.6257 21.6011 18.5733 21.4704 18.5733Z" fill="#B5B8D0"/>
<path d="M25.9071 19.5049L25.9983 19.3782M25.9071 19.5049L25.4856 19.8129C25.3171 19.9358 25.1144 20.0019 24.9064 20.0017H24.3838L24.2236 20.4985C24.1604 20.6985 24.0351 20.8726 23.8662 20.9953L23.4423 21.3108L23.6025 21.8076C23.6672 22.0078 23.6672 22.2235 23.6025 22.4237L23.4423 22.9205L23.8662 23.2311C24.0351 23.3538 24.1604 23.5279 24.2236 23.7279L24.3838 24.2247H24.9064C25.1141 24.2238 25.3168 24.289 25.4856 24.411L25.9071 24.7215L26.3286 24.4135C26.4971 24.2906 26.6998 24.2245 26.9079 24.2247H27.4304L27.5906 23.7279C27.6538 23.5279 27.7791 23.3538 27.948 23.2311L28.3695 22.9181L28.2093 22.4212C28.1448 22.22 28.1457 22.0033 28.2118 21.8027L28.372 21.3059L27.948 20.9978C27.7791 20.8751 27.6538 20.7009 27.5906 20.501L27.4304 20.0042H26.9079C26.6998 20.0044 26.4971 19.9383 26.3286 19.8154L25.9071 19.5049ZM28.9488 20.4985L28.5273 20.188L28.367 19.6912C28.3022 19.4924 28.1767 19.3194 28.0085 19.1967C27.8403 19.074 27.638 19.008 27.4304 19.008H26.9079L26.4864 18.7C26.4592 18.6801 26.4297 18.6627 26.4001 18.6454V13.543C26.4039 13.5124 26.4039 13.4816 26.4001 13.451C26.3917 13.4087 26.3776 13.3678 26.3582 13.3293L26.3335 13.2945C26.3123 13.2562 26.2857 13.221 26.2547 13.1902L21.8179 8.71877C21.7879 8.68854 21.7539 8.66263 21.7169 8.64177L21.6897 8.62686C21.6514 8.60359 21.6099 8.58602 21.5665 8.5747C21.5346 8.57048 21.5023 8.57048 21.4704 8.5747H12.1039C11.7117 8.5747 11.3355 8.73173 11.0582 9.01125C10.7808 9.29076 10.625 9.66987 10.625 10.0652V29.9382C10.625 30.3335 10.7808 30.7126 11.0582 30.9921C11.3355 31.2716 11.7117 31.4287 12.1039 31.4287H24.9212C25.3134 31.4287 25.6896 31.2716 25.9669 30.9921C26.2443 30.7126 26.4001 30.3335 26.4001 29.9382V28.2738L27.1667 28.6589C27.2417 28.6964 27.325 28.714 27.4086 28.7101C27.4923 28.7062 27.5736 28.6809 27.6448 28.6365C27.7186 28.5936 27.7801 28.5321 27.8233 28.4581C27.8665 28.3841 27.89 28.3001 27.8913 28.2142V25.1091C28.007 25.0503 28.1101 24.9692 28.1947 24.8703C28.2793 24.7714 28.3437 24.6567 28.3843 24.5327L28.5445 24.0359L28.9488 23.7279C29.1174 23.6048 29.243 23.4311 29.3077 23.2316C29.3723 23.0321 29.3727 22.8171 29.3086 22.6175L29.1459 22.1206L29.3086 21.6238C29.3761 21.4221 29.3776 21.2039 29.3128 21.0014C29.248 20.7988 29.1204 20.6225 28.9488 20.4985ZM21.9633 10.2714L24.7166 13.0461H22.2764C22.1934 13.0461 22.1137 13.0129 22.055 12.9537C21.9963 12.8946 21.9633 12.8143 21.9633 12.7306V10.2714ZM24.9212 30.435H12.1039C11.9732 30.435 11.8478 30.3827 11.7553 30.2895C11.6629 30.1963 11.6109 30.07 11.6109 29.9382V10.0652C11.6109 9.93341 11.6629 9.80704 11.7553 9.71386C11.8478 9.62069 11.9732 9.56835 12.1039 9.56835H20.9774V12.7306C20.9781 13.0776 21.1151 13.4102 21.3586 13.6556C21.6021 13.901 21.9321 14.0391 22.2764 14.0398H25.4141V18.6454C25.3846 18.6627 25.355 18.6801 25.3279 18.7L24.9064 19.008H24.3838C24.1751 19.0071 23.9714 19.073 23.8022 19.1963C23.633 19.3195 23.507 19.4936 23.4423 19.6937L23.282 20.1905L22.8655 20.4985C22.6968 20.6216 22.5712 20.7953 22.5065 20.9948C22.4419 21.1943 22.4416 21.4092 22.5056 21.6089L22.6683 22.1057L22.5056 22.6026C22.4381 22.8042 22.4366 23.0224 22.5014 23.225C22.5662 23.4276 22.6938 23.6039 22.8655 23.7279L23.287 24.0384L23.4472 24.5352C23.4878 24.6592 23.5522 24.7739 23.6368 24.8728C23.7214 24.9717 23.8245 25.0528 23.9402 25.1115V28.2167C23.9415 28.3026 23.965 28.3866 24.0082 28.4606C24.0514 28.5346 24.1129 28.5961 24.1866 28.639C24.2579 28.6834 24.3392 28.7087 24.4229 28.7126C24.5065 28.7165 24.5898 28.6989 24.6648 28.6614L25.4141 28.2738V29.9382C25.4141 30.07 25.3622 30.1963 25.2698 30.2895C25.1773 30.3827 25.0519 30.435 24.9212 30.435ZM26.1265 27.0243C26.1036 27.0135 26.0797 27.0051 26.055 26.9995H26.0254C25.991 26.9957 25.9563 26.9957 25.9219 26.9995C25.8875 26.9957 25.8528 26.9957 25.8184 26.9995H25.7888C25.7642 27.0051 25.7402 27.0135 25.7173 27.0243L24.9212 27.4094V25.2184L25.3279 25.5164C25.4963 25.6397 25.699 25.706 25.9071 25.706C26.1152 25.706 26.318 25.6397 26.4864 25.5164L26.8931 25.2184V27.3994L26.1265 27.0243ZM13.0899 13.0461H18.759C18.8898 13.0461 19.0152 12.9938 19.1076 12.9006C19.2001 12.8074 19.252 12.6811 19.252 12.5493C19.252 12.4175 19.2001 12.2912 19.1076 12.198C19.0152 12.1048 18.8898 12.0525 18.759 12.0525H13.0899C12.9591 12.0525 12.8337 12.1048 12.7413 12.198C12.6488 12.2912 12.5969 12.4175 12.5969 12.5493C12.5969 12.6811 12.6488 12.8074 12.7413 12.9006C12.8337 12.9938 12.9591 13.0461 13.0899 13.0461ZM21.4704 15.7787H13.0899C12.9591 15.7787 12.8337 15.831 12.7413 15.9242C12.6488 16.0174 12.5969 16.1437 12.5969 16.2755C12.5969 16.4073 12.6488 16.5336 12.7413 16.6268C12.8337 16.72 12.9591 16.7723 13.0899 16.7723H21.4704C21.6011 16.7723 21.7265 16.72 21.819 16.6268C21.9114 16.5336 21.9633 16.4073 21.9633 16.2755C21.9633 16.1437 21.9114 16.0174 21.819 15.9242C21.7265 15.831 21.6011 15.7787 21.4704 15.7787ZM21.4704 18.5733H13.0899C12.9591 18.5733 12.8337 18.6257 12.7413 18.7188C12.6488 18.812 12.5969 18.9384 12.5969 19.0701C12.5969 19.2019 12.6488 19.3283 12.7413 19.4214C12.8337 19.5146 12.9591 19.567 13.0899 19.567H21.4704C21.6011 19.567 21.7265 19.5146 21.819 19.4214C21.9114 19.3283 21.9633 19.2019 21.9633 19.0701C21.9633 18.9384 21.9114 18.812 21.819 18.7188C21.7265 18.6257 21.6011 18.5733 21.4704 18.5733Z" stroke="#B5B8D0" stroke-width="0.5"/>
</g>
<defs>
<filter id="filter0_d_1207_7750" x="-4" y="-4" width="50" height="50" filterUnits="userSpaceOnUse" color-interpolation-filters="sRGB">
<feFlood flood-opacity="0" result="BackgroundImageFix"/>
<feColorMatrix in="SourceAlpha" type="matrix" values="0 0 0 0 0 0 0 0 0 0 0 0 0 0 0 0 0 0 127 0" result="hardAlpha"/>
<feOffset dx="1" dy="1"/>
<feGaussianBlur stdDeviation="2.5"/>
<feComposite in2="hardAlpha" operator="out"/>
<feColorMatrix type="matrix" values="0 0 0 0 0.863281 0 0 0 0 0.870955 0 0 0 0 0.920833 0 0 0 0.51 0"/>
<feBlend mode="normal" in2="BackgroundImageFix" result="effect1_dropShadow_1207_7750"/>
<feBlend mode="normal" in="SourceGraphic" in2="effect1_dropShadow_1207_7750" result="shape"/>
</filter>
</defs>
</svg>
