<svg width="41" height="40" viewBox="0 0 41 40" fill="none" xmlns="http://www.w3.org/2000/svg">
<g filter="url(#filter0_d_1207_7721)">
<path d="M20.5 7C13.8811 7 8.5 12.3811 8.5 19C8.5 25.6189 13.8811 31 20.5 31C27.1189 31 32.5 25.6189 32.5 19C32.5 12.3811 27.1189 7 20.5 7ZM23.0768 13.24C22.2432 13.3916 21.3842 13.4674 20.5 13.4674C19.6158 13.4674 18.7568 13.3916 17.9232 13.24C18.58 10.2589 19.6663 8.49053 20.5 8.49053C21.3337 8.49053 22.42 10.2589 23.0768 13.24ZM23.0516 8.81895C24.8705 9.27368 26.5126 10.2084 27.8263 11.4968C26.8663 12.1032 25.7547 12.5832 24.5421 12.9116C24.1884 11.2947 23.6832 9.88 23.0516 8.81895ZM17.3674 18.2421C17.3926 16.9537 17.4937 15.7663 17.6705 14.7053C18.6053 14.8568 19.54 14.9579 20.5253 14.9579C21.4853 14.9579 22.4453 14.8568 23.38 14.7053C23.5316 15.7663 23.6326 16.9537 23.6832 18.2421H17.3674ZM23.6326 19.7579C23.6074 21.0463 23.5063 22.2337 23.3547 23.2947C22.42 23.1432 21.4853 23.0421 20.5 23.0421C19.54 23.0421 18.58 23.1432 17.6453 23.2947C17.4937 22.2337 17.3926 21.0463 17.3674 19.7579H23.6326ZM16.4579 12.9116C15.2453 12.5832 14.1337 12.1032 13.1737 11.4968C14.4874 10.2084 16.1295 9.29895 17.9484 8.81895C17.3168 9.88 16.8116 11.2947 16.4579 12.9116ZM16.2053 14.4021C16.0032 15.64 15.9021 16.9537 15.8768 18.2674H10.0663C10.2179 16.1705 11.0011 14.2253 12.2137 12.6337C13.3253 13.3916 14.7147 13.9979 16.2053 14.4021ZM15.8516 19.7579C15.8768 21.0716 16.0032 22.36 16.18 23.6232C14.6895 24.0274 13.3253 24.6084 12.1632 25.3916C10.9505 23.8 10.1926 21.8547 10.0411 19.7579H15.8516ZM16.4579 25.0884C16.8116 26.7053 17.3168 28.1453 17.9484 29.1811C16.1295 28.7263 14.4874 27.7916 13.1737 26.5032C14.1337 25.8968 15.2453 25.4168 16.4579 25.0884ZM17.9232 24.76C18.7568 24.6084 19.6158 24.5326 20.5 24.5326C21.3842 24.5326 22.2432 24.6084 23.0768 24.76C22.42 27.7411 21.3337 29.5095 20.5 29.5095C19.6663 29.5095 18.58 27.7411 17.9232 24.76ZM24.5421 25.0884C25.7547 25.4168 26.8663 25.8968 27.8263 26.5284C26.5126 27.8168 24.8705 28.7263 23.0516 29.2063C23.6832 28.12 24.1884 26.7053 24.5421 25.0884ZM24.7947 23.5979C24.9968 22.36 25.0979 21.0463 25.1232 19.7326H30.9337C30.7821 21.8295 29.9989 23.7747 28.7863 25.3663C27.6495 24.6084 26.2853 24.0021 24.7947 23.5979ZM25.1484 18.2421C25.1232 16.9284 24.9968 15.64 24.82 14.3768C26.3105 13.9726 27.6747 13.3916 28.8368 12.6084C30.0495 14.2 30.8326 16.12 30.9842 18.2421H25.1484Z" fill="#B5B8D0"/>
</g>
<defs>
<filter id="filter0_d_1207_7721" x="-3.5" y="-4" width="50" height="50" filterUnits="userSpaceOnUse" color-interpolation-filters="sRGB">
<feFlood flood-opacity="0" result="BackgroundImageFix"/>
<feColorMatrix in="SourceAlpha" type="matrix" values="0 0 0 0 0 0 0 0 0 0 0 0 0 0 0 0 0 0 127 0" result="hardAlpha"/>
<feOffset dx="1" dy="1"/>
<feGaussianBlur stdDeviation="2.5"/>
<feComposite in2="hardAlpha" operator="out"/>
<feColorMatrix type="matrix" values="0 0 0 0 0.863281 0 0 0 0 0.870955 0 0 0 0 0.920833 0 0 0 0.51 0"/>
<feBlend mode="normal" in2="BackgroundImageFix" result="effect1_dropShadow_1207_7721"/>
<feBlend mode="normal" in="SourceGraphic" in2="effect1_dropShadow_1207_7721" result="shape"/>
</filter>
</defs>
</svg>
