<svg width="41" height="40" viewBox="0 0 41 40" fill="none" xmlns="http://www.w3.org/2000/svg">
<rect width="40" height="40" transform="translate(0.5)" fill="white"/>
<mask id="path-1-outside-1_2055_8535" maskUnits="userSpaceOnUse" x="8.5" y="10" width="13" height="10" fill="black">
<rect fill="white" x="8.5" y="10" width="13" height="10"/>
<path fill-rule="evenodd" clip-rule="evenodd" d="M9.5 12.3333C9.5 11.597 10.2036 11 11.0714 11H18.9286C19.7964 11 20.5 11.597 20.5 12.3333V17.6667C20.5 18.403 19.7964 19 18.9286 19H11.0714C10.2036 19 9.5 18.403 9.5 17.6667V12.3333ZM11.5 12C10.9477 12 10.5 12.4477 10.5 13V17C10.5 17.5523 10.9477 18 11.5 18H18.5C19.0523 18 19.5 17.5523 19.5 17V13C19.5 12.4477 19.0523 12 18.5 12H11.5Z"/>
</mask>
<path fill-rule="evenodd" clip-rule="evenodd" d="M9.5 12.3333C9.5 11.597 10.2036 11 11.0714 11H18.9286C19.7964 11 20.5 11.597 20.5 12.3333V17.6667C20.5 18.403 19.7964 19 18.9286 19H11.0714C10.2036 19 9.5 18.403 9.5 17.6667V12.3333ZM11.5 12C10.9477 12 10.5 12.4477 10.5 13V17C10.5 17.5523 10.9477 18 11.5 18H18.5C19.0523 18 19.5 17.5523 19.5 17V13C19.5 12.4477 19.0523 12 18.5 12H11.5Z" fill="#B5B8D0"/>
<path d="M11.0714 10.8C10.1252 10.8 9.3 11.4569 9.3 12.3333H9.7C9.7 11.737 10.2819 11.2 11.0714 11.2V10.8ZM18.9286 10.8H11.0714V11.2H18.9286V10.8ZM20.7 12.3333C20.7 11.4569 19.8748 10.8 18.9286 10.8V11.2C19.7181 11.2 20.3 11.737 20.3 12.3333H20.7ZM20.7 17.6667V12.3333H20.3V17.6667H20.7ZM18.9286 19.2C19.8748 19.2 20.7 18.5431 20.7 17.6667H20.3C20.3 18.263 19.7181 18.8 18.9286 18.8V19.2ZM11.0714 19.2H18.9286V18.8H11.0714V19.2ZM9.3 17.6667C9.3 18.5431 10.1252 19.2 11.0714 19.2V18.8C10.2819 18.8 9.7 18.263 9.7 17.6667H9.3ZM9.3 12.3333V17.6667H9.7V12.3333H9.3ZM10.7 13C10.7 12.5582 11.0582 12.2 11.5 12.2V11.8C10.8373 11.8 10.3 12.3373 10.3 13H10.7ZM10.7 17V13H10.3V17H10.7ZM11.5 17.8C11.0582 17.8 10.7 17.4418 10.7 17H10.3C10.3 17.6627 10.8373 18.2 11.5 18.2V17.8ZM18.5 17.8H11.5V18.2H18.5V17.8ZM19.3 17C19.3 17.4418 18.9418 17.8 18.5 17.8V18.2C19.1627 18.2 19.7 17.6627 19.7 17H19.3ZM19.3 13V17H19.7V13H19.3ZM18.5 12.2C18.9418 12.2 19.3 12.5582 19.3 13H19.7C19.7 12.3373 19.1627 11.8 18.5 11.8V12.2ZM11.5 12.2H18.5V11.8H11.5V12.2Z" fill="#B5B8D0" mask="url(#path-1-outside-1_2055_8535)"/>
<mask id="path-3-outside-2_2055_8535" maskUnits="userSpaceOnUse" x="8.5" y="19" width="12" height="10" fill="black">
<rect fill="white" x="8.5" y="19" width="12" height="10"/>
<path fill-rule="evenodd" clip-rule="evenodd" d="M9.5 21.3333C9.5 20.597 10.1396 20 10.9286 20H18.0714C18.8604 20 19.5 20.597 19.5 21.3333V26.6667C19.5 27.403 18.8604 28 18.0714 28H10.9286C10.1396 28 9.5 27.403 9.5 26.6667V21.3333ZM11.5 21C10.9477 21 10.5 21.4477 10.5 22V26C10.5 26.5523 10.9477 27 11.5 27H17.5C18.0523 27 18.5 26.5523 18.5 26V22C18.5 21.4477 18.0523 21 17.5 21H11.5Z"/>
</mask>
<path fill-rule="evenodd" clip-rule="evenodd" d="M9.5 21.3333C9.5 20.597 10.1396 20 10.9286 20H18.0714C18.8604 20 19.5 20.597 19.5 21.3333V26.6667C19.5 27.403 18.8604 28 18.0714 28H10.9286C10.1396 28 9.5 27.403 9.5 26.6667V21.3333ZM11.5 21C10.9477 21 10.5 21.4477 10.5 22V26C10.5 26.5523 10.9477 27 11.5 27H17.5C18.0523 27 18.5 26.5523 18.5 26V22C18.5 21.4477 18.0523 21 17.5 21H11.5Z" fill="#B5B8D0"/>
<path d="M10.9286 19.8C10.0424 19.8 9.3 20.4737 9.3 21.3333H9.7C9.7 20.7202 10.2368 20.2 10.9286 20.2V19.8ZM18.0714 19.8H10.9286V20.2H18.0714V19.8ZM19.7 21.3333C19.7 20.4737 18.9576 19.8 18.0714 19.8V20.2C18.7632 20.2 19.3 20.7202 19.3 21.3333H19.7ZM19.7 26.6667V21.3333H19.3V26.6667H19.7ZM18.0714 28.2C18.9576 28.2 19.7 27.5263 19.7 26.6667H19.3C19.3 27.2798 18.7632 27.8 18.0714 27.8V28.2ZM10.9286 28.2H18.0714V27.8H10.9286V28.2ZM9.3 26.6667C9.3 27.5263 10.0424 28.2 10.9286 28.2V27.8C10.2368 27.8 9.7 27.2798 9.7 26.6667H9.3ZM9.3 21.3333V26.6667H9.7V21.3333H9.3ZM10.7 22C10.7 21.5582 11.0582 21.2 11.5 21.2V20.8C10.8373 20.8 10.3 21.3373 10.3 22H10.7ZM10.7 26V22H10.3V26H10.7ZM11.5 26.8C11.0582 26.8 10.7 26.4418 10.7 26H10.3C10.3 26.6627 10.8373 27.2 11.5 27.2V26.8ZM17.5 26.8H11.5V27.2H17.5V26.8ZM18.3 26C18.3 26.4418 17.9418 26.8 17.5 26.8V27.2C18.1627 27.2 18.7 26.6627 18.7 26H18.3ZM18.3 22V26H18.7V22H18.3ZM17.5 21.2C17.9418 21.2 18.3 21.5582 18.3 22H18.7C18.7 21.3373 18.1627 20.8 17.5 20.8V21.2ZM11.5 21.2H17.5V20.8H11.5V21.2Z" fill="#B5B8D0" mask="url(#path-3-outside-2_2055_8535)"/>
<mask id="path-5-outside-3_2055_8535" maskUnits="userSpaceOnUse" x="20.5" y="19" width="12" height="10" fill="black">
<rect fill="white" x="20.5" y="19" width="12" height="10"/>
<path fill-rule="evenodd" clip-rule="evenodd" d="M21.5 21.3333C21.5 20.597 22.1396 20 22.9286 20H30.0714C30.8604 20 31.5 20.597 31.5 21.3333V26.6667C31.5 27.403 30.8604 28 30.0714 28H22.9286C22.1396 28 21.5 27.403 21.5 26.6667V21.3333ZM23.5 21C22.9477 21 22.5 21.4477 22.5 22V26C22.5 26.5523 22.9477 27 23.5 27H29.5C30.0523 27 30.5 26.5523 30.5 26V22C30.5 21.4477 30.0523 21 29.5 21H23.5Z"/>
</mask>
<path fill-rule="evenodd" clip-rule="evenodd" d="M21.5 21.3333C21.5 20.597 22.1396 20 22.9286 20H30.0714C30.8604 20 31.5 20.597 31.5 21.3333V26.6667C31.5 27.403 30.8604 28 30.0714 28H22.9286C22.1396 28 21.5 27.403 21.5 26.6667V21.3333ZM23.5 21C22.9477 21 22.5 21.4477 22.5 22V26C22.5 26.5523 22.9477 27 23.5 27H29.5C30.0523 27 30.5 26.5523 30.5 26V22C30.5 21.4477 30.0523 21 29.5 21H23.5Z" fill="#B5B8D0"/>
<path d="M22.9286 19.8C22.0424 19.8 21.3 20.4737 21.3 21.3333H21.7C21.7 20.7202 22.2368 20.2 22.9286 20.2V19.8ZM30.0714 19.8H22.9286V20.2H30.0714V19.8ZM31.7 21.3333C31.7 20.4737 30.9576 19.8 30.0714 19.8V20.2C30.7632 20.2 31.3 20.7202 31.3 21.3333H31.7ZM31.7 26.6667V21.3333H31.3V26.6667H31.7ZM30.0714 28.2C30.9576 28.2 31.7 27.5263 31.7 26.6667H31.3C31.3 27.2798 30.7632 27.8 30.0714 27.8V28.2ZM22.9286 28.2H30.0714V27.8H22.9286V28.2ZM21.3 26.6667C21.3 27.5263 22.0424 28.2 22.9286 28.2V27.8C22.2368 27.8 21.7 27.2798 21.7 26.6667H21.3ZM21.3 21.3333V26.6667H21.7V21.3333H21.3ZM22.7 22C22.7 21.5582 23.0582 21.2 23.5 21.2V20.8C22.8373 20.8 22.3 21.3373 22.3 22H22.7ZM22.7 26V22H22.3V26H22.7ZM23.5 26.8C23.0582 26.8 22.7 26.4418 22.7 26H22.3C22.3 26.6627 22.8373 27.2 23.5 27.2V26.8ZM29.5 26.8H23.5V27.2H29.5V26.8ZM30.3 26C30.3 26.4418 29.9418 26.8 29.5 26.8V27.2C30.1627 27.2 30.7 26.6627 30.7 26H30.3ZM30.3 22V26H30.7V22H30.3ZM29.5 21.2C29.9418 21.2 30.3 21.5582 30.3 22H30.7C30.7 21.3373 30.1627 20.8 29.5 20.8V21.2ZM23.5 21.2H29.5V20.8H23.5V21.2Z" fill="#B5B8D0" mask="url(#path-5-outside-3_2055_8535)"/>
<mask id="path-7-outside-4_2055_8535" maskUnits="userSpaceOnUse" x="20.5" y="9" width="13" height="11" fill="black">
<rect fill="white" x="20.5" y="9" width="13" height="11"/>
<path fill-rule="evenodd" clip-rule="evenodd" d="M21.5 11.5C21.5 10.6716 22.2036 10 23.0714 10H30.9286C31.7964 10 32.5 10.6716 32.5 11.5V17.5C32.5 18.3284 31.7964 19 30.9286 19H23.0714C22.2036 19 21.5 18.3284 21.5 17.5V11.5ZM23.5 11C22.9477 11 22.5 11.4477 22.5 12V17C22.5 17.5523 22.9477 18 23.5 18H30.5C31.0523 18 31.5 17.5523 31.5 17V12C31.5 11.4477 31.0523 11 30.5 11H23.5Z"/>
</mask>
<path fill-rule="evenodd" clip-rule="evenodd" d="M21.5 11.5C21.5 10.6716 22.2036 10 23.0714 10H30.9286C31.7964 10 32.5 10.6716 32.5 11.5V17.5C32.5 18.3284 31.7964 19 30.9286 19H23.0714C22.2036 19 21.5 18.3284 21.5 17.5V11.5ZM23.5 11C22.9477 11 22.5 11.4477 22.5 12V17C22.5 17.5523 22.9477 18 23.5 18H30.5C31.0523 18 31.5 17.5523 31.5 17V12C31.5 11.4477 31.0523 11 30.5 11H23.5Z" fill="#B5B8D0"/>
<path d="M23.0714 9.8C22.102 9.8 21.3 10.5525 21.3 11.5H21.7C21.7 10.7907 22.3051 10.2 23.0714 10.2V9.8ZM30.9286 9.8H23.0714V10.2H30.9286V9.8ZM32.7 11.5C32.7 10.5525 31.898 9.8 30.9286 9.8V10.2C31.6949 10.2 32.3 10.7907 32.3 11.5H32.7ZM32.7 17.5V11.5H32.3V17.5H32.7ZM30.9286 19.2C31.898 19.2 32.7 18.4475 32.7 17.5H32.3C32.3 18.2093 31.6949 18.8 30.9286 18.8V19.2ZM23.0714 19.2H30.9286V18.8H23.0714V19.2ZM21.3 17.5C21.3 18.4476 22.102 19.2 23.0714 19.2V18.8C22.3051 18.8 21.7 18.2093 21.7 17.5H21.3ZM21.3 11.5V17.5H21.7V11.5H21.3ZM22.7 12C22.7 11.5582 23.0582 11.2 23.5 11.2V10.8C22.8373 10.8 22.3 11.3373 22.3 12H22.7ZM22.7 17V12H22.3V17H22.7ZM23.5 17.8C23.0582 17.8 22.7 17.4418 22.7 17H22.3C22.3 17.6627 22.8373 18.2 23.5 18.2V17.8ZM30.5 17.8H23.5V18.2H30.5V17.8ZM31.3 17C31.3 17.4418 30.9418 17.8 30.5 17.8V18.2C31.1627 18.2 31.7 17.6627 31.7 17H31.3ZM31.3 12V17H31.7V12H31.3ZM30.5 11.2C30.9418 11.2 31.3 11.5582 31.3 12H31.7C31.7 11.3373 31.1627 10.8 30.5 10.8V11.2ZM23.5 11.2H30.5V10.8H23.5V11.2Z" fill="#B5B8D0" mask="url(#path-7-outside-4_2055_8535)"/>
<path d="M22.4999 17C24.9266 17 27.1144 18.4618 28.0431 20.7038C28.9718 22.9459 28.4585 25.5265 26.7425 27.2425C25.0265 28.9585 22.4459 29.4718 20.2039 28.5431C17.9618 27.6144 16.5 25.4267 16.5 22.9999C16.5038 19.6878 19.1878 17.0038 22.4999 17Z" fill="white"/>
<rect x="24.5" y="27.1213" width="3" height="9.55697" transform="rotate(-45 24.5 27.1213)" fill="white"/>
<path d="M22.5515 28.251C23.6351 28.2516 24.6904 27.9118 25.5691 27.2811L29.1851 30.899L29.1851 30.8991C29.4776 31.1913 29.9369 31.2332 30.2774 30.9988L30.2833 30.9948L30.2887 30.9902C30.3617 30.9291 30.4291 30.8616 30.4902 30.7887L30.4947 30.7832L30.4988 30.7774C30.7332 30.4367 30.6914 29.9772 30.3992 29.6845L30.3992 29.6845L26.7828 26.0661C28.1497 24.1456 28.0554 21.5366 26.5384 19.7182C24.9935 17.8664 22.3785 17.3206 20.2224 18.4C18.0662 19.4794 16.9351 21.9005 17.4901 24.2478C18.0451 26.5952 20.1406 28.2526 22.5515 28.251ZM22.5515 28.251C22.5516 28.251 22.5516 28.251 22.5516 28.251L22.5515 28.101L22.5514 28.251C22.5515 28.251 22.5515 28.251 22.5515 28.251Z" fill="#B5B8D0" stroke="#B5B8D0" stroke-width="0.3"/>
<path d="M22.4999 19C24.1178 19 25.5763 19.9746 26.1954 21.4692C26.8145 22.9639 26.4723 24.6843 25.3283 25.8283C24.1844 26.9723 22.4639 27.3145 20.9692 26.6954C19.4746 26.0763 18.5 24.6178 18.5 22.9999C18.5026 20.7919 20.2919 19.0026 22.4999 19Z" fill="white"/>
</svg>
