<svg width="41" height="40" viewBox="0 0 41 40" fill="none" xmlns="http://www.w3.org/2000/svg">
<g filter="url(#filter0_d_1189_7548)">
<path d="M27.3529 22.7059C26.2361 22.7059 25.1443 23.0371 24.2156 23.6576C23.2869 24.2781 22.5632 25.16 22.1357 26.1919C21.7083 27.2238 21.5965 28.3592 21.8144 29.4546C22.0323 30.55 22.5701 31.5563 23.3599 32.346C24.1496 33.1358 25.1558 33.6736 26.2513 33.8915C27.3467 34.1094 28.4821 33.9976 29.514 33.5701C30.5458 33.1427 31.4278 32.4189 32.0483 31.4903C32.6688 30.5616 33 29.4698 33 28.3529C33 26.8552 32.405 25.4189 31.346 24.3599C30.287 23.3008 28.8506 22.7059 27.3529 22.7059ZM27.3529 32.5882C26.5153 32.5882 25.6964 32.3398 24.9999 31.8745C24.3034 31.4091 23.7606 30.7476 23.44 29.9737C23.1195 29.1998 23.0356 28.3482 23.199 27.5267C23.3624 26.7051 23.7658 25.9504 24.3581 25.3581C24.9505 24.7658 25.7051 24.3624 26.5267 24.199C27.3482 24.0356 28.1998 24.1195 28.9737 24.44C29.7476 24.7606 30.4091 25.3034 30.8745 25.9999C31.3398 26.6964 31.5882 27.5153 31.5882 28.3529C31.5882 29.4762 31.142 30.5535 30.3477 31.3477C29.5535 32.142 28.4762 32.5882 27.3529 32.5882Z" fill="#57BFFF"/>
<path d="M10.4118 24.4071L16.4118 18.4071L22.0588 24.0541L29.4706 16.6424V20.7718C29.4706 21.1616 29.7866 21.4776 30.1765 21.4776V21.4776C30.5663 21.4776 30.8824 21.1616 30.8824 20.7718V10.7716C30.8824 10.3455 30.5369 10 30.1107 10H10C9.44772 10 9 10.4477 9 11V29.0491C9 29.4443 9.32039 29.7647 9.71561 29.7647H18.9388C19.3287 29.7647 19.6447 29.4487 19.6447 29.0588V29.0588C19.6447 28.669 19.3287 28.3529 18.9388 28.3529H10.4118V24.4071ZM29.4706 11.4118V14.6518L22.0588 22.0635L16.4118 16.4165L10.4118 22.4165V11.4118H29.4706Z" fill="#57BFFF"/>
<path d="M23.1176 17.0588C23.5365 17.0588 23.9459 16.9346 24.2941 16.7019C24.6424 16.4692 24.9138 16.1385 25.0741 15.7516C25.2344 15.3646 25.2763 14.9388 25.1946 14.528C25.1129 14.1173 24.9112 13.7399 24.615 13.4438C24.3189 13.1476 23.9416 12.9459 23.5308 12.8642C23.12 12.7825 22.6942 12.8244 22.3073 12.9847C21.9203 13.145 21.5896 13.4164 21.3569 13.7647C21.1242 14.1129 21 14.5223 21 14.9412C21 15.5028 21.2231 16.0414 21.6202 16.4386C22.0174 16.8357 22.556 17.0588 23.1176 17.0588ZM23.1176 14.2353C23.2573 14.2353 23.3937 14.2767 23.5098 14.3543C23.6259 14.4318 23.7164 14.5421 23.7698 14.671C23.8232 14.8 23.8372 14.942 23.81 15.0789C23.7827 15.2158 23.7155 15.3416 23.6168 15.4403C23.5181 15.539 23.3923 15.6063 23.2554 15.6335C23.1184 15.6607 22.9765 15.6468 22.8475 15.5933C22.7185 15.5399 22.6083 15.4494 22.5307 15.3333C22.4532 15.2173 22.4118 15.0808 22.4118 14.9412C22.4118 14.754 22.4861 14.5744 22.6185 14.442C22.7509 14.3097 22.9304 14.2353 23.1176 14.2353Z" fill="#57BFFF"/>
<path d="M29.4706 28.3529C29.4706 27.9631 29.1546 27.6471 28.7647 27.6471H25.9412C25.5513 27.6471 25.2353 27.9631 25.2353 28.3529V28.3529C25.2353 28.7428 25.5513 29.0588 25.9412 29.0588H28.7647C29.1546 29.0588 29.4706 28.7428 29.4706 28.3529V28.3529Z" fill="#57BFFF"/>
</g>
<defs>
<filter id="filter0_d_1189_7548" x="-3.5" y="-4" width="50" height="50" filterUnits="userSpaceOnUse" color-interpolation-filters="sRGB">
<feFlood flood-opacity="0" result="BackgroundImageFix"/>
<feColorMatrix in="SourceAlpha" type="matrix" values="0 0 0 0 0 0 0 0 0 0 0 0 0 0 0 0 0 0 127 0" result="hardAlpha"/>
<feOffset dx="1" dy="1"/>
<feGaussianBlur stdDeviation="2.5"/>
<feComposite in2="hardAlpha" operator="out"/>
<feColorMatrix type="matrix" values="0 0 0 0 0.863281 0 0 0 0 0.870955 0 0 0 0 0.920833 0 0 0 0.51 0"/>
<feBlend mode="normal" in2="BackgroundImageFix" result="effect1_dropShadow_1189_7548"/>
<feBlend mode="normal" in="SourceGraphic" in2="effect1_dropShadow_1189_7548" result="shape"/>
</filter>
</defs>
</svg>
