<svg width="41" height="40" viewBox="0 0 41 40" fill="none" xmlns="http://www.w3.org/2000/svg">
<g filter="url(#filter0_d_1207_7717)">
<path d="M29.644 8.57153H11.5649C10.1444 8.57153 8.98218 9.72983 8.98218 11.1455V26.0747C8.98218 27.4905 10.1444 28.6488 11.5649 28.6488H18.7965V29.1636C18.7965 29.3437 18.8999 29.4982 19.0548 29.6011C19.2098 29.7041 19.3906 29.7041 19.5455 29.6269L21.1727 28.8289L22.3349 31.1455C22.3865 31.2742 22.5157 31.3515 22.6448 31.4029C22.6965 31.4287 22.7481 31.4287 22.7998 31.4287C22.8773 31.4287 22.9547 31.4029 23.0322 31.3772L25.3308 30.2189C25.5891 30.0902 25.6924 29.7813 25.5633 29.5239L25.1242 28.6488H29.644C31.0645 28.6488 32.2267 27.4905 32.2267 26.0747V11.1455C32.2267 9.72983 31.0645 8.57153 29.644 8.57153ZM23.0064 30.2189L21.8442 27.928C21.7409 27.7479 21.5601 27.6449 21.3793 27.6449C21.3018 27.6449 21.2243 27.6706 21.1468 27.6964L19.8296 28.3399V22.1623L24.7885 25.8688L23.4455 26.5381C23.1872 26.6668 23.0839 26.9757 23.213 27.2331L24.3752 29.5497L23.0064 30.2189ZM31.1936 26.0747C31.1936 26.9242 30.4963 27.6192 29.644 27.6192H24.6077L24.4011 27.2073L26.0282 26.4094C26.1831 26.3322 26.2865 26.1777 26.3123 25.9975C26.3381 25.8174 26.2606 25.6372 26.1057 25.5342L19.6488 20.6951C19.4939 20.5664 19.2873 20.5664 19.1065 20.6436C18.9257 20.7208 18.8224 20.901 18.8224 21.1069V27.6192H11.5649C10.7126 27.6192 10.0153 26.9242 10.0153 26.0747V14.7491H31.1936V26.0747ZM31.1936 13.7195H10.0153V11.1455C10.0153 10.2961 10.7126 9.60113 11.5649 9.60113H29.644C30.4963 9.60113 31.1936 10.2961 31.1936 11.1455V13.7195ZM12.598 11.6603C12.598 11.9435 12.3656 12.1751 12.0815 12.1751C11.7974 12.1751 11.5649 11.9435 11.5649 11.6603C11.5649 11.3772 11.7974 11.1455 12.0815 11.1455C12.3656 11.1455 12.598 11.3772 12.598 11.6603ZM15.1807 11.6603C15.1807 11.9435 14.9483 12.1751 14.6642 12.1751C14.3801 12.1751 14.1476 11.9435 14.1476 11.6603C14.1476 11.3772 14.3801 11.1455 14.6642 11.1455C14.9483 11.1455 15.1807 11.3772 15.1807 11.6603ZM17.7635 11.6603C17.7635 11.9435 17.531 12.1751 17.2469 12.1751C16.9628 12.1751 16.7304 11.9435 16.7304 11.6603C16.7304 11.3772 16.9628 11.1455 17.2469 11.1455C17.531 11.1455 17.7635 11.3772 17.7635 11.6603ZM17.2469 18.1211C17.1178 17.8637 17.2211 17.5548 17.4794 17.4261C17.7376 17.2974 18.0476 17.4004 18.1767 17.6578L18.6416 18.5844C18.7707 18.8418 18.6674 19.1507 18.4091 19.2794C18.3317 19.3051 18.2542 19.3309 18.1767 19.3309C17.9959 19.3309 17.8151 19.2279 17.7118 19.0477L17.2469 18.1211ZM22.3607 20.5921C22.2316 20.3347 22.3349 20.0258 22.5932 19.8971L23.5229 19.4338C23.7812 19.3051 24.0911 19.4081 24.2203 19.6655C24.3494 19.9229 24.2461 20.2318 23.9878 20.3605L23.058 20.8238C22.9806 20.8495 22.9031 20.8753 22.8256 20.8753C22.6448 20.901 22.464 20.7723 22.3607 20.5921ZM17.0661 23.2433C17.1953 23.5007 17.0919 23.8096 16.8337 23.9383L15.9039 24.4016C15.8264 24.4274 15.7489 24.4531 15.6714 24.4531C15.4907 24.4531 15.3099 24.3502 15.2066 24.17C15.0774 23.9126 15.1807 23.6037 15.439 23.475L16.3688 23.0117C16.6271 22.883 16.937 22.9859 17.0661 23.2433ZM20.3204 18.4557L20.6561 17.4776C20.7336 17.1944 21.0435 17.0657 21.3018 17.143C21.5601 17.2202 21.715 17.5291 21.6375 17.7865L21.3018 18.7646C21.2243 18.9705 21.0177 19.1249 20.8111 19.1249C20.7594 19.1249 20.7078 19.1249 20.6561 19.0992C20.3978 19.022 20.2429 18.7388 20.3204 18.4557ZM14.9483 20.3347C15.0258 20.0516 15.3357 19.9229 15.594 20.0001L16.5754 20.3347C16.8337 20.4119 16.9886 20.7208 16.9112 20.9782C16.8337 21.1841 16.6271 21.3386 16.4204 21.3386C16.3688 21.3386 16.3171 21.3386 16.2655 21.3128L15.284 20.9782C14.9999 20.901 14.845 20.6179 14.9483 20.3347Z" fill="#B5B8D0" stroke="#B5B8D0" stroke-width="0.5"/>
</g>
<defs>
<filter id="filter0_d_1207_7717" x="-3.5" y="-4" width="50" height="50" filterUnits="userSpaceOnUse" color-interpolation-filters="sRGB">
<feFlood flood-opacity="0" result="BackgroundImageFix"/>
<feColorMatrix in="SourceAlpha" type="matrix" values="0 0 0 0 0 0 0 0 0 0 0 0 0 0 0 0 0 0 127 0" result="hardAlpha"/>
<feOffset dx="1" dy="1"/>
<feGaussianBlur stdDeviation="2.5"/>
<feComposite in2="hardAlpha" operator="out"/>
<feColorMatrix type="matrix" values="0 0 0 0 0.863281 0 0 0 0 0.870955 0 0 0 0 0.920833 0 0 0 0.51 0"/>
<feBlend mode="normal" in2="BackgroundImageFix" result="effect1_dropShadow_1207_7717"/>
<feBlend mode="normal" in="SourceGraphic" in2="effect1_dropShadow_1207_7717" result="shape"/>
</filter>
</defs>
</svg>
