<svg width="40" height="40" viewBox="0 0 40 40" fill="none" xmlns="http://www.w3.org/2000/svg">
<g filter="url(#filter0_d_1189_7585)">
<path d="M11.8085 21.6015C13.0612 21.6015 14.0805 20.5825 14.0805 19.3298C14.0805 18.0771 13.0612 17.0573 11.8085 17.0569C10.5558 17.0569 9.53642 18.0767 9.53642 19.3298C9.53642 20.5825 10.5558 21.6015 11.8085 21.6015ZM11.8081 18.4365C12.3004 18.4365 12.7006 18.8375 12.7006 19.3294C12.7006 19.8213 12.3004 20.2211 11.8081 20.2211C11.3157 20.2211 10.9156 19.8213 10.9156 19.3294C10.9164 18.837 11.3165 18.4365 11.8081 18.4365Z" fill="#EEBB25"/>
<path d="M12.5505 22.8937H11.0661C9.54294 22.8937 8.30371 24.135 8.30371 25.6594V27.8817C8.30371 28.2626 8.6125 28.5714 8.99349 28.5714C9.37448 28.5714 9.68326 28.2618 9.68326 27.8817V25.6594C9.68326 24.8953 10.3037 24.2737 11.0657 24.2737H12.5501C13.3141 24.2737 13.9353 24.8953 13.9353 25.6594V27.8817C13.9353 28.2626 14.2441 28.5714 14.6251 28.5714C15.0061 28.5714 15.3149 28.2618 15.3149 27.8817V25.6594C15.3153 24.135 14.0748 22.8937 12.5505 22.8937Z" fill="#EEBB25"/>
<path d="M20.2139 21.6015C21.4666 21.6015 22.4855 20.5825 22.4855 19.3298C22.4855 18.0771 21.4666 17.0573 20.2139 17.0569C18.9612 17.0569 17.9418 18.0767 17.9418 19.3298C17.9418 20.5825 18.9612 21.6015 20.2139 21.6015ZM20.2135 18.4365C20.7058 18.4365 21.106 18.8375 21.106 19.3294C21.106 19.8213 20.7062 20.2211 20.2135 20.2211C19.7207 20.2211 19.321 19.8213 19.321 19.3294C19.3218 18.837 19.7219 18.4365 20.2135 18.4365Z" fill="#EEBB25"/>
<path d="M18.269 13.701C18.269 12.4479 17.2492 11.4286 15.9961 11.4286C14.7434 11.4286 13.724 12.4483 13.724 13.701C13.724 14.9537 14.7434 15.9731 15.9961 15.9731C17.2492 15.9731 18.269 14.9537 18.269 13.701ZM15.9961 14.5936C15.5042 14.5936 15.104 14.1934 15.104 13.701C15.104 13.2087 15.5042 12.8085 15.9961 12.8085C16.4888 12.8085 16.889 13.2087 16.889 13.701C16.8894 14.193 16.4888 14.5936 15.9961 14.5936Z" fill="#EEBB25"/>
<path d="M26.6834 13.701C26.6834 12.4479 25.6636 11.4286 24.4113 11.4286C23.1586 11.4286 22.1396 12.4483 22.1396 13.701C22.1396 14.9537 23.1586 15.9731 24.4113 15.9731C25.6636 15.9731 26.6834 14.9537 26.6834 13.701ZM24.4113 14.5936C23.9193 14.5936 23.5188 14.1934 23.5188 13.701C23.5188 13.2087 23.9185 12.8085 24.4113 12.8085C24.904 12.8085 25.3038 13.2087 25.3038 13.701C25.3038 14.193 24.9032 14.5936 24.4113 14.5936Z" fill="#EEBB25"/>
<path d="M20.9559 22.8937H19.4719C17.9484 22.8937 16.7091 24.135 16.7091 25.6594V27.8817C16.7091 28.2626 17.0179 28.5714 17.3989 28.5714C17.7799 28.5714 18.0887 28.2618 18.0887 27.8817V25.6594C18.0887 24.8953 18.7091 24.2737 19.4719 24.2737H20.9559C21.7191 24.2737 22.3407 24.8953 22.3407 25.6594V27.8817C22.3407 28.2626 22.6499 28.5714 23.0305 28.5714C23.4111 28.5714 23.7199 28.2618 23.7199 27.8817V25.6594C23.7207 24.135 22.4811 22.8937 20.9559 22.8937Z" fill="#EEBB25"/>
<path d="M28.6189 21.6015C29.872 21.6015 30.8918 20.5825 30.8918 19.3298C30.8918 18.0771 29.8724 17.0573 28.6189 17.0569C27.367 17.0569 26.3481 18.0767 26.3481 19.3298C26.3472 20.5825 27.3662 21.6015 28.6189 21.6015ZM28.6189 18.4365C29.1112 18.4365 29.5118 18.8375 29.5118 19.3294C29.5118 19.8213 29.1112 20.2211 28.6189 20.2211C28.1274 20.2211 27.7272 19.8213 27.7272 19.3294C27.7272 18.837 28.1269 18.4365 28.6189 18.4365Z" fill="#EEBB25"/>
<path d="M29.3621 22.8937H27.8777C26.3546 22.8937 25.1149 24.135 25.1149 25.6594V27.8817C25.1149 28.2626 25.4241 28.5714 25.8047 28.5714C26.1853 28.5714 26.4945 28.2618 26.4945 27.8817V25.6594C26.4945 24.8953 27.1149 24.2737 27.8777 24.2737H29.3621C30.1257 24.2737 30.747 24.8953 30.747 25.6594V27.8817C30.747 28.2626 31.0566 28.5714 31.4367 28.5714C31.8177 28.5714 32.1265 28.2618 32.1265 27.8817V25.6594C32.1265 24.135 30.8865 22.8937 29.3621 22.8937Z" fill="#EEBB25"/>
</g>
<defs>
<filter id="filter0_d_1189_7585" x="-4" y="-4" width="50" height="50" filterUnits="userSpaceOnUse" color-interpolation-filters="sRGB">
<feFlood flood-opacity="0" result="BackgroundImageFix"/>
<feColorMatrix in="SourceAlpha" type="matrix" values="0 0 0 0 0 0 0 0 0 0 0 0 0 0 0 0 0 0 127 0" result="hardAlpha"/>
<feOffset dx="1" dy="1"/>
<feGaussianBlur stdDeviation="2.5"/>
<feComposite in2="hardAlpha" operator="out"/>
<feColorMatrix type="matrix" values="0 0 0 0 0.863281 0 0 0 0 0.870955 0 0 0 0 0.920833 0 0 0 0.51 0"/>
<feBlend mode="normal" in2="BackgroundImageFix" result="effect1_dropShadow_1189_7585"/>
<feBlend mode="normal" in="SourceGraphic" in2="effect1_dropShadow_1189_7585" result="shape"/>
</filter>
</defs>
</svg>
