<svg width="41" height="40" viewBox="0 0 41 40" fill="none" xmlns="http://www.w3.org/2000/svg">
<g filter="url(#filter0_d_1189_7548)">
<path d="M29.6438 8.57143H11.5647C10.1442 8.57143 8.98193 9.72973 8.98193 11.1454V26.0746C8.98193 27.4903 10.1442 28.6486 11.5647 28.6486H18.7963V29.1634C18.7963 29.3436 18.8996 29.4981 19.0546 29.601C19.2095 29.704 19.3903 29.704 19.5453 29.6268L21.1724 28.8288L22.3346 31.1454C22.3863 31.2741 22.5154 31.3513 22.6446 31.4028C22.6962 31.4286 22.7479 31.4286 22.7995 31.4286C22.877 31.4286 22.9545 31.4028 23.032 31.3771L25.3306 30.2188C25.5889 30.0901 25.6922 29.7812 25.563 29.5238L25.124 28.6486H29.6438C31.0643 28.6486 32.2265 27.4903 32.2265 26.0746V11.1454C32.2265 9.72973 31.0643 8.57143 29.6438 8.57143ZM23.0061 30.2188L21.8439 27.9279C21.7406 27.7477 21.5598 27.6448 21.379 27.6448C21.3015 27.6448 21.2241 27.6705 21.1466 27.6963L19.8294 28.3398V22.1622L24.7882 25.8687L23.4452 26.538C23.1869 26.6667 23.0836 26.9755 23.2128 27.2329L24.375 29.5495L23.0061 30.2188ZM31.1934 26.0746C31.1934 26.9241 30.4961 27.619 29.6438 27.619H24.6074L24.4008 27.2072L26.0279 26.4093C26.1829 26.332 26.2862 26.1776 26.312 25.9974C26.3379 25.8172 26.2604 25.6371 26.1054 25.5341L19.6486 20.695C19.4936 20.5663 19.287 20.5663 19.1062 20.6435C18.9254 20.7207 18.8221 20.9009 18.8221 21.1068V27.619H11.5647C10.7124 27.619 10.015 26.9241 10.015 26.0746V14.749H31.1934V26.0746ZM31.1934 13.7194H10.015V11.1454C10.015 10.296 10.7124 9.60103 11.5647 9.60103H29.6438C30.4961 9.60103 31.1934 10.296 31.1934 11.1454V13.7194ZM12.5978 11.6602C12.5978 11.9434 12.3653 12.175 12.0812 12.175C11.7971 12.175 11.5647 11.9434 11.5647 11.6602C11.5647 11.3771 11.7971 11.1454 12.0812 11.1454C12.3653 11.1454 12.5978 11.3771 12.5978 11.6602ZM15.1805 11.6602C15.1805 11.9434 14.948 12.175 14.6639 12.175C14.3798 12.175 14.1474 11.9434 14.1474 11.6602C14.1474 11.3771 14.3798 11.1454 14.6639 11.1454C14.948 11.1454 15.1805 11.3771 15.1805 11.6602ZM17.7632 11.6602C17.7632 11.9434 17.5308 12.175 17.2467 12.175C16.9626 12.175 16.7301 11.9434 16.7301 11.6602C16.7301 11.3771 16.9626 11.1454 17.2467 11.1454C17.5308 11.1454 17.7632 11.3771 17.7632 11.6602ZM17.2467 18.121C17.1175 17.8636 17.2208 17.5547 17.4791 17.426C17.7374 17.2973 18.0473 17.4003 18.1764 17.6577L18.6413 18.5843C18.7705 18.8417 18.6672 19.1506 18.4089 19.2793C18.3314 19.305 18.2539 19.3308 18.1764 19.3308C17.9957 19.3308 17.8149 19.2278 17.7116 19.0476L17.2467 18.121ZM22.3605 20.592C22.2313 20.3346 22.3346 20.0257 22.5929 19.897L23.5227 19.4337C23.781 19.305 24.0909 19.408 24.22 19.6654C24.3492 19.9228 24.2459 20.2317 23.9876 20.3604L23.0578 20.8237C22.9803 20.8494 22.9028 20.8752 22.8254 20.8752C22.6446 20.9009 22.4638 20.7722 22.3605 20.592ZM17.0659 23.2432C17.195 23.5006 17.0917 23.8095 16.8334 23.9382L15.9036 24.4015C15.8262 24.4273 15.7487 24.453 15.6712 24.453C15.4904 24.453 15.3096 24.3501 15.2063 24.1699C15.0772 23.9125 15.1805 23.6036 15.4388 23.4749L16.3685 23.0116C16.6268 22.8829 16.9367 22.9858 17.0659 23.2432ZM20.3201 18.4556L20.6559 17.4775C20.7333 17.1943 21.0433 17.0656 21.3015 17.1429C21.5598 17.2201 21.7148 17.529 21.6373 17.7864L21.3015 18.7645C21.2241 18.9704 21.0174 19.1248 20.8108 19.1248C20.7592 19.1248 20.7075 19.1248 20.6559 19.0991C20.3976 19.0219 20.2426 18.7387 20.3201 18.4556ZM14.948 20.3346C15.0255 20.0515 15.3354 19.9228 15.5937 20L16.5752 20.3346C16.8334 20.4118 16.9884 20.7207 16.9109 20.9781C16.8334 21.184 16.6268 21.3385 16.4202 21.3385C16.3685 21.3385 16.3169 21.3385 16.2652 21.3127L15.2838 20.9781C14.9997 20.9009 14.8447 20.6178 14.948 20.3346Z" fill="#57BFFF" stroke="#57BFFF" stroke-width="0.5"/>
</g>
<defs>
<filter id="filter0_d_1189_7548" x="-3.5" y="-4" width="50" height="50" filterUnits="userSpaceOnUse" color-interpolation-filters="sRGB">
<feFlood flood-opacity="0" result="BackgroundImageFix"/>
<feColorMatrix in="SourceAlpha" type="matrix" values="0 0 0 0 0 0 0 0 0 0 0 0 0 0 0 0 0 0 127 0" result="hardAlpha"/>
<feOffset dx="1" dy="1"/>
<feGaussianBlur stdDeviation="2.5"/>
<feComposite in2="hardAlpha" operator="out"/>
<feColorMatrix type="matrix" values="0 0 0 0 0.863281 0 0 0 0 0.870955 0 0 0 0 0.920833 0 0 0 0.51 0"/>
<feBlend mode="normal" in2="BackgroundImageFix" result="effect1_dropShadow_1189_7548"/>
<feBlend mode="normal" in="SourceGraphic" in2="effect1_dropShadow_1189_7548" result="shape"/>
</filter>
</defs>
</svg>
