<svg width="43" height="40" viewBox="0 0 43 40" fill="none" xmlns="http://www.w3.org/2000/svg">
<g filter="url(#filter0_d_2055_8421)">
<path d="M6.7 9C5.49389 9 4.5 9.99389 4.5 11.2V28.8C4.5 30.0061 5.49389 31 6.7 31H34.5667C35.7728 31 36.7667 30.0061 36.7667 28.8V11.2C36.7667 9.99389 35.7728 9 34.5667 9H6.7ZM6.7 10.4667H34.5667C34.9856 10.4667 35.3 10.7811 35.3 11.2V28.8C35.3 29.219 34.9856 29.5333 34.5667 29.5333H6.7C6.28105 29.5333 5.96667 29.219 5.96667 28.8V11.2C5.96667 10.7811 6.28105 10.4667 6.7 10.4667ZM26.1333 13.0333C24.117 13.0333 22.4667 14.6836 22.4667 16.7C22.4667 18.0628 23.2231 19.2536 24.3344 19.8854C21.5685 20.6717 19.5333 23.2205 19.5333 26.2333C19.5334 26.4278 19.6106 26.6143 19.7481 26.7519C19.8857 26.8894 20.0722 26.9666 20.2667 26.9667H32C32.1945 26.9666 32.381 26.8894 32.5185 26.7519C32.656 26.6143 32.7333 26.4278 32.7333 26.2333C32.7333 23.2205 30.6982 20.6717 27.9323 19.8854C29.0436 19.2536 29.8 18.0628 29.8 16.7C29.8 14.6836 28.1497 13.0333 26.1333 13.0333ZM26.1333 14.5C27.357 14.5 28.3333 15.4763 28.3333 16.7C28.3333 17.9237 27.357 18.9 26.1333 18.9C24.9096 18.9 23.9333 17.9237 23.9333 16.7C23.9333 15.4763 24.9096 14.5 26.1333 14.5ZM26.1333 21.1C28.7272 21.1 30.8431 23.0072 31.1979 25.5H21.0688C21.4235 23.0072 23.5395 21.1 26.1333 21.1Z" fill="#57BFFF"/>
<path d="M8.95518 16.7697C9.04244 16.7287 9.13693 16.7053 9.23324 16.7008C9.25615 16.6997 9.27909 16.6997 9.30199 16.7008H16.6353C16.7325 16.6994 16.829 16.7174 16.9192 16.7536C17.0093 16.7899 17.0914 16.8437 17.1606 16.9119C17.2298 16.9801 17.2848 17.0614 17.3223 17.1511C17.3598 17.2407 17.3791 17.337 17.3791 17.4341C17.3791 17.5313 17.3598 17.6275 17.3223 17.7172C17.2848 17.8069 17.2298 17.8882 17.1606 17.9564C17.0914 18.0246 17.0093 18.0784 16.9192 18.1147C16.829 18.1509 16.7325 18.1688 16.6353 18.1675H9.30199C9.20568 18.172 9.10942 18.1575 9.0187 18.1249C8.92798 18.0922 8.84459 18.042 8.77329 17.977C8.70198 17.9121 8.64416 17.8338 8.60313 17.7466C8.5621 17.6593 8.53865 17.5648 8.53414 17.4685C8.52962 17.3722 8.54413 17.2759 8.57682 17.1852C8.60951 17.0945 8.65975 17.0111 8.72467 16.9399C8.78959 16.8686 8.86792 16.8108 8.95518 16.7697Z" fill="#57BFFF"/>
<path d="M8.95518 19.3364C9.04244 19.2954 9.13693 19.272 9.23324 19.2675C9.25615 19.2664 9.27909 19.2664 9.30199 19.2675H16.6353C16.7325 19.2661 16.829 19.2841 16.9192 19.3203C17.0093 19.3565 17.0914 19.4103 17.1606 19.4786C17.2298 19.5468 17.2848 19.6281 17.3223 19.7177C17.3598 19.8074 17.3791 19.9036 17.3791 20.0008C17.3791 20.098 17.3598 20.1942 17.3223 20.2839C17.2848 20.3735 17.2298 20.4548 17.1606 20.5231C17.0914 20.5913 17.0093 20.6451 16.9192 20.6813C16.829 20.7176 16.7325 20.7355 16.6353 20.7341H9.30199C9.20568 20.7387 9.10942 20.7242 9.0187 20.6915C8.92798 20.6588 8.84459 20.6086 8.77329 20.5437C8.70198 20.4788 8.64416 20.4005 8.60313 20.3132C8.5621 20.226 8.53865 20.1315 8.53414 20.0352C8.52962 19.9389 8.54413 19.8426 8.57682 19.7519C8.60951 19.6612 8.65975 19.5778 8.72467 19.5065C8.78959 19.4352 8.86792 19.3774 8.95518 19.3364Z" fill="#57BFFF"/>
<path d="M8.95518 21.9031C9.04244 21.8621 9.13693 21.8386 9.23324 21.8341C9.25615 21.8331 9.27909 21.8331 9.30199 21.8341H16.6353C16.7325 21.8328 16.829 21.8507 16.9192 21.887C17.0093 21.9232 17.0914 21.977 17.1606 22.0452C17.2298 22.1135 17.2848 22.1948 17.3223 22.2844C17.3598 22.3741 17.3791 22.4703 17.3791 22.5675C17.3791 22.6647 17.3598 22.7609 17.3223 22.8505C17.2848 22.9402 17.2298 23.0215 17.1606 23.0897C17.0914 23.158 17.0093 23.2118 16.9192 23.248C16.829 23.2842 16.7325 23.3022 16.6353 23.3008H9.30199C9.20568 23.3053 9.10942 23.2909 9.0187 23.2582C8.92798 23.2255 8.84459 23.1753 8.77329 23.1104C8.70198 23.0455 8.64416 22.9672 8.60313 22.8799C8.5621 22.7927 8.53865 22.6982 8.53414 22.6019C8.52962 22.5055 8.54413 22.4093 8.57682 22.3186C8.60951 22.2279 8.65975 22.1445 8.72467 22.0732C8.78959 22.0019 8.86792 21.9441 8.95518 21.9031Z" fill="#57BFFF"/>
</g>
<defs>
<filter id="filter0_d_2055_8421" x="-3.5" y="-4" width="50" height="50" filterUnits="userSpaceOnUse" color-interpolation-filters="sRGB">
<feFlood flood-opacity="0" result="BackgroundImageFix"/>
<feColorMatrix in="SourceAlpha" type="matrix" values="0 0 0 0 0 0 0 0 0 0 0 0 0 0 0 0 0 0 127 0" result="hardAlpha"/>
<feOffset dx="1" dy="1"/>
<feGaussianBlur stdDeviation="2.5"/>
<feComposite in2="hardAlpha" operator="out"/>
<feColorMatrix type="matrix" values="0 0 0 0 0.863281 0 0 0 0 0.870955 0 0 0 0 0.920833 0 0 0 0.51 0"/>
<feBlend mode="normal" in2="BackgroundImageFix" result="effect1_dropShadow_2055_8421"/>
<feBlend mode="normal" in="SourceGraphic" in2="effect1_dropShadow_2055_8421" result="shape"/>
</filter>
</defs>
</svg>
