<svg width="41" height="40" viewBox="0 0 41 40" fill="none" xmlns="http://www.w3.org/2000/svg">
<g filter="url(#filter0_d_2055_8539)">
<mask id="path-2-outside-1_2055_8539" maskUnits="userSpaceOnUse" x="10" y="7" width="21" height="26" fill="black">
<rect fill="white" x="10" y="7" width="21" height="26"/>
<path d="M24.6651 8.1596C24.5542 8.057 24.4087 8.00001 24.2577 8H13.6888C12.9772 8.0005 12.2949 8.28283 11.791 8.7852C11.2871 9.28757 11.0027 9.96908 11 10.6806V29.3194C11.0027 30.0309 11.2871 30.7124 11.791 31.2148C12.2949 31.7172 12.9772 31.9995 13.6888 32H27.5112C28.2228 31.9995 28.9051 31.7172 29.409 31.2148C29.9129 30.7124 30.1973 30.0309 30.2 29.3194V13.5349C30.1992 13.452 30.1814 13.37 30.1476 13.2942C30.1137 13.2184 30.0647 13.1505 30.0034 13.0945L24.6651 8.1596ZM24.86 9.9725L28.0597 12.92H25.298C25.2421 12.9216 25.1863 12.9122 25.134 12.8922C25.0817 12.8723 25.0339 12.8422 24.9932 12.8038C24.9525 12.7653 24.9198 12.7192 24.897 12.6681C24.8741 12.617 24.8616 12.5619 24.86 12.506C24.86 12.502 24.86 12.4982 24.86 12.4945V9.9725ZM27.5112 30.8H13.6888C13.2954 30.7999 12.918 30.6441 12.6391 30.3667C12.3601 30.0893 12.2023 29.7128 12.2 29.3194V10.6806C12.2023 10.2872 12.3601 9.91073 12.6391 9.63332C12.918 9.35591 13.2954 9.20014 13.6888 9.2H23.66V12.4947C23.6606 12.9263 23.8326 13.34 24.1382 13.6448C24.4438 13.9496 24.858 14.1205 25.2896 14.12H29V29.3194C28.9977 29.7128 28.8399 30.0893 28.5609 30.3667C28.282 30.6441 27.9046 30.7999 27.5112 30.8Z"/>
<path d="M23.7706 19.6313C23.6676 19.5114 23.5214 19.437 23.3639 19.4243C23.2063 19.4116 23.0501 19.4615 22.9292 19.5633C22.8082 19.6651 22.7324 19.8105 22.718 19.9679C22.7037 20.1254 22.7521 20.2821 22.8526 20.404L24.2 22.0051L22.8526 23.606C22.8005 23.6655 22.7607 23.7348 22.7355 23.8097C22.7103 23.8847 22.7001 23.9639 22.7056 24.0428C22.7111 24.1217 22.7322 24.1988 22.7676 24.2695C22.803 24.3403 22.852 24.4033 22.9118 24.455C22.9717 24.5067 23.0412 24.5461 23.1163 24.5709C23.1914 24.5957 23.2707 24.6053 23.3496 24.5993C23.4284 24.5934 23.5054 24.5718 23.5759 24.536C23.6464 24.5002 23.7091 24.4508 23.7605 24.3906C23.7639 24.3867 23.7673 24.3827 23.7706 24.3786L25.4434 22.3912C25.5345 22.2831 25.5844 22.1463 25.5844 22.0049C25.5844 21.8635 25.5345 21.7267 25.4434 21.6186L23.7706 19.6313Z"/>
<path d="M18.2748 19.5587C18.153 19.4562 17.9956 19.4063 17.837 19.4199C17.6785 19.4335 17.5318 19.5096 17.4294 19.6313L15.7565 21.6187C15.6655 21.7269 15.6156 21.8637 15.6156 22.0051C15.6156 22.1464 15.6655 22.2833 15.7565 22.3914L17.4294 24.3788C17.5325 24.4982 17.6786 24.5721 17.8358 24.5846C17.9931 24.5971 18.149 24.5472 18.2697 24.4456C18.3904 24.3439 18.4663 24.1989 18.4808 24.0418C18.4953 23.8847 18.4474 23.7281 18.3474 23.6061L17 22.0051L18.3476 20.404C18.45 20.2823 18.4999 20.1248 18.4862 19.9663C18.4726 19.8078 18.3965 19.6611 18.2748 19.5587Z"/>
<path d="M21.6215 18.1889C21.5455 18.1685 21.4661 18.1632 21.388 18.1734C21.3099 18.1836 21.2346 18.2091 21.1664 18.2484C21.0981 18.2877 21.0383 18.3401 20.9903 18.4025C20.9423 18.4649 20.907 18.5362 20.8866 18.6123L20.8865 18.6133L19.154 25.0865C19.1129 25.2402 19.1345 25.404 19.2141 25.5418C19.2937 25.6796 19.4247 25.7801 19.5785 25.8213C19.7322 25.8624 19.896 25.8408 20.0337 25.7612C20.1715 25.6816 20.2721 25.5505 20.3132 25.3968L22.0459 18.9239C22.0664 18.8478 22.0716 18.7684 22.0613 18.6903C22.0511 18.6122 22.0255 18.5368 21.9861 18.4686C21.9467 18.4003 21.8943 18.3405 21.8318 18.2925C21.7693 18.2445 21.6979 18.2093 21.6218 18.1889L21.6215 18.1889Z"/>
</mask>
<path d="M24.6651 8.1596C24.5542 8.057 24.4087 8.00001 24.2577 8H13.6888C12.9772 8.0005 12.2949 8.28283 11.791 8.7852C11.2871 9.28757 11.0027 9.96908 11 10.6806V29.3194C11.0027 30.0309 11.2871 30.7124 11.791 31.2148C12.2949 31.7172 12.9772 31.9995 13.6888 32H27.5112C28.2228 31.9995 28.9051 31.7172 29.409 31.2148C29.9129 30.7124 30.1973 30.0309 30.2 29.3194V13.5349C30.1992 13.452 30.1814 13.37 30.1476 13.2942C30.1137 13.2184 30.0647 13.1505 30.0034 13.0945L24.6651 8.1596ZM24.86 9.9725L28.0597 12.92H25.298C25.2421 12.9216 25.1863 12.9122 25.134 12.8922C25.0817 12.8723 25.0339 12.8422 24.9932 12.8038C24.9525 12.7653 24.9198 12.7192 24.897 12.6681C24.8741 12.617 24.8616 12.5619 24.86 12.506C24.86 12.502 24.86 12.4982 24.86 12.4945V9.9725ZM27.5112 30.8H13.6888C13.2954 30.7999 12.918 30.6441 12.6391 30.3667C12.3601 30.0893 12.2023 29.7128 12.2 29.3194V10.6806C12.2023 10.2872 12.3601 9.91073 12.6391 9.63332C12.918 9.35591 13.2954 9.20014 13.6888 9.2H23.66V12.4947C23.6606 12.9263 23.8326 13.34 24.1382 13.6448C24.4438 13.9496 24.858 14.1205 25.2896 14.12H29V29.3194C28.9977 29.7128 28.8399 30.0893 28.5609 30.3667C28.282 30.6441 27.9046 30.7999 27.5112 30.8Z" fill="#FF8AB4"/>
<path d="M23.7706 19.6313C23.6676 19.5114 23.5214 19.437 23.3639 19.4243C23.2063 19.4116 23.0501 19.4615 22.9292 19.5633C22.8082 19.6651 22.7324 19.8105 22.718 19.9679C22.7037 20.1254 22.7521 20.2821 22.8526 20.404L24.2 22.0051L22.8526 23.606C22.8005 23.6655 22.7607 23.7348 22.7355 23.8097C22.7103 23.8847 22.7001 23.9639 22.7056 24.0428C22.7111 24.1217 22.7322 24.1988 22.7676 24.2695C22.803 24.3403 22.852 24.4033 22.9118 24.455C22.9717 24.5067 23.0412 24.5461 23.1163 24.5709C23.1914 24.5957 23.2707 24.6053 23.3496 24.5993C23.4284 24.5934 23.5054 24.5718 23.5759 24.536C23.6464 24.5002 23.7091 24.4508 23.7605 24.3906C23.7639 24.3867 23.7673 24.3827 23.7706 24.3786L25.4434 22.3912C25.5345 22.2831 25.5844 22.1463 25.5844 22.0049C25.5844 21.8635 25.5345 21.7267 25.4434 21.6186L23.7706 19.6313Z" fill="#FF8AB4"/>
<path d="M18.2748 19.5587C18.153 19.4562 17.9956 19.4063 17.837 19.4199C17.6785 19.4335 17.5318 19.5096 17.4294 19.6313L15.7565 21.6187C15.6655 21.7269 15.6156 21.8637 15.6156 22.0051C15.6156 22.1464 15.6655 22.2833 15.7565 22.3914L17.4294 24.3788C17.5325 24.4982 17.6786 24.5721 17.8358 24.5846C17.9931 24.5971 18.149 24.5472 18.2697 24.4456C18.3904 24.3439 18.4663 24.1989 18.4808 24.0418C18.4953 23.8847 18.4474 23.7281 18.3474 23.6061L17 22.0051L18.3476 20.404C18.45 20.2823 18.4999 20.1248 18.4862 19.9663C18.4726 19.8078 18.3965 19.6611 18.2748 19.5587Z" fill="#FF8AB4"/>
<path d="M21.6215 18.1889C21.5455 18.1685 21.4661 18.1632 21.388 18.1734C21.3099 18.1836 21.2346 18.2091 21.1664 18.2484C21.0981 18.2877 21.0383 18.3401 20.9903 18.4025C20.9423 18.4649 20.907 18.5362 20.8866 18.6123L20.8865 18.6133L19.154 25.0865C19.1129 25.2402 19.1345 25.404 19.2141 25.5418C19.2937 25.6796 19.4247 25.7801 19.5785 25.8213C19.7322 25.8624 19.896 25.8408 20.0337 25.7612C20.1715 25.6816 20.2721 25.5505 20.3132 25.3968L22.0459 18.9239C22.0664 18.8478 22.0716 18.7684 22.0613 18.6903C22.0511 18.6122 22.0255 18.5368 21.9861 18.4686C21.9467 18.4003 21.8943 18.3405 21.8318 18.2925C21.7693 18.2445 21.6979 18.2093 21.6218 18.1889L21.6215 18.1889Z" fill="#FF8AB4"/>
<path d="M24.6651 8.1596L24.5293 8.3064L24.5294 8.30646L24.6651 8.1596ZM24.2577 8L24.2577 7.8H24.2577V8ZM13.6888 8V7.8L13.6886 7.8L13.6888 8ZM11 10.6806L10.8 10.6799V10.6806H11ZM11 29.3194H10.8L10.8 29.3201L11 29.3194ZM13.6888 32L13.6886 32.2H13.6888V32ZM27.5112 32V32.2H27.5114L27.5112 32ZM30.2 29.3194L30.4 29.3201V29.3194H30.2ZM30.2 13.5349H30.4L30.4 13.5331L30.2 13.5349ZM30.0034 13.0945L29.8676 13.2413L29.8685 13.2421L30.0034 13.0945ZM24.86 9.9725L24.9955 9.8254L24.66 9.51634V9.9725H24.86ZM28.0597 12.92V13.12H28.5721L28.1952 12.7729L28.0597 12.92ZM25.298 12.92V12.7199L25.2923 12.7201L25.298 12.92ZM24.86 12.506H24.6599L24.6601 12.5116L24.86 12.506ZM27.5112 30.8V31H27.5113L27.5112 30.8ZM13.6888 30.8L13.6887 31H13.6888V30.8ZM12.2 29.3194H12L12 29.3205L12.2 29.3194ZM12.2 10.6806L12 10.6795V10.6806H12.2ZM13.6888 9.2V9L13.6887 9L13.6888 9.2ZM23.66 9.2H23.86V9H23.66V9.2ZM23.66 12.4947H23.46L23.46 12.4949L23.66 12.4947ZM25.2896 14.12V13.92L25.2893 13.92L25.2896 14.12ZM29 14.12H29.2V13.92H29V14.12ZM29 29.3194L29.2 29.3205V29.3194H29ZM23.7706 19.6313L23.9237 19.5025L23.9223 19.501L23.7706 19.6313ZM22.8526 20.404L22.6983 20.5313L22.6996 20.5328L22.8526 20.404ZM24.2 22.0051L24.353 22.1339L24.4614 22.0051L24.353 21.8763L24.2 22.0051ZM22.8526 23.606L23.0031 23.7377L23.0056 23.7348L22.8526 23.606ZM23.7605 24.3906L23.6091 24.2599L23.6084 24.2608L23.7605 24.3906ZM23.7706 24.3786L23.6175 24.2498L23.6151 24.2528L23.7706 24.3786ZM25.4434 22.3912L25.5964 22.52L25.5965 22.52L25.4434 22.3912ZM25.5844 22.0049H25.7844H25.5844ZM25.4434 21.6186L25.5965 21.4898L25.5964 21.4898L25.4434 21.6186ZM18.2748 19.5587L18.146 19.7117L18.146 19.7117L18.2748 19.5587ZM17.4294 19.6313L17.2764 19.5025L17.2763 19.5025L17.4294 19.6313ZM15.7565 21.6187L15.6035 21.4899L15.6035 21.49L15.7565 21.6187ZM15.7565 22.3914L15.6035 22.5202L15.6035 22.5202L15.7565 22.3914ZM17.4294 24.3788L17.2763 24.5076L17.278 24.5096L17.4294 24.3788ZM18.3474 23.6061L18.502 23.4793L18.5004 23.4773L18.3474 23.6061ZM17 22.0051L16.847 21.8763L16.7386 22.0051L16.847 22.1339L17 22.0051ZM18.3476 20.404L18.5006 20.5328L18.5006 20.5328L18.3476 20.404ZM21.6215 18.1889L21.5695 18.3821L21.6033 18.3912L21.6382 18.3882L21.6215 18.1889ZM20.8866 18.6123L20.6934 18.5604L20.6895 18.5751L20.6878 18.5902L20.8866 18.6123ZM20.8865 18.6133L21.0797 18.665L21.0836 18.6504L21.0853 18.6354L20.8865 18.6133ZM19.154 25.0865L19.3472 25.1382L19.3472 25.1382L19.154 25.0865ZM20.3132 25.3968L20.12 25.3451L20.12 25.3451L20.3132 25.3968ZM22.0459 18.9239L21.8528 18.8721L21.8527 18.8722L22.0459 18.9239ZM21.6218 18.1889L21.6736 17.9957L21.6399 17.9867L21.6051 17.9896L21.6218 18.1889ZM24.801 8.0128C24.6531 7.876 24.4591 7.80001 24.2577 7.8L24.2577 8.2C24.3584 8.2 24.4554 8.238 24.5293 8.3064L24.801 8.0128ZM24.2577 7.8H13.6888V8.2H24.2577V7.8ZM13.6886 7.8C12.9242 7.80054 12.1911 8.10385 11.6498 8.64356L11.9322 8.92683C12.3986 8.4618 13.0303 8.20047 13.6889 8.2L13.6886 7.8ZM11.6498 8.64356C11.1084 9.18327 10.8029 9.91544 10.8 10.6799L11.2 10.6814C11.2025 10.0227 11.4657 9.39186 11.9322 8.92683L11.6498 8.64356ZM10.8 10.6806V29.3194H11.2V10.6806H10.8ZM10.8 29.3201C10.8029 30.0846 11.1084 30.8167 11.6498 31.3564L11.9322 31.0732C11.4657 30.6081 11.2025 29.9773 11.2 29.3186L10.8 29.3201ZM11.6498 31.3564C12.1911 31.8962 12.9242 32.1995 13.6886 32.2L13.6889 31.8C13.0303 31.7995 12.3986 31.5382 11.9322 31.0732L11.6498 31.3564ZM13.6888 32.2H27.5112V31.8H13.6888V32.2ZM27.5114 32.2C28.2758 32.1995 29.0089 31.8962 29.5502 31.3564L29.2678 31.0732C28.8014 31.5382 28.1697 31.7995 27.5111 31.8L27.5114 32.2ZM29.5502 31.3564C30.0916 30.8167 30.3971 30.0846 30.4 29.3201L30 29.3186C29.9975 29.9773 29.7343 30.6081 29.2678 31.0732L29.5502 31.3564ZM30.4 29.3194V13.5349H30V29.3194H30.4ZM30.4 13.5331C30.399 13.4227 30.3752 13.3136 30.3302 13.2127L29.9649 13.3758C29.9876 13.4264 29.9995 13.4813 30 13.5368L30.4 13.5331ZM30.3302 13.2127C30.2852 13.1118 30.2198 13.0213 30.1383 12.9468L29.8685 13.2421C29.9095 13.2796 29.9423 13.3251 29.9649 13.3758L30.3302 13.2127ZM30.1391 12.9476L24.8009 8.01274L24.5294 8.30646L29.8676 13.2413L30.1391 12.9476ZM24.7245 10.1196L27.9242 13.0671L28.1952 12.7729L24.9955 9.8254L24.7245 10.1196ZM28.0597 12.72H25.298V13.12H28.0597V12.72ZM25.2923 12.7201C25.2626 12.7209 25.2331 12.7159 25.2053 12.7053L25.0628 13.0791C25.1396 13.1084 25.2215 13.1223 25.3037 13.1199L25.2923 12.7201ZM25.2053 12.7053C25.1776 12.6948 25.1522 12.6788 25.1306 12.6584L24.8558 12.9491C24.9156 13.0056 24.9859 13.0498 25.0628 13.0791L25.2053 12.7053ZM25.1306 12.6584C25.109 12.638 25.0917 12.6136 25.0795 12.5865L24.7144 12.7498C24.748 12.8249 24.7961 12.8926 24.8558 12.9491L25.1306 12.6584ZM25.0795 12.5865C25.0674 12.5594 25.0607 12.5301 25.0599 12.5004L24.6601 12.5116C24.6624 12.5938 24.6808 12.6747 24.7144 12.7498L25.0795 12.5865ZM25.06 12.506C25.06 12.5007 25.06 12.4995 25.06 12.4945H24.66C24.66 12.4995 24.66 12.5007 24.66 12.506H25.06ZM25.06 12.4945V9.9725H24.66V12.4945H25.06ZM27.5112 30.6H13.6888V31H27.5112V30.6ZM13.6888 30.6C13.3483 30.5999 13.0216 30.465 12.7801 30.2249L12.4981 30.5085C12.8144 30.8231 13.2425 30.9998 13.6887 31L13.6888 30.6ZM12.7801 30.2249C12.5386 29.9847 12.402 29.6588 12.4 29.3182L12 29.3205C12.0026 29.7668 12.1817 30.1938 12.4981 30.5085L12.7801 30.2249ZM12.4 29.3194V10.6806H12V29.3194H12.4ZM12.4 10.6818C12.402 10.3412 12.5386 10.0153 12.7801 9.77513L12.4981 9.49151C12.1817 9.80617 12.0026 10.2332 12 10.6795L12.4 10.6818ZM12.7801 9.77513C13.0216 9.53498 13.3483 9.40012 13.6888 9.4L13.6887 9C13.2425 9.00015 12.8144 9.17685 12.4981 9.49151L12.7801 9.77513ZM13.6888 9.4H23.66V9H13.6888V9.4ZM23.46 9.2V12.4947H23.86V9.2H23.46ZM23.46 12.4949C23.4607 12.9796 23.6538 13.4442 23.997 13.7864L24.2794 13.5032C24.0114 13.2358 23.8605 12.873 23.86 12.4944L23.46 12.4949ZM23.997 13.7864C24.3401 14.1287 24.8052 14.3206 25.2899 14.32L25.2893 13.92C24.9108 13.9205 24.5475 13.7705 24.2794 13.5032L23.997 13.7864ZM25.2896 14.32H29V13.92H25.2896V14.32ZM28.8 14.12V29.3194H29.2V14.12H28.8ZM28.8 29.3182C28.798 29.6588 28.6614 29.9847 28.4199 30.2249L28.7019 30.5085C29.0183 30.1938 29.1974 29.7668 29.2 29.3205L28.8 29.3182ZM28.4199 30.2249C28.1784 30.465 27.8517 30.5999 27.5112 30.6L27.5113 31C27.9575 30.9998 28.3856 30.8231 28.7019 30.5085L28.4199 30.2249ZM23.9223 19.501C23.785 19.3411 23.5901 19.2419 23.38 19.2249L23.3478 19.6236C23.4528 19.6321 23.5503 19.6817 23.6189 19.7616L23.9223 19.501ZM23.38 19.2249C23.1699 19.208 22.9616 19.2746 22.8004 19.4103L23.058 19.7163C23.1386 19.6485 23.2427 19.6151 23.3478 19.6236L23.38 19.2249ZM22.8004 19.4103C22.6391 19.546 22.538 19.7399 22.5189 19.9498L22.9172 19.9861C22.9268 19.8811 22.9774 19.7842 23.058 19.7163L22.8004 19.4103ZM22.5189 19.9498C22.4998 20.1597 22.5642 20.3687 22.6983 20.5313L23.0069 20.2768C22.9399 20.1955 22.9077 20.091 22.9172 19.9861L22.5189 19.9498ZM22.6996 20.5328L24.047 22.1339L24.353 21.8763L23.0057 20.2753L22.6996 20.5328ZM24.047 21.8763L22.6996 23.4772L23.0056 23.7348L24.353 22.1339L24.047 21.8763ZM22.7021 23.4743C22.6326 23.5537 22.5795 23.646 22.5459 23.746L22.925 23.8735C22.9419 23.8235 22.9684 23.7774 23.0031 23.7377L22.7021 23.4743ZM22.5459 23.746C22.5123 23.8459 22.4988 23.9516 22.5061 24.0568L22.9051 24.0289C22.9015 23.9763 22.9082 23.9235 22.925 23.8735L22.5459 23.746ZM22.5061 24.0568C22.5135 24.162 22.5415 24.2647 22.5887 24.359L22.9464 24.18C22.9228 24.1329 22.9088 24.0815 22.9051 24.0289L22.5061 24.0568ZM22.5887 24.359C22.6359 24.4533 22.7013 24.5374 22.7811 24.6063L23.0426 24.3037C23.0027 24.2692 22.97 24.2272 22.9464 24.18L22.5887 24.359ZM22.7811 24.6063C22.8609 24.6753 22.9535 24.7278 23.0537 24.7608L23.1789 24.3809C23.1288 24.3644 23.0825 24.3382 23.0426 24.3037L22.7811 24.6063ZM23.0537 24.7608C23.1538 24.7939 23.2595 24.8067 23.3647 24.7988L23.3344 24.3999C23.2819 24.4039 23.229 24.3975 23.1789 24.3809L23.0537 24.7608ZM23.3647 24.7988C23.4699 24.7908 23.5724 24.7621 23.6664 24.7143L23.4853 24.3577C23.4383 24.3816 23.387 24.3959 23.3344 24.3999L23.3647 24.7988ZM23.6664 24.7143C23.7605 24.6666 23.8441 24.6007 23.9126 24.5205L23.6084 24.2608C23.5741 24.3009 23.5323 24.3338 23.4853 24.3577L23.6664 24.7143ZM23.9119 24.5213C23.916 24.5166 23.9209 24.5108 23.9261 24.5044L23.6151 24.2528C23.6137 24.2546 23.6118 24.2568 23.6091 24.2599L23.9119 24.5213ZM23.9236 24.5074L25.5964 22.52L25.2904 22.2624L23.6176 24.2498L23.9236 24.5074ZM25.5965 22.52C25.7178 22.3758 25.7844 22.1934 25.7844 22.0049H25.3844C25.3844 22.0991 25.3511 22.1904 25.2904 22.2625L25.5965 22.52ZM25.7844 22.0049C25.7844 21.8164 25.7178 21.634 25.5965 21.4898L25.2904 21.7473C25.3511 21.8194 25.3844 21.9107 25.3844 22.0049H25.7844ZM25.5964 21.4898L23.9236 19.5025L23.6176 19.7601L25.2904 21.7474L25.5964 21.4898ZM18.4036 19.4057C18.2412 19.2691 18.0313 19.2025 17.8199 19.2206L17.8541 19.6192C17.9598 19.6101 18.0648 19.6434 18.146 19.7117L18.4036 19.4057ZM17.8199 19.2206C17.6085 19.2388 17.413 19.3402 17.2764 19.5025L17.5824 19.7601C17.6507 19.679 17.7484 19.6283 17.8541 19.6192L17.8199 19.2206ZM17.2763 19.5025L15.6035 21.4899L15.9095 21.7475L17.5824 19.7601L17.2763 19.5025ZM15.6035 21.49C15.4821 21.6342 15.4156 21.8166 15.4156 22.0051H15.8156C15.8156 21.9108 15.8488 21.8196 15.9095 21.7475L15.6035 21.49ZM15.4156 22.0051C15.4156 22.1936 15.4821 22.376 15.6035 22.5202L15.9095 22.2626C15.8488 22.1905 15.8156 22.0993 15.8156 22.0051H15.4156ZM15.6035 22.5202L17.2764 24.5076L17.5824 24.25L15.9095 22.2626L15.6035 22.5202ZM17.278 24.5096C17.4156 24.6687 17.6103 24.7673 17.82 24.784L17.8517 24.3853C17.7468 24.3769 17.6495 24.3276 17.5807 24.248L17.278 24.5096ZM17.82 24.784C18.0297 24.8007 18.2376 24.734 18.3985 24.5986L18.1409 24.2925C18.0605 24.3603 17.9565 24.3936 17.8517 24.3853L17.82 24.784ZM18.3985 24.5986C18.5595 24.4631 18.6606 24.2697 18.68 24.0602L18.2817 24.0233C18.272 24.1281 18.2214 24.2248 18.1409 24.2925L18.3985 24.5986ZM18.68 24.0602C18.6993 23.8507 18.6354 23.642 18.502 23.4793L18.1927 23.7329C18.2594 23.8143 18.2913 23.9186 18.2817 24.0233L18.68 24.0602ZM18.5004 23.4773L17.153 21.8763L16.847 22.1339L18.1943 23.7349L18.5004 23.4773ZM17.153 22.1339L18.5006 20.5328L18.1946 20.2752L16.847 21.8763L17.153 22.1339ZM18.5006 20.5328C18.6372 20.3704 18.7037 20.1605 18.6855 19.9491L18.287 19.9835C18.2961 20.0891 18.2628 20.1941 18.1946 20.2753L18.5006 20.5328ZM18.6855 19.9491C18.6673 19.7377 18.5659 19.5423 18.4035 19.4057L18.146 19.7117C18.2272 19.78 18.2779 19.8778 18.287 19.9835L18.6855 19.9491ZM21.6735 17.9958C21.5721 17.9685 21.4663 17.9615 21.3621 17.9751L21.4139 18.3717C21.466 18.3649 21.5188 18.3684 21.5695 18.3821L21.6735 17.9958ZM21.3621 17.9751C21.258 17.9887 21.1575 18.0227 21.0665 18.0751L21.2662 18.4217C21.3117 18.3955 21.3619 18.3785 21.4139 18.3717L21.3621 17.9751ZM21.0665 18.0751C20.9755 18.1275 20.8957 18.1973 20.8317 18.2806L21.1488 18.5244C21.1808 18.4828 21.2207 18.4479 21.2662 18.4217L21.0665 18.0751ZM20.8317 18.2806C20.7677 18.3639 20.7207 18.4589 20.6934 18.5604L21.0797 18.6642C21.0934 18.6135 21.1168 18.566 21.1488 18.5244L20.8317 18.2806ZM20.6878 18.5902L20.6877 18.5912L21.0853 18.6354L21.0854 18.6344L20.6878 18.5902ZM20.6933 18.5616L18.9608 25.0348L19.3472 25.1382L21.0797 18.665L20.6933 18.5616ZM18.9608 25.0348C18.906 25.2398 18.9348 25.4581 19.0409 25.6418L19.3872 25.4418C19.3342 25.3499 19.3198 25.2407 19.3472 25.1382L18.9608 25.0348ZM19.0409 25.6418C19.147 25.8256 19.3218 25.9596 19.5268 26.0145L19.6302 25.6281C19.5277 25.6006 19.4403 25.5336 19.3872 25.4418L19.0409 25.6418ZM19.5268 26.0145C19.7317 26.0693 19.9501 26.0405 20.1338 25.9344L19.9337 25.588C19.8418 25.6411 19.7327 25.6555 19.6302 25.6281L19.5268 26.0145ZM20.1338 25.9344C20.3175 25.8283 20.4515 25.6535 20.5064 25.4485L20.12 25.3451C20.0926 25.4476 20.0256 25.535 19.9337 25.588L20.1338 25.9344ZM20.5064 25.4485L22.2391 18.9756L21.8527 18.8722L20.12 25.3451L20.5064 25.4485ZM22.2391 18.9758C22.2663 18.8743 22.2733 18.7684 22.2596 18.6643L21.863 18.7164C21.8699 18.7684 21.8664 18.8214 21.8528 18.8721L22.2391 18.9758ZM22.2596 18.6643C22.2459 18.5601 22.2119 18.4596 22.1594 18.3686L21.8129 18.5685C21.8392 18.614 21.8562 18.6643 21.863 18.7164L22.2596 18.6643ZM22.1594 18.3686C22.1068 18.2776 22.0369 18.1978 21.9536 18.1339L21.71 18.4512C21.7517 18.4831 21.7866 18.523 21.8129 18.5685L22.1594 18.3686ZM21.9536 18.1339C21.8702 18.0699 21.7751 18.023 21.6736 17.9957L21.57 18.3821C21.6208 18.3957 21.6683 18.4192 21.71 18.4512L21.9536 18.1339ZM21.6051 17.9896L21.6048 17.9896L21.6382 18.3882L21.6385 18.3882L21.6051 17.9896Z" fill="#FF8AB4" mask="url(#path-2-outside-1_2055_8539)"/>
</g>
<defs>
<filter id="filter0_d_2055_8539" x="-3.5" y="-4" width="50" height="50" filterUnits="userSpaceOnUse" color-interpolation-filters="sRGB">
<feFlood flood-opacity="0" result="BackgroundImageFix"/>
<feColorMatrix in="SourceAlpha" type="matrix" values="0 0 0 0 0 0 0 0 0 0 0 0 0 0 0 0 0 0 127 0" result="hardAlpha"/>
<feOffset dx="1" dy="1"/>
<feGaussianBlur stdDeviation="2.5"/>
<feComposite in2="hardAlpha" operator="out"/>
<feColorMatrix type="matrix" values="0 0 0 0 0.863281 0 0 0 0 0.870955 0 0 0 0 0.920833 0 0 0 0.51 0"/>
<feBlend mode="normal" in2="BackgroundImageFix" result="effect1_dropShadow_2055_8539"/>
<feBlend mode="normal" in="SourceGraphic" in2="effect1_dropShadow_2055_8539" result="shape"/>
</filter>
</defs>
</svg>
