<svg width="41" height="40" viewBox="0 0 41 40" fill="none" xmlns="http://www.w3.org/2000/svg">
<g filter="url(#filter0_d_1189_7557)">
<path fill-rule="evenodd" clip-rule="evenodd" d="M32.9324 8.94736H15.3864C15.0269 8.94736 14.7093 9.12737 14.5218 9.40052C14.4093 9.56403 14.3435 9.76104 14.3435 9.97294V21.4964H8.27545C7.76099 21.4964 7.34229 21.9082 7.34229 22.4141V25.8497C7.34229 26.0432 7.4043 26.2224 7.50874 26.3705C7.4043 26.5187 7.34229 26.6979 7.34229 26.8914V30.3268C7.34229 30.8327 7.76099 31.2445 8.27545 31.2445H21.2194C21.7338 31.2445 22.1525 30.8327 22.1525 30.3268V26.8914C22.1525 26.6979 22.0905 26.5187 21.9861 26.3705C22.0053 26.3433 22.0208 26.3139 22.0364 26.2843L22.0437 26.2706H32.9338C33.508 26.2706 33.9749 25.8113 33.9749 25.2467V13.4339V9.97294V9.97255C33.9749 9.40736 33.5072 8.94736 32.9324 8.94736ZM21.3455 30.3267C21.3455 30.3951 21.2889 30.4507 21.2194 30.4507H8.27546C8.20592 30.4507 8.14936 30.3951 8.14936 30.3267V26.8913C8.14936 26.8229 8.20592 26.7673 8.27546 26.7673H21.2194C21.2889 26.7673 21.3455 26.8229 21.3455 26.8913V30.3267ZM21.2194 25.9737C21.2889 25.9737 21.3455 25.9181 21.3455 25.8497V22.4141C21.3455 22.3457 21.2889 22.2901 21.2194 22.2901H14.7481L14.747 22.2903L14.746 22.2901H8.27546C8.20592 22.2901 8.14936 22.3457 8.14936 22.4141V25.8497C8.14936 25.9181 8.20592 25.9737 8.27546 25.9737H21.2194ZM33.1679 25.2467C33.1679 25.3758 33.065 25.4769 32.9338 25.4769H22.1525V22.4141C22.1525 21.9082 21.7338 21.4965 21.2194 21.4965H15.1505V13.8308H33.1679V25.2467ZM15.151 13.0371H33.168V9.97287C33.168 9.96994 33.1672 9.96727 33.1664 9.96461C33.1658 9.96229 33.1651 9.95997 33.1649 9.95746C33.1598 9.88394 33.1197 9.82241 33.0609 9.78357C33.024 9.75984 32.9822 9.74268 32.9339 9.74268H15.3845C15.3519 9.74268 15.321 9.74901 15.293 9.76044C15.2097 9.79614 15.151 9.87755 15.151 9.97248V13.0371Z" fill="#AD50FF"/>
<path d="M14.5218 9.40052L14.7278 9.54225L14.7279 9.54199L14.5218 9.40052ZM14.3435 21.4964V21.7464H14.5935V21.4964H14.3435ZM7.50874 26.3705L7.71308 26.5146L7.81459 26.3705L7.71308 26.2265L7.50874 26.3705ZM21.9861 26.3705L21.7817 26.2266L21.6803 26.3706L21.7817 26.5146L21.9861 26.3705ZM22.0364 26.2843L21.8154 26.1674L21.8153 26.1676L22.0364 26.2843ZM22.0437 26.2706V26.0206H21.8931L21.8227 26.1537L22.0437 26.2706ZM14.7481 22.2901V22.0401H14.7238L14.6999 22.0448L14.7481 22.2901ZM14.747 22.2903L14.6988 22.5356L14.747 22.5451L14.7952 22.5356L14.747 22.2903ZM14.746 22.2901L14.7942 22.0448L14.7703 22.0401H14.746V22.2901ZM22.1525 25.4769H21.9025V25.7269H22.1525V25.4769ZM15.1505 21.4965H14.9005V21.7465H15.1505V21.4965ZM15.1505 13.8308V13.5808H14.9005V13.8308H15.1505ZM33.1679 13.8308H33.4179V13.5808H33.1679V13.8308ZM33.168 13.0371V13.2871H33.418V13.0371H33.168ZM15.151 13.0371H14.901V13.2871H15.151V13.0371ZM33.1664 9.96461L33.4064 9.8946L33.4064 9.89451L33.1664 9.96461ZM33.1649 9.95746L33.4143 9.94059L33.4143 9.94028L33.1649 9.95746ZM33.0609 9.78357L33.1986 9.57492L33.1962 9.57333L33.0609 9.78357ZM15.293 9.76044L15.1985 9.52894L15.1946 9.53064L15.293 9.76044ZM15.3864 9.19736H32.9324V8.69736H15.3864V9.19736ZM14.7279 9.54199C14.8703 9.33456 15.1119 9.19736 15.3864 9.19736V8.69736C14.9418 8.69736 14.5483 8.92018 14.3157 9.25905L14.7279 9.54199ZM14.5935 9.97294C14.5935 9.81368 14.6428 9.66576 14.7278 9.54225L14.3159 9.25879C14.1758 9.4623 14.0935 9.70841 14.0935 9.97294H14.5935ZM14.5935 21.4964V9.97294H14.0935V21.4964H14.5935ZM8.27545 21.7464H14.3435V21.2464H8.27545V21.7464ZM7.59229 22.4141C7.59229 22.0502 7.89509 21.7464 8.27545 21.7464V21.2464C7.62689 21.2464 7.09229 21.7662 7.09229 22.4141H7.59229ZM7.59229 25.8497V22.4141H7.09229V25.8497H7.59229ZM7.71308 26.2265C7.63661 26.118 7.59229 25.9887 7.59229 25.8497H7.09229C7.09229 26.0977 7.17198 26.3267 7.30439 26.5146L7.71308 26.2265ZM7.59229 26.8914C7.59229 26.7524 7.63662 26.6231 7.71308 26.5146L7.30439 26.2265C7.17198 26.4144 7.09229 26.6434 7.09229 26.8914H7.59229ZM7.59229 30.3268V26.8914H7.09229V30.3268H7.59229ZM8.27545 30.9945C7.8951 30.9945 7.59229 30.6907 7.59229 30.3268H7.09229C7.09229 30.9747 7.62688 31.4945 8.27545 31.4945V30.9945ZM21.2194 30.9945H8.27545V31.4945H21.2194V30.9945ZM21.9025 30.3268C21.9025 30.6907 21.5997 30.9945 21.2194 30.9945V31.4945C21.8679 31.4945 22.4025 30.9747 22.4025 30.3268H21.9025ZM21.9025 26.8914V30.3268H22.4025V26.8914H21.9025ZM21.7817 26.5146C21.8582 26.6231 21.9025 26.7524 21.9025 26.8914H22.4025C22.4025 26.6434 22.3228 26.4144 22.1904 26.2265L21.7817 26.5146ZM21.8153 26.1676C21.7984 26.1996 21.7901 26.2147 21.7817 26.2266L22.1905 26.5145C22.2204 26.472 22.2432 26.4281 22.2575 26.401L21.8153 26.1676ZM21.8227 26.1537L21.8154 26.1674L22.2574 26.4012L22.2647 26.3875L21.8227 26.1537ZM32.9338 26.0206H22.0437V26.5206H32.9338V26.0206ZM33.7249 25.2467C33.7249 25.6693 33.3739 26.0206 32.9338 26.0206V26.5206C33.6421 26.5206 34.2249 25.9534 34.2249 25.2467H33.7249ZM33.7249 13.4339V25.2467H34.2249V13.4339H33.7249ZM33.7249 9.97294V13.4339H34.2249V9.97294H33.7249ZM33.7249 9.97255V9.97294H34.2249V9.97255H33.7249ZM32.9324 9.19736C33.3731 9.19736 33.7249 9.54936 33.7249 9.97255H34.2249C34.2249 9.26535 33.6413 8.69736 32.9324 8.69736V9.19736ZM21.2194 30.7007C21.423 30.7007 21.5955 30.5372 21.5955 30.3267H21.0955C21.0955 30.2531 21.1549 30.2007 21.2194 30.2007V30.7007ZM8.27546 30.7007H21.2194V30.2007H8.27546V30.7007ZM7.89936 30.3267C7.89936 30.5372 8.07184 30.7007 8.27546 30.7007V30.2007C8.33999 30.2007 8.39936 30.2531 8.39936 30.3267H7.89936ZM7.89936 26.8913V30.3267H8.39936V26.8913H7.89936ZM8.27546 26.5173C8.07181 26.5173 7.89936 26.6809 7.89936 26.8913H8.39936C8.39936 26.9649 8.34002 27.0173 8.27546 27.0173V26.5173ZM21.2194 26.5173H8.27546V27.0173H21.2194V26.5173ZM21.5955 26.8913C21.5955 26.6809 21.423 26.5173 21.2194 26.5173V27.0173C21.1548 27.0173 21.0955 26.9649 21.0955 26.8913H21.5955ZM21.5955 30.3267V26.8913H21.0955V30.3267H21.5955ZM21.0955 25.8497C21.0955 25.7761 21.1548 25.7237 21.2194 25.7237V26.2237C21.423 26.2237 21.5955 26.0601 21.5955 25.8497H21.0955ZM21.0955 22.4141V25.8497H21.5955V22.4141H21.0955ZM21.2194 22.5401C21.1548 22.5401 21.0955 22.4877 21.0955 22.4141H21.5955C21.5955 22.2037 21.423 22.0401 21.2194 22.0401V22.5401ZM14.7481 22.5401H21.2194V22.0401H14.7481V22.5401ZM14.7952 22.5356L14.7963 22.5354L14.6999 22.0448L14.6988 22.045L14.7952 22.5356ZM14.6977 22.5354L14.6988 22.5356L14.7953 22.045L14.7942 22.0448L14.6977 22.5354ZM8.27546 22.5401H14.746V22.0401H8.27546V22.5401ZM8.39936 22.4141C8.39936 22.4877 8.34002 22.5401 8.27546 22.5401V22.0401C8.07181 22.0401 7.89936 22.2037 7.89936 22.4141H8.39936ZM8.39936 25.8497V22.4141H7.89936V25.8497H8.39936ZM8.27546 25.7237C8.34002 25.7237 8.39936 25.7761 8.39936 25.8497H7.89936C7.89936 26.0601 8.07181 26.2237 8.27546 26.2237V25.7237ZM21.2194 25.7237H8.27546V26.2237H21.2194V25.7237ZM32.9338 25.7269C33.1991 25.7269 33.4179 25.5178 33.4179 25.2467H32.9179C32.9179 25.2455 32.9182 25.2429 32.9195 25.2397C32.9208 25.2367 32.9226 25.2341 32.9247 25.232C32.9294 25.2274 32.9338 25.2269 32.9338 25.2269V25.7269ZM22.1525 25.7269H32.9338V25.2269H22.1525V25.7269ZM21.9025 22.4141V25.4769H22.4025V22.4141H21.9025ZM21.2194 21.7465C21.5997 21.7465 21.9025 22.0502 21.9025 22.4141H22.4025C22.4025 21.7662 21.8679 21.2465 21.2194 21.2465V21.7465ZM15.1505 21.7465H21.2194V21.2465H15.1505V21.7465ZM14.9005 13.8308V21.4965H15.4005V13.8308H14.9005ZM33.1679 13.5808H15.1505V14.0808H33.1679V13.5808ZM33.4179 25.2467V13.8308H32.9179V25.2467H33.4179ZM33.168 12.7871H15.151V13.2871H33.168V12.7871ZM32.918 9.97287V13.0371H33.418V9.97287H32.918ZM32.9264 10.0346C32.9272 10.0374 32.9249 10.0299 32.923 10.0208C32.9208 10.0103 32.918 9.99359 32.918 9.97287H33.418C33.418 9.94922 33.4148 9.92975 33.412 9.9165C33.4106 9.90996 33.4092 9.9046 33.4083 9.90106C33.4074 9.89779 33.4065 9.8949 33.4064 9.8946L32.9264 10.0346ZM32.9155 9.97432C32.9167 9.99274 32.9197 10.0078 32.922 10.0178C32.9241 10.0268 32.9264 10.0347 32.9265 10.0347L33.4064 9.89451C33.4057 9.89224 33.4074 9.89773 33.409 9.90443C33.4108 9.91208 33.4133 9.92469 33.4143 9.94059L32.9155 9.97432ZM32.9232 9.9922C32.9238 9.99263 32.9221 9.99166 32.9199 9.98804C32.9174 9.98403 32.9158 9.97904 32.9155 9.97463L33.4143 9.94028C33.4034 9.78128 33.3157 9.65224 33.1986 9.57493L32.9232 9.9922ZM32.9339 9.99268C32.9278 9.99268 32.9228 9.99148 32.9204 9.99064C32.9185 9.98999 32.9201 9.99024 32.9256 9.99381L33.1962 9.57333C33.1332 9.53282 33.0447 9.49268 32.9339 9.49268V9.99268ZM15.3845 9.99268H32.9339V9.49268H15.3845V9.99268ZM15.3875 9.9919C15.3856 9.99265 15.3844 9.99268 15.3845 9.99268V9.49268C15.3193 9.49268 15.2563 9.50538 15.1985 9.52898L15.3875 9.9919ZM15.401 9.97248C15.401 9.9774 15.3993 9.98216 15.3972 9.98532C15.3953 9.98801 15.3933 9.98944 15.3914 9.99025L15.1946 9.53064C15.0254 9.60308 14.901 9.771 14.901 9.97248H15.401ZM15.401 13.0371V9.97248H14.901V13.0371H15.401Z" fill="#AD50FF"/>
<path d="M24.2723 11.4249H16.4252C16.1976 11.4249 16.0132 11.5635 16.0132 11.7346C16.0132 11.9056 16.1976 12.0442 16.4252 12.0442H24.2723C24.4998 12.0442 24.6843 11.9056 24.6843 11.7346C24.6843 11.5635 24.4998 11.4249 24.2723 11.4249Z" fill="#AD50FF" stroke="#AD50FF" stroke-width="0.5"/>
<path d="M31.6175 11.4249H31.3771C31.1015 11.4249 30.8779 11.5635 30.8779 11.7346C30.8779 11.9056 31.1015 12.0442 31.3771 12.0442H31.6175C31.8932 12.0442 32.1167 11.9056 32.1167 11.7346C32.1167 11.5635 31.8932 11.4249 31.6175 11.4249Z" fill="#AD50FF" stroke="#AD50FF" stroke-width="0.5"/>
<path d="M29.1404 11.4249H28.9001C28.6244 11.4249 28.4009 11.5635 28.4009 11.7346C28.4009 11.9056 28.6244 12.0442 28.9001 12.0442H29.1404C29.4161 12.0442 29.6396 11.9056 29.6396 11.7346C29.6396 11.5635 29.4161 11.4249 29.1404 11.4249Z" fill="#AD50FF" stroke="#AD50FF" stroke-width="0.5"/>
<path d="M27.282 11.4249H27.0417C26.766 11.4249 26.5425 11.5635 26.5425 11.7346C26.5425 11.9056 26.766 12.0442 27.0417 12.0442H27.282C27.5577 12.0442 27.7812 11.9056 27.7812 11.7346C27.7812 11.5635 27.5577 11.4249 27.282 11.4249Z" fill="#AD50FF" stroke="#AD50FF" stroke-width="0.5"/>
<path d="M20.8876 21.2086C20.9677 21.2926 21.0727 21.3346 21.1776 21.3346C21.2826 21.3346 21.3875 21.2926 21.4676 21.2086C21.6279 21.0406 21.6279 20.7684 21.4676 20.6004L20.1005 19.1668L21.4676 17.7332C21.6279 17.5652 21.6279 17.293 21.4676 17.125C21.3074 16.957 21.0479 16.957 20.8876 17.125L19.2305 18.8627C19.0703 19.0307 19.0703 19.3029 19.2305 19.4709L20.8876 21.2086Z" fill="#AD50FF" stroke="#AD50FF" stroke-width="0.5"/>
<path d="M26.6627 21.2086C26.7428 21.2926 26.8477 21.3346 26.9526 21.3346C27.0576 21.3346 27.1625 21.2926 27.2427 21.2086L28.8998 19.4709C29.06 19.3029 29.06 19.0307 28.8998 18.8627L27.2427 17.125C27.0824 16.957 26.8229 16.957 26.6627 17.125C26.5024 17.293 26.5024 17.5652 26.6627 17.7332L28.0298 19.1668L26.6627 20.6004C26.5024 20.7684 26.5024 21.0406 26.6627 21.2086Z" fill="#AD50FF" stroke="#AD50FF" stroke-width="0.5"/>
<path d="M22.4316 21.9163C22.484 21.942 22.5389 21.9541 22.593 21.9541C22.7389 21.9541 22.8787 21.8656 22.9438 21.7151L25.2684 16.3436C25.3575 16.1373 25.2729 15.8933 25.0793 15.7984C24.8859 15.7031 24.6564 15.7934 24.5671 15.9997L22.2425 21.3712C22.1534 21.5775 22.238 21.8215 22.4316 21.9163Z" fill="#AD50FF" stroke="#AD50FF" stroke-width="0.5"/>
<path d="M13.126 23.8121H8.99102C8.76461 23.8121 8.58105 23.9508 8.58105 24.1218C8.58105 24.2928 8.76461 24.4315 8.99102 24.4315H13.126C13.3524 24.4315 13.536 24.2928 13.536 24.1218C13.536 23.9508 13.3524 23.8121 13.126 23.8121Z" fill="#AD50FF" stroke="#AD50FF" stroke-width="0.5"/>
<path d="M19.2504 23.8121H18.9697C18.7052 23.8121 18.4907 23.9508 18.4907 24.1218C18.4907 24.2928 18.7052 24.4315 18.9697 24.4315H19.2504C19.5149 24.4315 19.7295 24.2928 19.7295 24.1218C19.7295 23.9508 19.5149 23.8121 19.2504 23.8121Z" fill="#AD50FF" stroke="#AD50FF" stroke-width="0.5"/>
<path d="M16.7729 23.8121H16.4922C16.2277 23.8121 16.0132 23.9508 16.0132 24.1218C16.0132 24.2928 16.2277 24.4315 16.4922 24.4315H16.7729C17.0374 24.4315 17.2519 24.2928 17.2519 24.1218C17.2519 23.9508 17.0374 23.8121 16.7729 23.8121Z" fill="#AD50FF" stroke="#AD50FF" stroke-width="0.5"/>
<path d="M13.126 28.767H8.99102C8.76461 28.767 8.58105 28.9056 8.58105 29.0766C8.58105 29.2477 8.76461 29.3863 8.99102 29.3863H13.126C13.3524 29.3863 13.536 29.2477 13.536 29.0766C13.536 28.9056 13.3524 28.767 13.126 28.767Z" fill="#AD50FF" stroke="#AD50FF" stroke-width="0.5"/>
<path d="M19.2504 28.767H18.9697C18.7052 28.767 18.4907 28.9056 18.4907 29.0766C18.4907 29.2477 18.7052 29.3863 18.9697 29.3863H19.2504C19.5149 29.3863 19.7295 29.2477 19.7295 29.0766C19.7295 28.9056 19.5149 28.767 19.2504 28.767Z" fill="#AD50FF" stroke="#AD50FF" stroke-width="0.5"/>
<path d="M16.7729 28.767H16.4922C16.2277 28.767 16.0132 28.9056 16.0132 29.0766C16.0132 29.2477 16.2277 29.3863 16.4922 29.3863H16.7729C17.0374 29.3863 17.2519 29.2477 17.2519 29.0766C17.2519 28.9056 17.0374 28.767 16.7729 28.767Z" fill="#AD50FF" stroke="#AD50FF" stroke-width="0.5"/>
</g>
<defs>
<filter id="filter0_d_1189_7557" x="-3.5" y="-4" width="50" height="50" filterUnits="userSpaceOnUse" color-interpolation-filters="sRGB">
<feFlood flood-opacity="0" result="BackgroundImageFix"/>
<feColorMatrix in="SourceAlpha" type="matrix" values="0 0 0 0 0 0 0 0 0 0 0 0 0 0 0 0 0 0 127 0" result="hardAlpha"/>
<feOffset dx="1" dy="1"/>
<feGaussianBlur stdDeviation="2.5"/>
<feComposite in2="hardAlpha" operator="out"/>
<feColorMatrix type="matrix" values="0 0 0 0 0.863281 0 0 0 0 0.870955 0 0 0 0 0.920833 0 0 0 0.51 0"/>
<feBlend mode="normal" in2="BackgroundImageFix" result="effect1_dropShadow_1189_7557"/>
<feBlend mode="normal" in="SourceGraphic" in2="effect1_dropShadow_1189_7557" result="shape"/>
</filter>
</defs>
</svg>
