<svg width="40" height="40" viewBox="0 0 40 40" fill="none" xmlns="http://www.w3.org/2000/svg">
<g filter="url(#filter0_d_1207_7754)">
<path d="M11.8082 21.6014C13.0609 21.6014 14.0803 20.5824 14.0803 19.3297C14.0803 18.077 13.0609 17.0572 11.8082 17.0568C10.5555 17.0568 9.53617 18.0766 9.53617 19.3297C9.53617 20.5824 10.5555 21.6014 11.8082 21.6014ZM11.8078 18.4364C12.3002 18.4364 12.7003 18.8373 12.7003 19.3293C12.7003 19.8212 12.3002 20.221 11.8078 20.221C11.3155 20.221 10.9153 19.8212 10.9153 19.3293C10.9161 18.8369 11.3163 18.4364 11.8078 18.4364Z" fill="#B5B8D0"/>
<path d="M12.5502 22.8936H11.0658C9.5427 22.8936 8.30347 24.1349 8.30347 25.6592V27.8815C8.30347 28.2625 8.61226 28.5713 8.99324 28.5713C9.37423 28.5713 9.68302 28.2617 9.68302 27.8815V25.6592C9.68302 24.8952 10.3035 24.2736 11.0654 24.2736H12.5498C13.3138 24.2736 13.9351 24.8952 13.9351 25.6592V27.8815C13.9351 28.2625 14.2439 28.5713 14.6249 28.5713C15.0058 28.5713 15.3146 28.2617 15.3146 27.8815V25.6592C15.315 24.1349 14.0746 22.8936 12.5502 22.8936Z" fill="#B5B8D0"/>
<path d="M20.2136 21.6014C21.4663 21.6014 22.4853 20.5824 22.4853 19.3297C22.4853 18.077 21.4663 17.0572 20.2136 17.0568C18.961 17.0568 17.9416 18.0766 17.9416 19.3297C17.9416 20.5824 18.961 21.6014 20.2136 21.6014ZM20.2132 18.4364C20.7056 18.4364 21.1057 18.8373 21.1057 19.3293C21.1057 19.8212 20.706 20.221 20.2132 20.221C19.7205 20.221 19.3207 19.8212 19.3207 19.3293C19.3215 18.8369 19.7217 18.4364 20.2132 18.4364Z" fill="#B5B8D0"/>
<path d="M18.2687 13.7009C18.2687 12.4478 17.249 11.4285 15.9958 11.4285C14.7432 11.4285 13.7238 12.4482 13.7238 13.7009C13.7238 14.9536 14.7432 15.973 15.9958 15.973C17.249 15.973 18.2687 14.9536 18.2687 13.7009ZM15.9958 14.5934C15.5039 14.5934 15.1037 14.1933 15.1037 13.7009C15.1037 13.2086 15.5039 12.8084 15.9958 12.8084C16.4886 12.8084 16.8888 13.2086 16.8888 13.7009C16.8892 14.1929 16.4886 14.5934 15.9958 14.5934Z" fill="#B5B8D0"/>
<path d="M26.6831 13.7009C26.6831 12.4478 25.6633 11.4285 24.411 11.4285C23.1584 11.4285 22.1394 12.4482 22.1394 13.7009C22.1394 14.9536 23.1584 15.973 24.411 15.973C25.6633 15.973 26.6831 14.9536 26.6831 13.7009ZM24.411 14.5934C23.9191 14.5934 23.5185 14.1933 23.5185 13.7009C23.5185 13.2086 23.9183 12.8084 24.411 12.8084C24.9038 12.8084 25.3036 13.2086 25.3036 13.7009C25.3036 14.1929 24.903 14.5934 24.411 14.5934Z" fill="#B5B8D0"/>
<path d="M20.9556 22.8936H19.4717C17.9481 22.8936 16.7089 24.1349 16.7089 25.6592V27.8815C16.7089 28.2625 17.0177 28.5713 17.3987 28.5713C17.7796 28.5713 18.0884 28.2617 18.0884 27.8815V25.6592C18.0884 24.8952 18.7089 24.2736 19.4717 24.2736H20.9556C21.7188 24.2736 22.3405 24.8952 22.3405 25.6592V27.8815C22.3405 28.2625 22.6497 28.5713 23.0303 28.5713C23.4108 28.5713 23.7196 28.2617 23.7196 27.8815V25.6592C23.7205 24.1349 22.4808 22.8936 20.9556 22.8936Z" fill="#B5B8D0"/>
<path d="M28.6186 21.6014C29.8717 21.6014 30.8915 20.5824 30.8915 19.3297C30.8915 18.077 29.8722 17.0572 28.6186 17.0568C27.3668 17.0568 26.3478 18.0766 26.3478 19.3297C26.347 20.5824 27.3659 21.6014 28.6186 21.6014ZM28.6186 18.4364C29.111 18.4364 29.5116 18.8373 29.5116 19.3293C29.5116 19.8212 29.111 20.221 28.6186 20.221C28.1271 20.221 27.727 19.8212 27.727 19.3293C27.727 18.8369 28.1267 18.4364 28.6186 18.4364Z" fill="#B5B8D0"/>
<path d="M29.3619 22.8936H27.8775C26.3543 22.8936 25.1147 24.1349 25.1147 25.6592V27.8815C25.1147 28.2625 25.4239 28.5713 25.8045 28.5713C26.185 28.5713 26.4942 28.2617 26.4942 27.8815V25.6592C26.4942 24.8952 27.1147 24.2736 27.8775 24.2736H29.3619C30.1255 24.2736 30.7467 24.8952 30.7467 25.6592V27.8815C30.7467 28.2625 31.0563 28.5713 31.4365 28.5713C31.8175 28.5713 32.1263 28.2617 32.1263 27.8815V25.6592C32.1263 24.1349 30.8862 22.8936 29.3619 22.8936Z" fill="#B5B8D0"/>
</g>
<defs>
<filter id="filter0_d_1207_7754" x="-4" y="-4" width="50" height="50" filterUnits="userSpaceOnUse" color-interpolation-filters="sRGB">
<feFlood flood-opacity="0" result="BackgroundImageFix"/>
<feColorMatrix in="SourceAlpha" type="matrix" values="0 0 0 0 0 0 0 0 0 0 0 0 0 0 0 0 0 0 127 0" result="hardAlpha"/>
<feOffset dx="1" dy="1"/>
<feGaussianBlur stdDeviation="2.5"/>
<feComposite in2="hardAlpha" operator="out"/>
<feColorMatrix type="matrix" values="0 0 0 0 0.863281 0 0 0 0 0.870955 0 0 0 0 0.920833 0 0 0 0.51 0"/>
<feBlend mode="normal" in2="BackgroundImageFix" result="effect1_dropShadow_1207_7754"/>
<feBlend mode="normal" in="SourceGraphic" in2="effect1_dropShadow_1207_7754" result="shape"/>
</filter>
</defs>
</svg>
