<svg width="41" height="40" viewBox="0 0 41 40" fill="none" xmlns="http://www.w3.org/2000/svg">
<rect width="40" height="40" transform="translate(0.5)" fill="white"/>
<path fill-rule="evenodd" clip-rule="evenodd" d="M9.5 12.3333C9.5 11.597 10.2036 11 11.0714 11H18.9286C19.7964 11 20.5 11.597 20.5 12.3333V17.6667C20.5 18.403 19.7964 19 18.9286 19H11.0714C10.2036 19 9.5 18.403 9.5 17.6667V12.3333ZM11.5 12C10.9477 12 10.5 12.4477 10.5 13V17C10.5 17.5523 10.9477 18 11.5 18H18.5C19.0523 18 19.5 17.5523 19.5 17V13C19.5 12.4477 19.0523 12 18.5 12H11.5Z" fill="#AD50FF"/>
<path fill-rule="evenodd" clip-rule="evenodd" d="M9.5 21.3333C9.5 20.597 10.1396 20 10.9286 20H18.0714C18.8604 20 19.5 20.597 19.5 21.3333V26.6667C19.5 27.403 18.8604 28 18.0714 28H10.9286C10.1396 28 9.5 27.403 9.5 26.6667V21.3333ZM11.5 21C10.9477 21 10.5 21.4477 10.5 22V26C10.5 26.5523 10.9477 27 11.5 27H17.5C18.0523 27 18.5 26.5523 18.5 26V22C18.5 21.4477 18.0523 21 17.5 21H11.5Z" fill="#AD50FF"/>
<path fill-rule="evenodd" clip-rule="evenodd" d="M21.5 21.3333C21.5 20.597 22.1396 20 22.9286 20H30.0714C30.8604 20 31.5 20.597 31.5 21.3333V26.6667C31.5 27.403 30.8604 28 30.0714 28H22.9286C22.1396 28 21.5 27.403 21.5 26.6667V21.3333ZM23.5 21C22.9477 21 22.5 21.4477 22.5 22V26C22.5 26.5523 22.9477 27 23.5 27H29.5C30.0523 27 30.5 26.5523 30.5 26V22C30.5 21.4477 30.0523 21 29.5 21H23.5Z" fill="#AD50FF"/>
<path fill-rule="evenodd" clip-rule="evenodd" d="M21.5 11.5C21.5 10.6716 22.2036 10 23.0714 10H30.9286C31.7964 10 32.5 10.6716 32.5 11.5V17.5C32.5 18.3284 31.7964 19 30.9286 19H23.0714C22.2036 19 21.5 18.3284 21.5 17.5V11.5ZM23.5 11C22.9477 11 22.5 11.4477 22.5 12V17C22.5 17.5523 22.9477 18 23.5 18H30.5C31.0523 18 31.5 17.5523 31.5 17V12C31.5 11.4477 31.0523 11 30.5 11H23.5Z"  fill="#AD50FF"/>
<path d="M22.4999 17C24.9266 17 27.1144 18.4618 28.0431 20.7038C28.9718 22.9459 28.4585 25.5265 26.7425 27.2425C25.0265 28.9585 22.4459 29.4718 20.2039 28.5431C17.9618 27.6144 16.5 25.4267 16.5 22.9999C16.5038 19.6878 19.1878 17.0038 22.4999 17Z" fill="white"/>
<rect x="24.5" y="27.1213" width="3" height="9.55697" transform="rotate(-45 24.5 27.1213)" fill="white"/>
<path d="M22.5515 28.101C23.6461 28.1017 24.711 27.7445 25.584 27.0838L29.2911 30.793C29.5325 31.0341 29.9114 31.0687 30.1924 30.8752C30.2586 30.8198 30.3197 30.7586 30.3752 30.6924C30.5687 30.4112 30.5341 30.032 30.2931 29.7905L26.5859 26.0814C27.991 24.2074 27.9236 21.6128 26.4232 19.8143C24.9229 18.0159 22.3834 17.4859 20.2895 18.5341C18.1956 19.5823 17.0971 21.9336 17.6361 24.2133C18.1751 26.493 20.2102 28.1026 22.5515 28.101Z" fill="#AD50FF"/>
<path d="M22.4999 19C24.1178 19 25.5763 19.9746 26.1954 21.4692C26.8145 22.9639 26.4723 24.6843 25.3283 25.8283C24.1844 26.9723 22.4639 27.3145 20.9692 26.6954C19.4746 26.0763 18.5 24.6178 18.5 22.9999C18.5026 20.7919 20.2919 19.0026 22.4999 19Z" fill="white"/>
</svg>
