<svg width="41" height="40" viewBox="0 0 41 40" fill="none" xmlns="http://www.w3.org/2000/svg">
<g filter="url(#filter0_d_2046_8183)">
<path d="M17.6372 24.0372C17.3426 24.3459 16.8516 24.3516 16.5499 24.0499L12.5 20L16.5499 15.9501C16.8516 15.6484 17.3426 15.6541 17.6372 15.9628C17.9223 16.2615 17.9168 16.7332 17.6249 17.0251L14.65 20L17.6249 22.9749C17.9168 23.2668 17.9223 23.7385 17.6372 24.0372ZM13.5 26.1C13.5 25.6858 13.8358 25.35 14.25 25.35C14.6642 25.35 15 25.6858 15 26.1V27.25H26V26.1C26 25.6858 26.3358 25.35 26.75 25.35C27.1642 25.35 27.5 25.6858 27.5 26.1V29.5C27.5 29.9 27.35 30.25 27.05 30.55C26.75 30.85 26.4 31 26 31H15C14.6 31 14.25 30.85 13.95 30.55C13.65 30.25 13.5 29.9 13.5 29.5V26.1ZM15 13.6C15 14.0142 14.6642 14.35 14.25 14.35C13.8358 14.35 13.5 14.0142 13.5 13.6V10.5C13.5 10.1 13.65 9.75 13.95 9.45C14.25 9.15 14.6 9 15 9H26C26.4 9 26.75 9.15 27.05 9.45C27.35 9.75 27.5 10.1 27.5 10.5V13.6C27.5 14.0142 27.1642 14.35 26.75 14.35C26.3358 14.35 26 14.0142 26 13.6V12.75H15V13.6ZM15 28.75V29.5H26V28.75H15ZM15 11.25H26V10.5H15V11.25ZM24.4501 24.0499C24.1484 24.3516 23.6574 24.3459 23.3628 24.0372C23.0777 23.7385 23.0832 23.2668 23.3751 22.9749L26.35 20L23.3751 17.0251C23.0832 16.7332 23.0777 16.2615 23.3628 15.9628C23.6574 15.6541 24.1484 15.6484 24.4501 15.9501L28.5 20L24.4501 24.0499Z" fill="#00EDAF"/>
</g>
<defs>
<filter id="filter0_d_2046_8183" x="-3.5" y="-4" width="50" height="50" filterUnits="userSpaceOnUse" color-interpolation-filters="sRGB">
<feFlood flood-opacity="0" result="BackgroundImageFix"/>
<feColorMatrix in="SourceAlpha" type="matrix" values="0 0 0 0 0 0 0 0 0 0 0 0 0 0 0 0 0 0 127 0" result="hardAlpha"/>
<feOffset dx="1" dy="1"/>
<feGaussianBlur stdDeviation="2.5"/>
<feComposite in2="hardAlpha" operator="out"/>
<feColorMatrix type="matrix" values="0 0 0 0 0.863281 0 0 0 0 0.870955 0 0 0 0 0.920833 0 0 0 0.51 0"/>
<feBlend mode="normal" in2="BackgroundImageFix" result="effect1_dropShadow_2046_8183"/>
<feBlend mode="normal" in="SourceGraphic" in2="effect1_dropShadow_2046_8183" result="shape"/>
</filter>
</defs>
</svg>
