<svg width="41" height="40" viewBox="0 0 41 40" fill="none" xmlns="http://www.w3.org/2000/svg">
<g filter="url(#filter0_d_2055_8417)">
<path d="M11.8716 13.5026C12.2433 13.5026 12.5446 13.2013 12.5446 12.8296C12.5446 12.4579 12.2433 12.1566 11.8716 12.1566C11.4999 12.1566 11.1986 12.4579 11.1986 12.8296C11.1986 13.2013 11.4999 13.5026 11.8716 13.5026Z" fill="#B5B8D0"/>
<path d="M30.9909 9.08113C28.5317 9.61327 26.2635 10.8043 24.4294 12.5268C24.2073 12.7556 23.9852 12.9979 23.7564 13.2469L20.4925 13.7651C20.2525 13.8126 20.0251 13.9096 19.8247 14.0497C19.6242 14.1899 19.4552 14.3703 19.3282 14.5794L19.1667 14.8553H11.9322C11.7537 14.8553 11.5825 14.9262 11.4563 15.0524C11.3301 15.1786 11.2592 15.3498 11.2592 15.5283C11.2592 15.7067 11.3301 15.8779 11.4563 16.0041C11.5825 16.1303 11.7537 16.2012 11.9322 16.2012H18.3928C18.2408 16.4747 18.1656 16.7842 18.1751 17.097C18.1846 17.4097 18.2784 17.7141 18.4466 17.9779C18.6062 18.2291 18.8271 18.4356 19.0884 18.578C19.3498 18.7205 19.643 18.7942 19.9406 18.7922H20.1425L20.6203 18.7384C20.5303 19.0786 20.5307 19.4364 20.6216 19.7764C20.7125 20.1163 20.8907 20.4267 21.1385 20.6765L21.9124 21.4505C22.0712 21.6264 22.264 21.7684 22.4791 21.8678C22.6942 21.9673 22.9273 22.0222 23.1642 22.0292C23.3055 22.0301 23.4462 22.0097 23.5814 21.9686L23.7429 21.9148L23.6891 22.5878C23.6641 22.9117 23.7287 23.2363 23.8759 23.5259C24.0231 23.8156 24.2472 24.0591 24.5236 24.2298C24.8003 24.4018 25.1197 24.4927 25.4456 24.4923C25.7659 24.4902 26.0797 24.4019 26.3541 24.2366L27.552 23.5165C27.9055 23.3014 28.2087 23.0128 28.4409 22.6702C28.6731 22.3277 28.829 21.9393 28.8979 21.5312L29.2479 18.7787C29.5036 18.5567 29.7459 18.3346 29.9747 18.1058C31.6984 16.2516 32.8828 13.9618 33.4002 11.4837C33.4794 11.1486 33.4717 10.7989 33.3776 10.4677C33.2836 10.1364 33.1065 9.83478 32.863 9.59133C32.6196 9.34788 32.3179 9.17073 31.9867 9.07672C31.6555 8.98271 31.3058 8.97496 30.9707 9.05422L30.9909 9.08113ZM19.981 17.4395C19.9035 17.4516 19.8242 17.4401 19.7534 17.4065C19.6826 17.3729 19.6235 17.3187 19.5839 17.2511C19.5419 17.1859 19.5196 17.1099 19.5196 17.0324C19.5196 16.9548 19.5419 16.8789 19.5839 16.8136L20.5059 15.2793C20.5315 15.2311 20.5669 15.1889 20.6098 15.1553C20.6526 15.1217 20.7021 15.0974 20.7549 15.0841L22.6325 14.7947C22.0919 15.594 21.6127 16.4331 21.1991 17.3049L19.981 17.4395ZM27.5587 21.2889C27.5249 21.499 27.4476 21.6997 27.3317 21.8782C27.2158 22.0567 27.0639 22.209 26.8857 22.3253L25.6878 23.0387C25.624 23.0809 25.5491 23.1035 25.4725 23.1035C25.3959 23.1035 25.321 23.0809 25.2571 23.0387C25.19 23.0016 25.1355 22.9452 25.1007 22.8768C25.0659 22.8084 25.0524 22.7312 25.062 22.6551L25.1562 21.3562C26.066 20.9265 26.9413 20.427 27.7741 19.8622L27.5587 21.2889ZM32.108 11.1943C31.6319 13.411 30.5645 15.4575 29.0191 17.1165C27.3518 18.6977 25.3676 19.9066 23.1978 20.6631C23.1103 20.6631 23.0027 20.6294 22.8546 20.4881L22.0874 19.7142C22.0009 19.6278 21.9395 19.5196 21.9099 19.401C21.8803 19.2825 21.8835 19.1581 21.9192 19.0412C22.6931 16.9821 23.8715 15.0989 25.385 13.5026C27.0414 11.9558 29.0854 10.8861 31.3005 10.4069H31.462C31.6395 10.4094 31.8088 10.482 31.9331 10.6088C32.0064 10.6857 32.0604 10.7788 32.0908 10.8805C32.1212 10.9823 32.1271 11.0898 32.108 11.1943Z" fill="#B5B8D0"/>
<path d="M29.0325 14.1756C29.59 14.1756 30.042 13.7236 30.042 13.1661C30.042 12.6086 29.59 12.1566 29.0325 12.1566C28.475 12.1566 28.0231 12.6086 28.0231 13.1661C28.0231 13.7236 28.475 14.1756 29.0325 14.1756Z" fill="#B5B8D0"/>
<path d="M14.5635 13.5026C14.9352 13.5026 15.2365 13.2013 15.2365 12.8296C15.2365 12.4579 14.9352 12.1566 14.5635 12.1566C14.1918 12.1566 13.8905 12.4579 13.8905 12.8296C13.8905 13.2013 14.1918 13.5026 14.5635 13.5026Z" fill="#B5B8D0"/>
<path d="M17.2554 13.5026C17.6271 13.5026 17.9284 13.2013 17.9284 12.8296C17.9284 12.4579 17.6271 12.1566 17.2554 12.1566C16.8838 12.1566 16.5825 12.4579 16.5825 12.8296C16.5825 13.2013 16.8838 13.5026 17.2554 13.5026Z" fill="#B5B8D0"/>
<path d="M11.1919 31H30.0353C30.7492 31 31.4339 30.7164 31.9387 30.2116C32.4436 29.7067 32.7272 29.022 32.7272 28.3081V18.2134C32.7272 18.0349 32.6563 17.8638 32.5301 17.7376C32.4039 17.6114 32.2327 17.5405 32.0542 17.5405C31.8757 17.5405 31.7045 17.6114 31.5783 17.7376C31.4521 17.8638 31.3812 18.0349 31.3812 18.2134V28.3081C31.3812 28.6651 31.2394 29.0074 30.987 29.2598C30.7346 29.5122 30.3922 29.654 30.0353 29.654H11.1919C10.8349 29.654 10.4926 29.5122 10.2402 29.2598C9.98776 29.0074 9.84595 28.6651 9.84595 28.3081V12.1566C9.84595 11.7997 9.98776 11.4573 10.2402 11.2049C10.4926 10.9525 10.8349 10.8107 11.1919 10.8107H25.3244C25.5029 10.8107 25.6741 10.7398 25.8003 10.6136C25.9265 10.4874 25.9974 10.3162 25.9974 10.1377C25.9974 9.95922 25.9265 9.78805 25.8003 9.66184C25.6741 9.53563 25.5029 9.46473 25.3244 9.46473H11.1919C10.478 9.46473 9.79327 9.74834 9.28844 10.2532C8.78361 10.758 8.5 11.4427 8.5 12.1566V28.3081C8.5 29.022 8.78361 29.7067 9.28844 30.2116C9.79327 30.7164 10.478 31 11.1919 31Z" fill="#B5B8D0"/>
<path d="M19.4494 22.5608C19.7361 22.2741 20.2009 22.2741 20.4876 22.5608C20.7743 22.8475 20.7743 23.3123 20.4876 23.5991L17.3729 26.7138C17.0862 27.0005 16.6213 27.0005 16.3346 26.7138C16.0479 26.4271 16.0479 25.9623 16.3346 25.6756L19.4494 22.5608Z" fill="#B5B8D0"/>
<path d="M21.5259 24.6373C21.8126 24.3506 22.2774 24.3506 22.5641 24.6373C22.8508 24.924 22.8508 25.3889 22.5641 25.6756L20.4876 27.7521C20.2009 28.0388 19.7361 28.0388 19.4494 27.7521C19.1627 27.4654 19.1627 27.0005 19.4494 26.7138L21.5259 24.6373Z" fill="#B5B8D0"/>
<path d="M17.3729 20.4843C17.6596 20.1976 18.1244 20.1976 18.4111 20.4843C18.6978 20.771 18.6978 21.2358 18.4111 21.5225L16.3346 23.5991C16.0479 23.8858 15.5831 23.8858 15.2964 23.5991C15.0096 23.3123 15.0096 22.8475 15.2964 22.5608L17.3729 20.4843Z" fill="#B5B8D0"/>
</g>
<defs>
<filter id="filter0_d_2055_8417" x="-3.5" y="-4" width="50" height="50" filterUnits="userSpaceOnUse" color-interpolation-filters="sRGB">
<feFlood flood-opacity="0" result="BackgroundImageFix"/>
<feColorMatrix in="SourceAlpha" type="matrix" values="0 0 0 0 0 0 0 0 0 0 0 0 0 0 0 0 0 0 127 0" result="hardAlpha"/>
<feOffset dx="1" dy="1"/>
<feGaussianBlur stdDeviation="2.5"/>
<feComposite in2="hardAlpha" operator="out"/>
<feColorMatrix type="matrix" values="0 0 0 0 0.863281 0 0 0 0 0.870955 0 0 0 0 0.920833 0 0 0 0.51 0"/>
<feBlend mode="normal" in2="BackgroundImageFix" result="effect1_dropShadow_2055_8417"/>
<feBlend mode="normal" in="SourceGraphic" in2="effect1_dropShadow_2055_8417" result="shape"/>
</filter>
</defs>
</svg>
