<svg width="46" height="40" viewBox="0 0 46 40" fill="none" xmlns="http://www.w3.org/2000/svg">
<path d="M21.0924 13.2938C21.0924 12.2403 21.9464 11.3862 23 11.3862C24.0535 11.3862 24.9076 12.2403 24.9076 13.2938V24.7393C24.9076 25.7927 24.0535 26.6469 23 26.6469C21.9464 26.6469 21.0924 25.7927 21.0924 24.7393V13.2938Z" fill="#2D2E43"/>
<path d="M23 28.5545C21.9464 28.5545 21.0924 29.4087 21.0924 30.4621C21.0924 31.5154 21.9464 32.3697 23 32.3697C24.0535 32.3697 24.9076 31.5154 24.9076 30.4621C24.9076 29.4087 24.0535 28.5545 23 28.5545Z" fill="#2D2E43"/>
<path fill-rule="evenodd" clip-rule="evenodd" d="M18.0312 2.88356C20.2281 -0.961188 25.7717 -0.961188 27.9687 2.88356L44.2854 31.438C46.4656 35.2532 43.7108 40 39.3167 40H6.68312C2.28905 40 -0.46569 35.2532 1.71437 31.438L18.0312 2.88356ZM24.6562 4.77648C23.9238 3.49481 22.0759 3.49481 21.3436 4.77648L5.02687 33.3309C4.30018 34.6025 5.21843 36.1848 6.68312 36.1848H39.3167C40.7814 36.1848 41.6997 34.6025 40.9731 33.3309L24.6562 4.77648Z" fill="#2D2E43"/>
</svg>
